<svg width="564" height="408" viewBox="0 0 564 408" fill="none" xmlns="http://www.w3.org/2000/svg">
<g filter="url(#filter0_bdi_1770_2)">
<path d="M50 146C50 90.7716 94.7715 46 150 46H204.717H413.543C468.771 46 513.543 90.7715 513.543 146V253.419C513.543 308.648 468.771 353.419 413.543 353.419H150C94.7715 353.419 50 308.648 50 253.419V199.71V146Z" fill="white" fill-opacity="0.1" shape-rendering="crispEdges"/>
<path d="M511.043 146V253.419C511.043 307.267 467.391 350.919 413.543 350.919H150C96.1522 350.919 52.5 307.267 52.5 253.419V199.71V146C52.5 92.1523 96.1523 48.5 150 48.5H204.717H413.543C467.391 48.5 511.043 92.1522 511.043 146Z" stroke="url(#paint0_linear_1770_2)" stroke-width="5" shape-rendering="crispEdges"/>
</g>
<defs>
<filter id="filter0_bdi_1770_2" x="0" y="-4" width="563.543" height="411.419" filterUnits="userSpaceOnUse" color-interpolation-filters="sRGB">
<feFlood flood-opacity="0" result="BackgroundImageFix"/>
<feGaussianBlur in="BackgroundImageFix" stdDeviation="25"/>
<feComposite in2="SourceAlpha" operator="in" result="effect1_backgroundBlur_1770_2"/>
<feColorMatrix in="SourceAlpha" type="matrix" values="0 0 0 0 0 0 0 0 0 0 0 0 0 0 0 0 0 0 127 0" result="hardAlpha"/>
<feOffset dy="4"/>
<feGaussianBlur stdDeviation="25"/>
<feComposite in2="hardAlpha" operator="out"/>
<feColorMatrix type="matrix" values="0 0 0 0 1 0 0 0 0 1 0 0 0 0 1 0 0 0 0.15 0"/>
<feBlend mode="normal" in2="effect1_backgroundBlur_1770_2" result="effect2_dropShadow_1770_2"/>
<feBlend mode="normal" in="SourceGraphic" in2="effect2_dropShadow_1770_2" result="shape"/>
<feColorMatrix in="SourceAlpha" type="matrix" values="0 0 0 0 0 0 0 0 0 0 0 0 0 0 0 0 0 0 127 0" result="hardAlpha"/>
<feOffset dx="14" dy="10"/>
<feGaussianBlur stdDeviation="10"/>
<feComposite in2="hardAlpha" operator="arithmetic" k2="-1" k3="1"/>
<feColorMatrix type="matrix" values="0 0 0 0 0 0 0 0 0 0 0 0 0 0 0 0 0 0 0.7 0"/>
<feBlend mode="normal" in2="shape" result="effect3_innerShadow_1770_2"/>
</filter>
<linearGradient id="paint0_linear_1770_2" x1="85.3214" y1="61.7921" x2="290.382" y2="415.81" gradientUnits="userSpaceOnUse">
<stop stop-color="white"/>
<stop offset="0.759821" stop-color="white" stop-opacity="0"/>
</linearGradient>
</defs>
</svg>
