<svg width="150" height="53" viewBox="0 0 150 53" fill="none" xmlns="http://www.w3.org/2000/svg">
<g filter="url(#filter0_ddi_162_1144)">
<rect width="112" height="28" rx="14" transform="matrix(-1 0 0 1 126 10.0015)" fill="#F3F8FE"/>
</g>
<g filter="url(#filter1_i_162_1144)">
<circle cx="130" cy="24.0015" r="20" transform="rotate(-90 130 24.0015)" fill="#F6A624"/>
</g>
<path d="M43.6406 31.0015V16.7046H45.9648V28.9214H51.1602V31.0015H43.6406ZM60.1543 26.4019C60.1543 25.5425 59.8776 24.8166 59.3242 24.2241C58.7708 23.6252 58.0938 23.3257 57.293 23.3257C56.4987 23.3257 55.8216 23.6252 55.2617 24.2241C54.7083 24.8166 54.4316 25.5425 54.4316 26.4019C54.4316 27.2612 54.7083 27.9904 55.2617 28.5894C55.8216 29.1818 56.4987 29.478 57.293 29.478C58.0872 29.478 58.7611 29.1818 59.3145 28.5894C59.8743 27.9904 60.1543 27.2612 60.1543 26.4019ZM52.1953 26.3823C52.1953 25.7052 52.3223 25.0672 52.5762 24.4683C52.8366 23.8628 53.2077 23.3257 53.6895 22.8569C54.1647 22.3947 54.7116 22.0399 55.3301 21.7925C55.9486 21.5451 56.5964 21.4214 57.2734 21.4214C57.9701 21.4214 58.6243 21.5451 59.2363 21.7925C59.8548 22.0399 60.4082 22.4045 60.8965 22.8862C61.3848 23.3615 61.7559 23.8986 62.0098 24.4976C62.2637 25.0965 62.3906 25.7248 62.3906 26.3823C62.3906 27.0659 62.2637 27.7072 62.0098 28.3062C61.7624 28.9051 61.3978 29.4357 60.916 29.8979C60.4082 30.3862 59.8451 30.7541 59.2266 31.0015C58.6081 31.2554 57.957 31.3823 57.2734 31.3823C56.6029 31.3823 55.9583 31.2554 55.3398 31.0015C54.7214 30.7541 54.1712 30.3927 53.6895 29.9175C53.2012 29.4357 52.8301 28.8953 52.5762 28.2964C52.3223 27.6974 52.1953 27.0594 52.1953 26.3823ZM71.2871 26.3433C71.2871 25.3862 71.0625 24.6408 70.6133 24.1069C70.1706 23.5731 69.5488 23.3062 68.748 23.3062C67.9473 23.3062 67.3158 23.5828 66.8535 24.1362C66.3978 24.6831 66.1699 25.4448 66.1699 26.4214C66.1699 27.4045 66.3913 28.1629 66.834 28.6968C67.2767 29.2306 67.9017 29.4976 68.709 29.4976C69.4707 29.4976 70.0892 29.2078 70.5645 28.6284C71.0462 28.049 71.2871 27.2873 71.2871 26.3433ZM73.3477 30.4253C73.3477 32.2352 72.9863 33.508 72.2637 34.2437C71.541 34.9858 70.3236 35.3569 68.6113 35.3569C67.3353 35.3569 66.3164 35.0868 65.5547 34.5464C64.793 34.0125 64.4056 33.2996 64.3926 32.4077L66.668 32.3979C66.7005 32.7951 66.8861 33.0978 67.2246 33.3062C67.5632 33.5145 68.0384 33.6187 68.6504 33.6187C69.5553 33.6187 70.2064 33.4201 70.6035 33.0229C71.0007 32.6258 71.2025 31.9618 71.209 31.0308L71.2285 29.8003C70.8509 30.3341 70.4082 30.7313 69.9004 30.9917C69.3991 31.2521 68.8229 31.3823 68.1719 31.3823C66.8633 31.3823 65.8314 30.9364 65.0762 30.0444C64.3275 29.146 63.9531 27.9188 63.9531 26.3628C63.9531 24.8849 64.3372 23.6935 65.1055 22.7886C65.8737 21.8771 66.8763 21.4214 68.1133 21.4214C68.8685 21.4214 69.513 21.5809 70.0469 21.8999C70.5872 22.2124 70.9811 22.6649 71.2285 23.2573V21.7437H73.3477V30.4253ZM76.0918 17.7397C76.0918 17.3817 76.222 17.0724 76.4824 16.812C76.7493 16.5516 77.0651 16.4214 77.4297 16.4214C77.8073 16.4214 78.1198 16.5483 78.3672 16.8022C78.6211 17.0496 78.748 17.3621 78.748 17.7397C78.748 18.1174 78.6211 18.4364 78.3672 18.6968C78.1133 18.9507 77.8008 19.0776 77.4297 19.0776C77.0651 19.0776 76.7493 18.9474 76.4824 18.687C76.222 18.4201 76.0918 18.1043 76.0918 17.7397ZM76.375 31.0015V21.7437H78.4941V31.0015H76.375ZM81.5312 31.0015V21.7437H83.5234V23.2573C83.9466 22.6193 84.4447 22.1538 85.0176 21.8608C85.5905 21.5679 86.2871 21.4214 87.1074 21.4214C87.7975 21.4214 88.3835 21.5321 88.8652 21.7534C89.3535 21.9683 89.7344 22.2905 90.0078 22.7202C90.1706 22.9741 90.2878 23.2703 90.3594 23.6089C90.431 23.9474 90.4668 24.5399 90.4668 25.3862V31.0015H88.3281V26.2456C88.3281 25.0282 88.1784 24.2209 87.8789 23.8237C87.5859 23.4201 87.0618 23.2183 86.3066 23.2183C85.8118 23.2183 85.3691 23.3094 84.9785 23.4917C84.5944 23.674 84.2917 23.9312 84.0703 24.2632C83.9141 24.4845 83.8034 24.771 83.7383 25.1226C83.6797 25.4676 83.6504 26.021 83.6504 26.7827V31.0015H81.5312Z" fill="#F6A624"/>
<defs>
<filter id="filter0_ddi_162_1144" x="0" y="0.00146484" width="136" height="52" filterUnits="userSpaceOnUse" color-interpolation-filters="sRGB">
<feFlood flood-opacity="0" result="BackgroundImageFix"/>
<feColorMatrix in="SourceAlpha" type="matrix" values="0 0 0 0 0 0 0 0 0 0 0 0 0 0 0 0 0 0 127 0" result="hardAlpha"/>
<feOffset dy="4"/>
<feGaussianBlur stdDeviation="5"/>
<feComposite in2="hardAlpha" operator="out"/>
<feColorMatrix type="matrix" values="0 0 0 0 0.901961 0 0 0 0 0.439216 0 0 0 0 0.0352941 0 0 0 1 0"/>
<feBlend mode="normal" in2="BackgroundImageFix" result="effect1_dropShadow_162_1144"/>
<feColorMatrix in="SourceAlpha" type="matrix" values="0 0 0 0 0 0 0 0 0 0 0 0 0 0 0 0 0 0 127 0" result="hardAlpha"/>
<feOffset dx="-4"/>
<feGaussianBlur stdDeviation="5"/>
<feComposite in2="hardAlpha" operator="out"/>
<feColorMatrix type="matrix" values="0 0 0 0 1 0 0 0 0 1 0 0 0 0 1 0 0 0 0.973455 0"/>
<feBlend mode="normal" in2="effect1_dropShadow_162_1144" result="effect2_dropShadow_162_1144"/>
<feBlend mode="normal" in="SourceGraphic" in2="effect2_dropShadow_162_1144" result="shape"/>
<feColorMatrix in="SourceAlpha" type="matrix" values="0 0 0 0 0 0 0 0 0 0 0 0 0 0 0 0 0 0 127 0" result="hardAlpha"/>
<feOffset dx="3" dy="3"/>
<feGaussianBlur stdDeviation="1"/>
<feComposite in2="hardAlpha" operator="arithmetic" k2="-1" k3="1"/>
<feColorMatrix type="matrix" values="0 0 0 0 0.670937 0 0 0 0 0.68983 0 0 0 0 0.7125 0 0 0 1 0"/>
<feBlend mode="normal" in2="shape" result="effect3_innerShadow_162_1144"/>
</filter>
<filter id="filter1_i_162_1144" x="110" y="4.00146" width="40" height="41" filterUnits="userSpaceOnUse" color-interpolation-filters="sRGB">
<feFlood flood-opacity="0" result="BackgroundImageFix"/>
<feBlend mode="normal" in="SourceGraphic" in2="BackgroundImageFix" result="shape"/>
<feColorMatrix in="SourceAlpha" type="matrix" values="0 0 0 0 0 0 0 0 0 0 0 0 0 0 0 0 0 0 127 0" result="hardAlpha"/>
<feOffset dy="1"/>
<feGaussianBlur stdDeviation="1"/>
<feComposite in2="hardAlpha" operator="arithmetic" k2="-1" k3="1"/>
<feColorMatrix type="matrix" values="0 0 0 0 0.901961 0 0 0 0 0.439216 0 0 0 0 0.0352941 0 0 0 1 0"/>
<feBlend mode="normal" in2="shape" result="effect1_innerShadow_162_1144"/>
</filter>
</defs>
</svg>
