<svg class="svg1" width="250" height="300" viewBox="0 0 455 435" fill="none" xmlns="http://www.w3.org/2000/svg">
    <g filter="url(#filter0_d_843_2)">
    <path d="M95.714 347.557C65.6474 315.303 47.2513 272.027 47.2513 224.455C47.2513 124.725 128.098 43.8774 227.828 43.8774C327.559 43.8774 408.406 124.725 408.406 224.455C408.406 259.911 398.187 292.981 380.534 320.879L348.842 300.522C362.718 278.494 370.745 252.412 370.745 224.455C370.745 145.524 306.759 81.5379 227.828 81.5379C148.898 81.5379 84.9117 145.524 84.9117 224.455C84.9117 258.694 96.9522 290.121 117.03 314.733L95.714 347.557Z" fill="url(#paint0_angular_843_2)" shape-rendering="crispEdges"/>
    </g>
    <g filter="url(#filter1_b_843_2)">
    <path d="M83.3134 370.39C48.7438 334.63 25.519 285.216 24.5831 231.598C22.6211 119.195 112.28 26.4815 224.841 24.5167C337.403 22.5519 430.243 112.08 432.205 224.483C432.902 264.445 420.979 303.009 401.603 334.8L364.8 312.961C380.027 287.86 390.249 256.735 389.699 225.225C388.146 136.264 314.668 65.4078 225.582 66.9628C136.496 68.5179 65.5363 141.895 67.0891 230.856C67.7627 269.446 83.6253 305.434 106.771 332.778L83.3134 370.39Z" fill="white" fill-opacity="0.1"/>
    <path d="M106.462 332.8L83.2708 369.986C48.8635 334.285 25.7657 285.027 24.8331 231.594C22.8735 119.329 112.422 26.729 224.846 24.7667C337.27 22.8043 429.995 112.223 431.955 224.487C432.65 264.309 420.796 302.744 401.518 334.459L365.144 312.874C380.32 287.778 390.498 256.695 389.949 225.221C388.393 136.121 314.802 65.1555 225.578 66.7129C136.354 68.2703 65.2839 141.761 66.8391 230.86C67.5127 269.451 83.3489 305.436 106.462 332.8Z" stroke="url(#paint1_linear_843_2)" stroke-width="0.5" style="mix-blend-mode:overlay"/>
    </g>
    <g filter="url(#filter2_d_843_2)">
    <path d="M133.585 283.46C98.994 220.263 128.611 169.814 133.585 162.893C150.655 139.139 172.588 110.902 230.618 110.902C298.452 114.487 337.984 160.652 340.23 224.297C340.23 247.354 334.217 268.007 322.71 286.149H309.493C309.493 271.806 309.493 246.511 309.493 228.331C309.493 186.2 282.064 142.276 230.618 142.276C179.172 142.276 147.96 183.062 147.96 224.297C147.96 246.563 147.96 279.59 147.96 299.595V299.595C147.572 299.259 147.379 299.091 147.187 298.922C142.45 294.762 138.223 290.057 134.591 284.904C134.444 284.695 134.297 284.485 134.004 284.063L133.585 283.46Z" fill="url(#paint2_angular_843_2)"/>
    </g>
    <g filter="url(#filter3_b_843_2)">
    <path d="M117.033 296.905C76.5121 222.698 111.207 163.46 117.033 155.334C137.031 127.44 162.723 94.2842 230.703 94.2842C310.166 98.4945 356.476 152.702 359.107 227.435C359.107 254.509 352.062 278.76 338.583 300.063H323.1C323.1 283.221 323.1 253.52 323.1 232.172C323.1 182.701 290.969 131.124 230.703 131.124C170.436 131.124 133.873 179.017 133.873 227.435C133.873 253.58 133.873 292.362 133.873 315.851L124.692 306.961L117.033 296.905Z" fill="white" fill-opacity="0.1"/>
    <path d="M117.243 296.769C76.8016 222.689 111.439 163.565 117.236 155.479C127.234 141.534 138.635 126.304 156.015 114.556C173.388 102.812 196.754 94.5353 230.696 94.5342C270.368 96.6376 301.746 111.219 323.534 134.584C345.325 157.952 357.542 190.124 358.857 227.439C358.856 254.417 351.85 278.58 338.446 299.813H323.35V299.765V299.666V299.566V299.465V299.365V299.264V299.163V299.061V298.96V298.858V298.755V298.653V298.55V298.447V298.343V298.24V298.136V298.032V297.927V297.822V297.717V297.612V297.506V297.4V297.294V297.188V297.081V296.974V296.867V296.759V296.652V296.544V296.435V296.327V296.218V296.109V296V295.89V295.78V295.67V295.56V295.449V295.339V295.227V295.116V295.005V294.893V294.781V294.668V294.556V294.443V294.33V294.216V294.103V293.989V293.875V293.761V293.646V293.532V293.417V293.301V293.186V293.07V292.954V292.838V292.722V292.605V292.488V292.371V292.254V292.136V292.019V291.901V291.782V291.664V291.545V291.426V291.307V291.188V291.069V290.949V290.829V290.709V290.588V290.468V290.347V290.226V290.105V289.983V289.862V289.74V289.618V289.495V289.373V289.25V289.127V289.004V288.881V288.758V288.634V288.51V288.386V288.262V288.137V288.013V287.888V287.763V287.638V287.512V287.387V287.261V287.135V287.009V286.882V286.756V286.629V286.502V286.375V286.248V286.12V285.993V285.865V285.737V285.609V285.48V285.352V285.223V285.094V284.965V284.836V284.707V284.577V284.448V284.318V284.188V284.058V283.927V283.797V283.666V283.535V283.404V283.273V283.142V283.01V282.879V282.747V282.615V282.483V282.351V282.218V282.086V281.953V281.82V281.687V281.554V281.421V281.287V281.154V281.02V280.886V280.752V280.618V280.484V280.349V280.215V280.08V279.945V279.81V279.675V279.54V279.405V279.269V279.134V278.998V278.862V278.726V278.59V278.454V278.317V278.181V278.044V277.908V277.771V277.634V277.497V277.359V277.222V277.085V276.947V276.809V276.672V276.534V276.396V276.258V276.12V275.981V275.843V275.704V275.566V275.427V275.288V275.149V275.01V274.871V274.732V274.592V274.453V274.313V274.174V274.034V273.894V273.754V273.614V273.474V273.334V273.194V273.053V272.913V272.772V272.632V272.491V272.35V272.209V272.068V271.927V271.786V271.645V271.504V271.363V271.221V271.08V270.938V270.796V270.655V270.513V270.371V270.229V270.087V269.945V269.803V269.661V269.519V269.376V269.234V269.092V268.949V268.807V268.664V268.521V268.379V268.236V268.093V267.95V267.807V267.664V267.521V267.378V267.235V267.092V266.949V266.805V266.662V266.519V266.375V266.232V266.088V265.945V265.801V265.658V265.514V265.37V265.226V265.083V264.939V264.795V264.651V264.507V264.363V264.22V264.076V263.932V263.788V263.644V263.499V263.355V263.211V263.067V262.923V262.779V262.635V262.49V262.346V262.202V262.058V261.913V261.769V261.625V261.481V261.336V261.192V261.048V260.903V260.759V260.615V260.47V260.326V260.181V260.037V259.893V259.748V259.604V259.46V259.315V259.171V259.027V258.882V258.738V258.594V258.449V258.305V258.161V258.016V257.872V257.728V257.584V257.439V257.295V257.151V257.007V256.863V256.719V256.575V256.43V256.286V256.142V255.998V255.854V255.71V255.566V255.423V255.279V255.135V254.991V254.847V254.704V254.56V254.416V254.272V254.129V253.985V253.842V253.698V253.555V253.411V253.268V253.125V252.982V252.838V252.695V252.552V252.409V252.266V252.123V251.98V251.837V251.694V251.552V251.409V251.266V251.124V250.981V250.839V250.696V250.554V250.412V250.269V250.127V249.985V249.843V249.701V249.559V249.417V249.276V249.134V248.992V248.851V248.709V248.568V248.427V248.285V248.144V248.003V247.862V247.721V247.58V247.44V247.299V247.158V247.018V246.877V246.737V246.597V246.457V246.317V246.177V246.037V245.897V245.757V245.618V245.478V245.339V245.199V245.06V244.921V244.782V244.643V244.504V244.366V244.227V244.088V243.95V243.812V243.674V243.535V243.398V243.26V243.122V242.984V242.847V242.709V242.572V242.435V242.298V242.161V242.024V241.887V241.751V241.614V241.478V241.342V241.206V241.07V240.934V240.798V240.663V240.527V240.392V240.257V240.122V239.987V239.852V239.717V239.583V239.448V239.314V239.18V239.046V238.912V238.779V238.645V238.512V238.378V238.245V238.112V237.98V237.847V237.714V237.582V237.45V237.318V237.186V237.054V236.923V236.791V236.66V236.529V236.398V236.267V236.136V236.006V235.876V235.745V235.615V235.486V235.356V235.227V235.097V234.968V234.839V234.71V234.582V234.453V234.325V234.197V234.069V233.941V233.813V233.686V233.559V233.432V233.305V233.178V233.052V232.925V232.799V232.673V232.548V232.422V232.297V232.172C323.35 182.612 291.152 130.874 230.703 130.874C170.28 130.874 133.623 178.897 133.623 227.435V227.588V227.742V227.896V228.05V228.205V228.359V228.514V228.67V228.825V228.981V229.137V229.294V229.451V229.607V229.765V229.922V230.08V230.238V230.396V230.555V230.714V230.873V231.032V231.192V231.352V231.512V231.673V231.833V231.994V232.155V232.317V232.478V232.64V232.803V232.965V233.128V233.291V233.454V233.617V233.781V233.945V234.109V234.273V234.438V234.603V234.768V234.933V235.098V235.264V235.43V235.596V235.763V235.93V236.096V236.263V236.431V236.598V236.766V236.934V237.102V237.271V237.439V237.608V237.777V237.946V238.116V238.286V238.455V238.626V238.796V238.966V239.137V239.308V239.479V239.65V239.822V239.993V240.165V240.337V240.509V240.682V240.855V241.027V241.2V241.373V241.547V241.72V241.894V242.068V242.242V242.416V242.591V242.765V242.94V243.115V243.29V243.466V243.641V243.817V243.992V244.168V244.344V244.521V244.697V244.874V245.051V245.227V245.405V245.582V245.759V245.937V246.114V246.292V246.47V246.648V246.827V247.005V247.184V247.362V247.541V247.72V247.899V248.078V248.258V248.437V248.617V248.797V248.977V249.157V249.337V249.517V249.698V249.878V250.059V250.24V250.421V250.602V250.783V250.964V251.146V251.327V251.509V251.69V251.872V252.054V252.236V252.418V252.601V252.783V252.966V253.148V253.331V253.514V253.696V253.879V254.063V254.246V254.429V254.612V254.796V254.979V255.163V255.347V255.53V255.714V255.898V256.082V256.266V256.451V256.635V256.819V257.004V257.188V257.373V257.557V257.742V257.927V258.112V258.297V258.482V258.667V258.852V259.037V259.222V259.408V259.593V259.778V259.964V260.149V260.335V260.521V260.706V260.892V261.078V261.264V261.45V261.636V261.822V262.008V262.194V262.38V262.566V262.752V262.938V263.124V263.311V263.497V263.683V263.87V264.056V264.242V264.429V264.615V264.802V264.988V265.175V265.361V265.548V265.735V265.921V266.108V266.294V266.481V266.668V266.854V267.041V267.228V267.414V267.601V267.788V267.974V268.161V268.348V268.535V268.721V268.908V269.095V269.281V269.468V269.655V269.841V270.028V270.215V270.401V270.588V270.774V270.961V271.147V271.334V271.52V271.707V271.893V272.08V272.266V272.453V272.639V272.825V273.011V273.198V273.384V273.57V273.756V273.942V274.128V274.314V274.5V274.686V274.872V275.058V275.244V275.43V275.615V275.801V275.987V276.172V276.358V276.543V276.728V276.914V277.099V277.284V277.469V277.654V277.839V278.024V278.209V278.394V278.579V278.764V278.948V279.133V279.317V279.502V279.686V279.87V280.054V280.238V280.422V280.606V280.79V280.974V281.157V281.341V281.524V281.708V281.891V282.074V282.257V282.44V282.623V282.806V282.989V283.171V283.354V283.536V283.719V283.901V284.083V284.265V284.447V284.629V284.81V284.992V285.173V285.355V285.536V285.717V285.898V286.079V286.259V286.44V286.62V286.801V286.981V287.161V287.341V287.521V287.701V287.88V288.06V288.239V288.418V288.597V288.776V288.955V289.133V289.312V289.49V289.668V289.846V290.024V290.202V290.38V290.557V290.734V290.911V291.088V291.265V291.442V291.618V291.795V291.971V292.147V292.323V292.498V292.674V292.849V293.024V293.199V293.374V293.549V293.723V293.898V294.072V294.246V294.42V294.593V294.767V294.94V295.113V295.286V295.458V295.631V295.803V295.975V296.147V296.319V296.49V296.662V296.833V297.004V297.175V297.345V297.516V297.686V297.856V298.025V298.195V298.364V298.533V298.702V298.871V299.039V299.208V299.376V299.544V299.711V299.878V300.046V300.213V300.379V300.546V300.712V300.878V301.044V301.21V301.375V301.54V301.705V301.87V302.034V302.198V302.362V302.526V302.689V302.853V303.016V303.178V303.341V303.503V303.665V303.827V303.989V304.15V304.311V304.472V304.632V304.792V304.952V305.112V305.272V305.431V305.59V305.748V305.907V306.065V306.223V306.38V306.538V306.695V306.852V307.008V307.164V307.32V307.476V307.631V307.787V307.941V308.096V308.25V308.404V308.558V308.712V308.865V309.018V309.17V309.322V309.474V309.626V309.777V309.928V310.079V310.23V310.38V310.53V310.679V310.829V310.978V311.126V311.275V311.423V311.57V311.718V311.865V312.012V312.158V312.304V312.45V312.596V312.741V312.886V313.03V313.175V313.318V313.462V313.605V313.748V313.891V314.033V314.175V314.316V314.458V314.599V314.739V314.879V315.019V315.159V315.261L124.88 306.795L117.243 296.769Z" stroke="url(#paint3_linear_843_2)" stroke-width="0.5"/>
    </g>
    <path d="M102.66 345.427L80.0626 385.381C42.092 349.111 17.1714 298.978 13.7124 242.424C6.43174 123.386 96.9988 20.9867 215.999 13.7083C335 6.42993 437.371 97.0289 444.652 216.067C447.229 258.209 437.544 298.264 418.676 332.752L380.155 311.204C395.026 283.853 402.649 252.128 400.608 218.761C394.816 124.055 313.37 51.9753 218.694 57.7659C124.018 63.5566 51.9635 145.025 57.7559 239.731C60.2606 280.682 76.9111 317.404 102.66 345.427Z" stroke="white"/>
    <path d="M147.013 298.921C142.325 294.803 138.138 290.147 134.539 285.049C134.382 284.827 134.226 284.603 133.912 284.152L133.912 284.152L133.507 283.57C98.9321 220.428 128.552 170.049 133.487 163.187C142.054 151.275 151.799 138.303 166.647 128.298C181.482 118.302 201.447 111.245 230.48 111.243C264.411 113.038 291.226 125.468 309.84 145.366C328.458 165.267 338.908 192.679 340.034 224.497C340.032 247.432 334.071 267.974 322.67 286.031H310.177V286.021V285.935V285.848V285.762V285.675V285.589V285.501V285.414V285.326V285.239V285.15V285.062V284.974V284.885V284.796V284.706V284.617V284.527V284.437V284.347V284.256V284.166V284.075V283.984V283.892V283.801V283.709V283.617V283.525V283.432V283.339V283.247V283.153V283.06V282.966V282.873V282.779V282.684V282.59V282.495V282.4V282.305V282.21V282.114V282.019V281.923V281.826V281.73V281.633V281.537V281.44V281.342V281.245V281.147V281.05V280.952V280.853V280.755V280.656V280.557V280.458V280.359V280.26V280.16V280.06V279.96V279.86V279.76V279.659V279.558V279.457V279.356V279.255V279.153V279.052V278.95V278.848V278.745V278.643V278.54V278.437V278.334V278.231V278.128V278.024V277.92V277.816V277.712V277.608V277.504V277.399V277.294V277.189V277.084V276.979V276.873V276.768V276.662V276.556V276.45V276.343V276.237V276.13V276.024V275.917V275.809V275.702V275.595V275.487V275.379V275.271V275.163V275.055V274.947V274.838V274.729V274.62V274.511V274.402V274.293V274.183V274.074V273.964V273.854V273.744V273.634V273.523V273.413V273.302V273.192V273.081V272.969V272.858V272.747V272.635V272.524V272.412V272.3V272.188V272.076V271.964V271.851V271.739V271.626V271.513V271.4V271.287V271.174V271.06V270.947V270.833V270.72V270.606V270.492V270.378V270.263V270.149V270.035V269.92V269.805V269.691V269.576V269.461V269.345V269.23V269.115V268.999V268.884V268.768V268.652V268.536V268.42V268.304V268.188V268.071V267.955V267.838V267.721V267.605V267.488V267.371V267.254V267.136V267.019V266.902V266.784V266.667V266.549V266.431V266.313V266.195V266.077V265.959V265.841V265.722V265.604V265.485V265.367V265.248V265.129V265.011V264.892V264.773V264.653V264.534V264.415V264.296V264.176V264.057V263.937V263.817V263.698V263.578V263.458V263.338V263.218V263.098V262.978V262.857V262.737V262.617V262.496V262.376V262.255V262.134V262.014V261.893V261.772V261.651V261.53V261.409V261.288V261.167V261.045V260.924V260.803V260.681V260.56V260.438V260.317V260.195V260.074V259.952V259.83V259.708V259.586V259.464V259.342V259.22V259.098V258.976V258.854V258.732V258.61V258.487V258.365V258.243V258.12V257.998V257.876V257.753V257.63V257.508V257.385V257.263V257.14V257.017V256.895V256.772V256.649V256.526V256.403V256.28V256.157V256.035V255.912V255.789V255.666V255.543V255.42V255.296V255.173V255.05V254.927V254.804V254.681V254.558V254.434V254.311V254.188V254.065V253.942V253.818V253.695V253.572V253.448V253.325V253.202V253.079V252.955V252.832V252.709V252.585V252.462V252.339V252.215V252.092V251.969V251.845V251.722V251.599V251.475V251.352V251.229V251.106V250.982V250.859V250.736V250.613V250.489V250.366V250.243V250.12V249.996V249.873V249.75V249.627V249.504V249.381V249.258V249.135V249.012V248.889V248.766V248.643V248.52V248.397V248.274V248.151V248.028V247.905V247.782V247.66V247.537V247.414V247.292V247.169V247.046V246.924V246.801V246.679V246.556V246.434V246.311V246.189V246.067V245.945V245.822V245.7V245.578V245.456V245.334V245.212V245.09V244.968V244.846V244.724V244.603V244.481V244.359V244.238V244.116V243.995V243.873V243.752V243.63V243.509V243.388V243.267V243.146V243.025V242.904V242.783V242.662V242.541V242.42V242.3V242.179V242.059V241.938V241.818V241.697V241.577V241.457V241.337V241.217V241.097V240.977V240.857V240.738V240.618V240.498V240.379V240.259V240.14V240.021V239.902V239.782V239.663V239.545V239.426V239.307V239.188V239.07V238.951V238.833V238.714V238.596V238.478V238.36V238.242V238.124V238.006V237.889V237.771V237.654V237.536V237.419V237.302V237.185V237.068V236.951V236.834V236.717V236.601V236.484V236.368V236.252V236.136V236.02V235.904V235.788V235.672V235.557V235.441V235.326V235.211V235.095V234.98V234.865V234.751V234.636V234.521V234.407V234.293V234.179V234.064V233.95V233.837V233.723V233.609V233.496V233.383V233.269V233.156V233.043V232.931V232.818V232.705V232.593V232.481V232.369V232.257V232.145V232.033V231.921V231.81V231.699V231.587V231.476V231.365V231.255V231.144V231.034V230.923V230.813V230.703V230.593V230.483V230.374V230.264V230.155V230.046V229.937V229.828V229.719V229.611V229.503V229.394V229.286V229.178V229.071V228.963V228.856V228.748V228.641V228.534C310.177 186.096 282.506 141.714 230.494 141.714C178.536 141.714 147.013 182.886 147.013 224.488V224.619V224.75V224.882V225.014V225.146V225.278V225.41V225.543V225.676V225.809V225.942V226.076V226.21V226.344V226.478V226.613V226.748V226.883V227.018V227.153V227.289V227.425V227.561V227.698V227.834V227.971V228.108V228.245V228.383V228.521V228.658V228.797V228.935V229.073V229.212V229.351V229.49V229.63V229.769V229.909V230.049V230.189V230.33V230.47V230.611V230.752V230.893V231.035V231.176V231.318V231.46V231.602V231.745V231.887V232.03V232.173V232.316V232.459V232.603V232.746V232.89V233.034V233.179V233.323V233.468V233.612V233.757V233.902V234.048V234.193V234.339V234.485V234.631V234.777V234.923V235.069V235.216V235.363V235.51V235.657V235.804V235.952V236.099V236.247V236.395V236.543V236.692V236.84V236.988V237.137V237.286V237.435V237.584V237.734V237.883V238.033V238.182V238.332V238.482V238.632V238.783V238.933V239.084V239.234V239.385V239.536V239.687V239.839V239.99V240.142V240.293V240.445V240.597V240.749V240.901V241.053V241.206V241.358V241.511V241.664V241.817V241.97V242.123V242.276V242.43V242.583V242.737V242.89V243.044V243.198V243.352V243.506V243.66V243.815V243.969V244.124V244.278V244.433V244.588V244.743V244.898V245.053V245.208V245.364V245.519V245.675V245.83V245.986V246.142V246.298V246.454V246.61V246.766V246.922V247.078V247.235V247.391V247.548V247.705V247.861V248.018V248.175V248.332V248.489V248.646V248.803V248.96V249.118V249.275V249.432V249.59V249.747V249.905V250.063V250.22V250.378V250.536V250.694V250.852V251.01V251.168V251.326V251.484V251.643V251.801V251.959V252.118V252.276V252.435V252.593V252.752V252.91V253.069V253.228V253.387V253.545V253.704V253.863V254.022V254.181V254.34V254.499V254.658V254.817V254.976V255.135V255.294V255.453V255.613V255.772V255.931V256.09V256.25V256.409V256.568V256.728V256.887V257.046V257.206V257.365V257.525V257.684V257.843V258.003V258.162V258.322V258.481V258.641V258.8V258.96V259.119V259.279V259.438V259.598V259.757V259.917V260.076V260.236V260.395V260.555V260.714V260.873V261.033V261.192V261.352V261.511V261.67V261.83V261.989V262.148V262.308V262.467V262.626V262.785V262.945V263.104V263.263V263.422V263.581V263.74V263.899V264.058V264.217V264.376V264.535V264.694V264.853V265.012V265.17V265.329V265.488V265.646V265.805V265.964V266.122V266.281V266.439V266.597V266.756V266.914V267.072V267.23V267.388V267.546V267.704V267.862V268.02V268.178V268.336V268.494V268.651V268.809V268.966V269.124V269.281V269.438V269.596V269.753V269.91V270.067V270.224V270.381V270.538V270.694V270.851V271.008V271.164V271.321V271.477V271.633V271.789V271.945V272.101V272.257V272.413V272.569V272.725V272.88V273.036V273.191V273.346V273.501V273.656V273.811V273.966V274.121V274.276V274.43V274.585V274.739V274.894V275.048V275.202V275.356V275.51V275.663V275.817V275.97V276.124V276.277V276.43V276.583V276.736V276.889V277.042V277.194V277.347V277.499V277.651V277.803V277.955V278.107V278.259V278.41V278.562V278.713V278.864V279.015V279.166V279.317V279.468V279.618V279.769V279.919V280.069V280.219V280.369V280.518V280.668V280.817V280.966V281.115V281.264V281.413V281.562V281.71V281.858V282.007V282.155V282.302V282.45V282.598V282.745V282.892V283.039V283.186V283.333V283.479V283.626V283.772V283.918V284.064V284.209V284.355V284.5V284.645V284.79V284.935V285.08V285.224V285.369V285.513V285.657V285.8V285.944V286.087V286.23V286.373V286.516V286.659V286.801V286.944V287.086V287.227V287.369V287.511V287.652V287.793V287.934V288.074V288.215V288.355V288.495V288.635V288.775V288.914V289.053V289.192V289.331V289.47V289.608V289.747V289.884V290.022V290.16V290.297V290.434V290.571V290.708V290.844V290.98V291.116V291.252V291.388V291.523V291.658V291.793V291.928V292.062V292.196V292.33V292.464V292.597V292.731V292.864V292.997V293.129V293.261V293.393V293.525V293.657V293.788V293.919V294.05V294.181V294.311V294.441V294.571V294.7V294.83V294.959V295.088V295.216V295.344V295.472V295.6V295.728V295.855V295.982V296.109V296.235V296.361V296.487V296.613V296.738V296.863V296.988V297.113V297.237V297.361V297.485V297.608V297.732V297.855V297.977V298.1V298.222V298.343V298.465V298.586V298.707V298.828V298.921Z" stroke="white"/>
    <g filter="url(#filter4_d_843_2)">
    <ellipse cx="101.524" cy="427.114" rx="4.18182" ry="5.60451" fill="#E67009"/>
    <path d="M97.3423 421.509H105.706V426.413L104.399 429.566L101.524 431.317L98.6491 429.566L97.3423 426.413V421.509Z" fill="url(#paint4_linear_843_2)"/>
    <g filter="url(#filter5_i_843_2)">
    <ellipse cx="101.524" cy="421.838" rx="4.18182" ry="4.55368" fill="url(#paint5_radial_843_2)"/>
    </g>
    </g>
    <g filter="url(#filter6_d_843_2)">
    <ellipse cx="368.524" cy="286.74" rx="4.18182" ry="5.60451" fill="#E67009"/>
    <path d="M364.342 281.135H372.706V286.039L371.399 289.192L368.524 290.943L365.649 289.192L364.342 286.039V281.135Z" fill="url(#paint6_linear_843_2)"/>
    <g filter="url(#filter7_i_843_2)">
    <ellipse cx="368.524" cy="281.465" rx="4.18182" ry="4.55368" fill="url(#paint7_radial_843_2)"/>
    </g>
    </g>
    <defs>
    <filter id="filter0_d_843_2" x="27.2513" y="29.8774" width="401.154" height="343.68" filterUnits="userSpaceOnUse" color-interpolation-filters="sRGB">
    <feFlood flood-opacity="0" result="BackgroundImageFix"/>
    <feColorMatrix in="SourceAlpha" type="matrix" values="0 0 0 0 0 0 0 0 0 0 0 0 0 0 0 0 0 0 127 0" result="hardAlpha"/>
    <feOffset dy="6"/>
    <feGaussianBlur stdDeviation="10"/>
    <feComposite in2="hardAlpha" operator="out"/>
    <feColorMatrix type="matrix" values="0 0 0 0 0.901961 0 0 0 0 0.439216 0 0 0 0 0.0352941 0 0 0 1 0"/>
    <feBlend mode="normal" in2="BackgroundImageFix" result="effect1_dropShadow_843_2"/>
    <feBlend mode="normal" in="SourceGraphic" in2="effect1_dropShadow_843_2" result="shape"/>
    </filter>
    <filter id="filter1_b_843_2" x="-25.4485" y="-25.5151" width="507.682" height="445.905" filterUnits="userSpaceOnUse" color-interpolation-filters="sRGB">
    <feFlood flood-opacity="0" result="BackgroundImageFix"/>
    <feGaussianBlur in="BackgroundImageFix" stdDeviation="25"/>
    <feComposite in2="SourceAlpha" operator="in" result="effect1_backgroundBlur_843_2"/>
    <feBlend mode="normal" in="SourceGraphic" in2="effect1_backgroundBlur_843_2" result="shape"/>
    </filter>
    <filter id="filter2_d_843_2" x="97.045" y="100.902" width="263.185" height="228.693" filterUnits="userSpaceOnUse" color-interpolation-filters="sRGB">
    <feFlood flood-opacity="0" result="BackgroundImageFix"/>
    <feColorMatrix in="SourceAlpha" type="matrix" values="0 0 0 0 0 0 0 0 0 0 0 0 0 0 0 0 0 0 127 0" result="hardAlpha"/>
    <feOffset dy="10"/>
    <feGaussianBlur stdDeviation="10"/>
    <feComposite in2="hardAlpha" operator="out"/>
    <feColorMatrix type="matrix" values="0 0 0 0 0.964706 0 0 0 0 0.65098 0 0 0 0 0.141176 0 0 0 1 0"/>
    <feBlend mode="normal" in2="BackgroundImageFix" result="effect1_dropShadow_843_2"/>
    <feBlend mode="normal" in="SourceGraphic" in2="effect1_dropShadow_843_2" result="shape"/>
    </filter>
    <filter id="filter3_b_843_2" x="47.6578" y="44.2842" width="361.449" height="321.567" filterUnits="userSpaceOnUse" color-interpolation-filters="sRGB">
    <feFlood flood-opacity="0" result="BackgroundImageFix"/>
    <feGaussianBlur in="BackgroundImageFix" stdDeviation="25"/>
    <feComposite in2="SourceAlpha" operator="in" result="effect1_backgroundBlur_843_2"/>
    <feBlend mode="normal" in="SourceGraphic" in2="effect1_backgroundBlur_843_2" result="shape"/>
    </filter>
    <filter id="filter4_d_843_2" x="96.3423" y="417.284" width="10.3636" height="17.4341" filterUnits="userSpaceOnUse" color-interpolation-filters="sRGB">
    <feFlood flood-opacity="0" result="BackgroundImageFix"/>
    <feColorMatrix in="SourceAlpha" type="matrix" values="0 0 0 0 0 0 0 0 0 0 0 0 0 0 0 0 0 0 127 0" result="hardAlpha"/>
    <feOffset dy="1"/>
    <feGaussianBlur stdDeviation="0.5"/>
    <feComposite in2="hardAlpha" operator="out"/>
    <feColorMatrix type="matrix" values="0 0 0 0 0 0 0 0 0 0 0 0 0 0 0 0 0 0 0.7 0"/>
    <feBlend mode="normal" in2="BackgroundImageFix" result="effect1_dropShadow_843_2"/>
    <feBlend mode="normal" in="SourceGraphic" in2="effect1_dropShadow_843_2" result="shape"/>
    </filter>
    <filter id="filter5_i_843_2" x="97.3423" y="415.284" width="9.36365" height="11.1074" filterUnits="userSpaceOnUse" color-interpolation-filters="sRGB">
    <feFlood flood-opacity="0" result="BackgroundImageFix"/>
    <feBlend mode="normal" in="SourceGraphic" in2="BackgroundImageFix" result="shape"/>
    <feColorMatrix in="SourceAlpha" type="matrix" values="0 0 0 0 0 0 0 0 0 0 0 0 0 0 0 0 0 0 127 0" result="hardAlpha"/>
    <feOffset dx="1" dy="-2"/>
    <feGaussianBlur stdDeviation="1"/>
    <feComposite in2="hardAlpha" operator="arithmetic" k2="-1" k3="1"/>
    <feColorMatrix type="matrix" values="0 0 0 0 0.964706 0 0 0 0 0.65098 0 0 0 0 0.141176 0 0 0 1 0"/>
    <feBlend mode="normal" in2="shape" result="effect1_innerShadow_843_2"/>
    </filter>
    <filter id="filter6_d_843_2" x="363.342" y="276.912" width="10.3636" height="17.4326" filterUnits="userSpaceOnUse" color-interpolation-filters="sRGB">
    <feFlood flood-opacity="0" result="BackgroundImageFix"/>
    <feColorMatrix in="SourceAlpha" type="matrix" values="0 0 0 0 0 0 0 0 0 0 0 0 0 0 0 0 0 0 127 0" result="hardAlpha"/>
    <feOffset dy="1"/>
    <feGaussianBlur stdDeviation="0.5"/>
    <feComposite in2="hardAlpha" operator="out"/>
    <feColorMatrix type="matrix" values="0 0 0 0 0 0 0 0 0 0 0 0 0 0 0 0 0 0 0.7 0"/>
    <feBlend mode="normal" in2="BackgroundImageFix" result="effect1_dropShadow_843_2"/>
    <feBlend mode="normal" in="SourceGraphic" in2="effect1_dropShadow_843_2" result="shape"/>
    </filter>
    <filter id="filter7_i_843_2" x="364.342" y="274.912" width="9.36365" height="11.1074" filterUnits="userSpaceOnUse" color-interpolation-filters="sRGB">
    <feFlood flood-opacity="0" result="BackgroundImageFix"/>
    <feBlend mode="normal" in="SourceGraphic" in2="BackgroundImageFix" result="shape"/>
    <feColorMatrix in="SourceAlpha" type="matrix" values="0 0 0 0 0 0 0 0 0 0 0 0 0 0 0 0 0 0 127 0" result="hardAlpha"/>
    <feOffset dx="1" dy="-2"/>
    <feGaussianBlur stdDeviation="1"/>
    <feComposite in2="hardAlpha" operator="arithmetic" k2="-1" k3="1"/>
    <feColorMatrix type="matrix" values="0 0 0 0 0.964706 0 0 0 0 0.65098 0 0 0 0 0.141176 0 0 0 1 0"/>
    <feBlend mode="normal" in2="shape" result="effect1_innerShadow_843_2"/>
    </filter>
    <radialGradient id="paint0_angular_843_2" cx="0" cy="0" r="1" gradientUnits="userSpaceOnUse" gradientTransform="translate(227.828 195.717) rotate(90) scale(151.84 180.577)">
    <stop stop-color="#E67009"/>
    <stop offset="0.245888" stop-color="#EA8832" stop-opacity="0.995581"/>
    <stop offset="0.432893" stop-color="white" stop-opacity="0.973455"/>
    <stop offset="0.665562" stop-color="#E87A1A" stop-opacity="0.998205"/>
    <stop offset="1" stop-color="#E67009"/>
    </radialGradient>
    <linearGradient id="paint1_linear_843_2" x1="151.331" y1="47.0389" x2="322.134" y2="365.177" gradientUnits="userSpaceOnUse">
    <stop stop-color="white"/>
    <stop offset="0.669971" stop-color="white" stop-opacity="0"/>
    </linearGradient>
    <radialGradient id="paint2_angular_843_2" cx="0" cy="0" r="1" gradientUnits="userSpaceOnUse" gradientTransform="translate(228.638 205.248) rotate(90) scale(94.3465 111.593)">
    <stop offset="0.201841" stop-color="#F6A624"/>
    <stop offset="0.425558" stop-color="white"/>
    <stop offset="0.640784" stop-color="#F6A624"/>
    <stop offset="0.999056" stop-color="#F6A624"/>
    </radialGradient>
    <linearGradient id="paint3_linear_843_2" x1="228.382" y1="94.2842" x2="228.382" y2="257.382" gradientUnits="userSpaceOnUse">
    <stop stop-color="white"/>
    <stop offset="1" stop-color="white" stop-opacity="0"/>
    </linearGradient>
    <linearGradient id="paint4_linear_843_2" x1="101.524" y1="421.509" x2="101.524" y2="428.165" gradientUnits="userSpaceOnUse">
    <stop stop-color="#F6A624"/>
    <stop offset="1" stop-color="#E67009"/>
    </linearGradient>
    <radialGradient id="paint5_radial_843_2" cx="0" cy="0" r="1" gradientUnits="userSpaceOnUse" gradientTransform="translate(101.524 421.838) rotate(90) scale(4.55368 4.18182)">
    <stop stop-color="#F6A624"/>
    <stop offset="0.578028" stop-color="#EF8F19"/>
    <stop offset="0.960382" stop-color="#E67009"/>
    </radialGradient>
    <linearGradient id="paint6_linear_843_2" x1="368.524" y1="281.135" x2="368.524" y2="287.791" gradientUnits="userSpaceOnUse">
    <stop stop-color="#F6A624"/>
    <stop offset="1" stop-color="#E67009"/>
    </linearGradient>
    <radialGradient id="paint7_radial_843_2" cx="0" cy="0" r="1" gradientUnits="userSpaceOnUse" gradientTransform="translate(368.524 281.465) rotate(90) scale(4.55368 4.18182)">
    <stop stop-color="#F6A624"/>
    <stop offset="0.578028" stop-color="#EF8F19"/>
    <stop offset="0.960382" stop-color="#E67009"/>
    </radialGradient>
    </defs>
    </svg>