<svg width="1859" height="999" viewBox="0 0 1859 999" fill="none" xmlns="http://www.w3.org/2000/svg">
<g filter="url(#filter0_bd_1711_2)">
<path d="M1118.53 257.759C1118.69 257.651 1118.89 257.593 1119.08 257.593L1405.16 257.593C1406.15 257.593 1406.54 258.888 1405.7 259.431L475.774 864.881C475.612 864.987 475.422 865.043 475.228 865.043L204.348 865.043C203.357 865.043 202.969 863.756 203.796 863.209L1118.53 257.759Z" fill="white" fill-opacity="0.1" shape-rendering="crispEdges"/>
<path d="M1118.67 257.968C1118.79 257.887 1118.94 257.843 1119.08 257.843L1405.16 257.843C1405.9 257.843 1406.19 258.815 1405.57 259.222L475.637 864.672C475.516 864.751 475.374 864.793 475.228 864.793L204.348 864.793C203.604 864.793 203.314 863.828 203.934 863.418L1118.67 257.968Z" stroke="url(#paint0_linear_1711_2)" stroke-width="0.5" shape-rendering="crispEdges"/>
</g>
<g filter="url(#filter1_bd_1711_2)">
<path d="M1198.78 176.444C1198.94 176.338 1199.13 176.281 1199.32 176.281L1475.15 176.281C1476.15 176.281 1476.53 177.578 1475.69 178.12L605.295 743.518C605.132 743.623 604.943 743.679 604.75 743.679L332.887 743.679C331.892 743.679 331.508 742.385 332.34 741.842L1198.78 176.444Z" fill="white" fill-opacity="0.1" shape-rendering="crispEdges"/>
<path d="M1198.91 176.653C1199.03 176.574 1199.18 176.531 1199.32 176.531L1475.15 176.531C1475.9 176.531 1476.18 177.504 1475.56 177.91L605.158 743.308C605.037 743.387 604.895 743.429 604.75 743.429L332.887 743.429C332.141 743.429 331.852 742.459 332.477 742.051L1198.91 176.653Z" stroke="url(#paint1_linear_1711_2)" stroke-width="0.5" shape-rendering="crispEdges"/>
</g>
<g filter="url(#filter2_bd_1711_2)">
<path d="M1784.26 35.9034C1784.42 35.7974 1784.61 35.7409 1784.8 35.7409L1822.63 35.7414C1823.63 35.7414 1824.01 37.0376 1823.17 37.58L952.775 602.978C952.612 603.083 952.423 603.139 952.23 603.139L918.363 603.142C917.368 603.142 916.983 601.848 917.816 601.304L1784.26 35.9034Z" fill="white" fill-opacity="0.1" shape-rendering="crispEdges"/>
<path d="M1784.39 36.1128C1784.51 36.0332 1784.66 35.9909 1784.8 35.9909L1822.63 35.9914C1823.38 35.9914 1823.66 36.9636 1823.04 37.3703L952.638 602.768C952.517 602.847 952.375 602.889 952.23 602.889L918.363 602.892C917.617 602.892 917.328 601.921 917.953 601.514L1784.39 36.1128Z" stroke="url(#paint2_linear_1711_2)" stroke-width="0.5" shape-rendering="crispEdges"/>
</g>
<g filter="url(#filter3_bd_1711_2)">
<path d="M1381.44 351.172C1381.5 351.134 1381.56 351.102 1381.63 351.077L1405.78 341.553C1406.9 341.112 1407.7 342.658 1406.7 343.319L536.141 916.08C536.083 916.118 536.022 916.15 535.958 916.175L514.957 924.456C513.839 924.897 513.037 923.352 514.04 922.691L1381.44 351.172Z" fill="white" fill-opacity="0.1" shape-rendering="crispEdges"/>
<path d="M1381.58 351.381C1381.62 351.352 1381.67 351.328 1381.72 351.309L1405.87 341.786C1406.71 341.455 1407.31 342.614 1406.56 343.11L536.003 915.871C535.96 915.9 535.914 915.923 535.866 915.942L514.866 924.224C514.027 924.555 513.425 923.396 514.178 922.9L1381.58 351.381Z" stroke="url(#paint3_linear_1711_2)" stroke-width="0.5" shape-rendering="crispEdges"/>
</g>
<g filter="url(#filter4_bd_1711_2)">
<path d="M1335.44 21.1721C1335.5 21.1341 1335.56 21.1022 1335.63 21.0769L1359.78 11.5531C1360.9 11.1121 1361.7 12.6579 1360.7 13.3188L490.141 586.08C490.083 586.118 490.022 586.15 489.958 586.175L468.957 594.456C467.839 594.897 467.037 593.352 468.04 592.691L1335.44 21.1721Z" fill="white" fill-opacity="0.1" shape-rendering="crispEdges"/>
<path d="M1335.58 21.3809C1335.62 21.3524 1335.67 21.3284 1335.72 21.3094L1359.87 11.7857C1360.71 11.4549 1361.31 12.6143 1360.56 13.11L490.003 585.871C489.96 585.9 489.914 585.923 489.866 585.942L468.866 594.224C468.027 594.555 467.425 593.396 468.178 592.9L1335.58 21.3809Z" stroke="url(#paint4_linear_1711_2)" stroke-width="0.5" shape-rendering="crispEdges"/>
</g>
<g filter="url(#filter5_bd_1711_2)">
<path d="M872.256 349.903C872.419 349.797 872.609 349.741 872.803 349.741L910.63 349.741C911.625 349.741 912.009 351.038 911.175 351.58L40.7746 916.978C40.6124 917.083 40.4232 917.139 40.2298 917.139L6.36276 917.142C5.36824 917.142 4.98327 915.848 5.81615 915.304L872.256 349.903Z" fill="white" fill-opacity="0.1" shape-rendering="crispEdges"/>
<path d="M872.393 350.113C872.515 350.033 872.657 349.991 872.803 349.991L910.63 349.991C911.376 349.991 911.664 350.964 911.038 351.37L40.6384 916.768C40.5168 916.847 40.3748 916.889 40.2298 916.889L6.36271 916.892C5.61687 916.892 5.32818 915.921 5.95281 915.514L872.393 350.113Z" stroke="url(#paint5_linear_1711_2)" stroke-width="0.5" shape-rendering="crispEdges"/>
</g>
<defs>
<filter id="filter0_bd_1711_2" x="183.346" y="237.593" width="1242.81" height="647.45" filterUnits="userSpaceOnUse" color-interpolation-filters="sRGB">
<feFlood flood-opacity="0" result="BackgroundImageFix"/>
<feGaussianBlur in="BackgroundImageFix" stdDeviation="10"/>
<feComposite in2="SourceAlpha" operator="in" result="effect1_backgroundBlur_1711_2"/>
<feColorMatrix in="SourceAlpha" type="matrix" values="0 0 0 0 0 0 0 0 0 0 0 0 0 0 0 0 0 0 127 0" result="hardAlpha"/>
<feOffset dy="2"/>
<feGaussianBlur stdDeviation="5"/>
<feComposite in2="hardAlpha" operator="out"/>
<feColorMatrix type="matrix" values="0 0 0 0 0 0 0 0 0 0 0 0 0 0 0 0 0 0 0.1 0"/>
<feBlend mode="normal" in2="effect1_backgroundBlur_1711_2" result="effect2_dropShadow_1711_2"/>
<feBlend mode="normal" in="SourceGraphic" in2="effect2_dropShadow_1711_2" result="shape"/>
</filter>
<filter id="filter1_bd_1711_2" x="326.885" y="175.281" width="1184.27" height="615.398" filterUnits="userSpaceOnUse" color-interpolation-filters="sRGB">
<feFlood flood-opacity="0" result="BackgroundImageFix"/>
<feGaussianBlur in="BackgroundImageFix" stdDeviation="0.5"/>
<feComposite in2="SourceAlpha" operator="in" result="effect1_backgroundBlur_1711_2"/>
<feColorMatrix in="SourceAlpha" type="matrix" values="0 0 0 0 0 0 0 0 0 0 0 0 0 0 0 0 0 0 127 0" result="hardAlpha"/>
<feOffset dx="15" dy="27"/>
<feGaussianBlur stdDeviation="10"/>
<feComposite in2="hardAlpha" operator="out"/>
<feColorMatrix type="matrix" values="0 0 0 0 0 0 0 0 0 0 0 0 0 0 0 0 0 0 0.05 0"/>
<feBlend mode="normal" in2="effect1_backgroundBlur_1711_2" result="effect2_dropShadow_1711_2"/>
<feBlend mode="normal" in="SourceGraphic" in2="effect2_dropShadow_1711_2" result="shape"/>
</filter>
<filter id="filter2_bd_1711_2" x="912.361" y="34.7412" width="946.271" height="615.4" filterUnits="userSpaceOnUse" color-interpolation-filters="sRGB">
<feFlood flood-opacity="0" result="BackgroundImageFix"/>
<feGaussianBlur in="BackgroundImageFix" stdDeviation="0.5"/>
<feComposite in2="SourceAlpha" operator="in" result="effect1_backgroundBlur_1711_2"/>
<feColorMatrix in="SourceAlpha" type="matrix" values="0 0 0 0 0 0 0 0 0 0 0 0 0 0 0 0 0 0 127 0" result="hardAlpha"/>
<feOffset dx="15" dy="27"/>
<feGaussianBlur stdDeviation="10"/>
<feComposite in2="hardAlpha" operator="out"/>
<feColorMatrix type="matrix" values="0 0 0 0 0 0 0 0 0 0 0 0 0 0 0 0 0 0 0.05 0"/>
<feBlend mode="normal" in2="effect1_backgroundBlur_1711_2" result="effect2_dropShadow_1711_2"/>
<feBlend mode="normal" in="SourceGraphic" in2="effect2_dropShadow_1711_2" result="shape"/>
</filter>
<filter id="filter3_bd_1711_2" x="508.583" y="340.475" width="933.571" height="631.059" filterUnits="userSpaceOnUse" color-interpolation-filters="sRGB">
<feFlood flood-opacity="0" result="BackgroundImageFix"/>
<feGaussianBlur in="BackgroundImageFix" stdDeviation="0.5"/>
<feComposite in2="SourceAlpha" operator="in" result="effect1_backgroundBlur_1711_2"/>
<feColorMatrix in="SourceAlpha" type="matrix" values="0 0 0 0 0 0 0 0 0 0 0 0 0 0 0 0 0 0 127 0" result="hardAlpha"/>
<feOffset dx="15" dy="27"/>
<feGaussianBlur stdDeviation="10"/>
<feComposite in2="hardAlpha" operator="out"/>
<feColorMatrix type="matrix" values="0 0 0 0 0 0 0 0 0 0 0 0 0 0 0 0 0 0 0.05 0"/>
<feBlend mode="normal" in2="effect1_backgroundBlur_1711_2" result="effect2_dropShadow_1711_2"/>
<feBlend mode="normal" in="SourceGraphic" in2="effect2_dropShadow_1711_2" result="shape"/>
</filter>
<filter id="filter4_bd_1711_2" x="462.583" y="10.4756" width="933.571" height="631.059" filterUnits="userSpaceOnUse" color-interpolation-filters="sRGB">
<feFlood flood-opacity="0" result="BackgroundImageFix"/>
<feGaussianBlur in="BackgroundImageFix" stdDeviation="0.5"/>
<feComposite in2="SourceAlpha" operator="in" result="effect1_backgroundBlur_1711_2"/>
<feColorMatrix in="SourceAlpha" type="matrix" values="0 0 0 0 0 0 0 0 0 0 0 0 0 0 0 0 0 0 127 0" result="hardAlpha"/>
<feOffset dx="15" dy="27"/>
<feGaussianBlur stdDeviation="10"/>
<feComposite in2="hardAlpha" operator="out"/>
<feColorMatrix type="matrix" values="0 0 0 0 0 0 0 0 0 0 0 0 0 0 0 0 0 0 0.05 0"/>
<feBlend mode="normal" in2="effect1_backgroundBlur_1711_2" result="effect2_dropShadow_1711_2"/>
<feBlend mode="normal" in="SourceGraphic" in2="effect2_dropShadow_1711_2" result="shape"/>
</filter>
<filter id="filter5_bd_1711_2" x="0.36084" y="348.741" width="946.271" height="615.401" filterUnits="userSpaceOnUse" color-interpolation-filters="sRGB">
<feFlood flood-opacity="0" result="BackgroundImageFix"/>
<feGaussianBlur in="BackgroundImageFix" stdDeviation="0.5"/>
<feComposite in2="SourceAlpha" operator="in" result="effect1_backgroundBlur_1711_2"/>
<feColorMatrix in="SourceAlpha" type="matrix" values="0 0 0 0 0 0 0 0 0 0 0 0 0 0 0 0 0 0 127 0" result="hardAlpha"/>
<feOffset dx="15" dy="27"/>
<feGaussianBlur stdDeviation="10"/>
<feComposite in2="hardAlpha" operator="out"/>
<feColorMatrix type="matrix" values="0 0 0 0 0 0 0 0 0 0 0 0 0 0 0 0 0 0 0.05 0"/>
<feBlend mode="normal" in2="effect1_backgroundBlur_1711_2" result="effect2_dropShadow_1711_2"/>
<feBlend mode="normal" in="SourceGraphic" in2="effect2_dropShadow_1711_2" result="shape"/>
</filter>
<linearGradient id="paint0_linear_1711_2" x1="1334.43" y1="213.09" x2="246.237" y2="933.352" gradientUnits="userSpaceOnUse">
<stop stop-color="white"/>
<stop offset="1" stop-color="white" stop-opacity="0"/>
</linearGradient>
<linearGradient id="paint1_linear_1711_2" x1="1310.87" y1="197.038" x2="430.599" y2="779.679" gradientUnits="userSpaceOnUse">
<stop stop-color="white"/>
<stop offset="1" stop-color="white" stop-opacity="0"/>
</linearGradient>
<linearGradient id="paint2_linear_1711_2" x1="1896.34" y1="56.4986" x2="1016.08" y2="639.134" gradientUnits="userSpaceOnUse">
<stop stop-color="white"/>
<stop offset="1" stop-color="white" stop-opacity="0"/>
</linearGradient>
<linearGradient id="paint3_linear_1711_2" x1="1464.54" y1="326.858" x2="575.582" y2="915.247" gradientUnits="userSpaceOnUse">
<stop stop-color="white"/>
<stop offset="1" stop-color="white" stop-opacity="0"/>
</linearGradient>
<linearGradient id="paint4_linear_1711_2" x1="1418.54" y1="-3.14162" x2="529.582" y2="585.247" gradientUnits="userSpaceOnUse">
<stop stop-color="white"/>
<stop offset="1" stop-color="white" stop-opacity="0"/>
</linearGradient>
<linearGradient id="paint5_linear_1711_2" x1="984.342" y1="370.499" x2="104.075" y2="953.134" gradientUnits="userSpaceOnUse">
<stop stop-color="white"/>
<stop offset="1" stop-color="white" stop-opacity="0"/>
</linearGradient>
</defs>
</svg>
