<svg width="435" height="373" viewBox="0 0 435 373" fill="none" xmlns="http://www.w3.org/2000/svg">
<g filter="url(#filter0_d_156_728)">
<path d="M95.7138 346.557C65.6471 314.303 47.251 271.027 47.251 223.455C47.251 123.725 128.098 42.8774 227.828 42.8774C327.558 42.8774 408.405 123.725 408.405 223.455C408.405 258.911 398.187 291.981 380.533 319.879L348.842 299.522C362.717 277.494 370.745 251.412 370.745 223.455C370.745 144.524 306.759 80.5379 227.828 80.5379C148.897 80.5379 84.9115 144.524 84.9115 223.455C84.9115 257.694 96.952 289.121 117.03 313.733L95.7138 346.557Z" fill="url(#paint0_angular_156_728)" shape-rendering="crispEdges"/>
</g>
<g filter="url(#filter1_b_156_728)">
<path d="M83.3131 369.39C48.7435 333.63 25.5187 284.216 24.5828 230.598C22.6208 118.195 112.279 25.4815 224.841 23.5167C337.403 21.5519 430.242 111.08 432.204 223.483C432.902 263.445 420.979 302.009 401.603 333.8L364.799 311.961C380.027 286.86 390.248 255.735 389.698 224.225C388.145 135.264 314.668 64.4078 225.582 65.9628C136.496 67.5179 65.536 140.895 67.0888 229.856C67.7624 268.446 83.625 304.434 106.77 331.778L83.3131 369.39Z" fill="white" fill-opacity="0.1"/>
<path d="M431.954 223.487C432.649 263.309 420.796 301.744 401.518 333.459L365.144 311.874C380.319 286.778 390.498 255.695 389.948 224.221C388.393 135.121 314.801 64.1555 225.578 65.7129C136.354 67.2703 65.2836 140.761 66.8388 229.86C67.5124 268.451 83.3486 304.436 106.462 331.8L83.2705 368.986C48.8632 333.285 25.7654 284.027 24.8328 230.594C22.8732 118.329 112.422 25.729 224.845 23.7667C337.269 21.8043 429.995 111.223 431.954 223.487Z" stroke="url(#paint1_linear_156_728)" stroke-width="0.5" style="mix-blend-mode:overlay"/>
</g>
<g filter="url(#filter2_d_156_728)">
<path d="M133.585 282.46C98.994 219.263 128.611 168.814 133.585 161.893C150.655 138.139 172.588 109.902 230.618 109.902C298.452 113.487 337.984 159.652 340.23 223.297C340.23 246.354 334.216 267.007 322.71 285.149H309.493C309.493 270.806 309.493 245.511 309.493 227.331C309.493 185.2 282.064 141.276 230.618 141.276C179.172 141.276 147.96 182.062 147.96 223.297C147.96 245.563 147.96 278.59 147.96 298.595C147.572 298.259 147.379 298.091 147.187 297.922C142.45 293.762 138.222 289.057 134.591 283.904C134.444 283.695 134.297 283.485 134.004 283.063L133.585 282.46Z" fill="url(#paint2_angular_156_728)"/>
</g>
<g filter="url(#filter3_b_156_728)">
<path d="M117.033 295.905C76.5121 221.698 111.207 162.46 117.033 154.334C137.031 126.44 162.723 93.2842 230.702 93.2842C310.166 97.4945 356.476 151.702 359.107 226.435C359.107 253.509 352.062 277.76 338.583 299.063H323.1C323.1 282.221 323.1 252.52 323.1 231.172C323.1 181.701 290.969 130.124 230.702 130.124C170.436 130.124 133.873 178.017 133.873 226.435C133.873 252.58 133.873 291.362 133.873 314.851L124.692 305.961L117.033 295.905Z" fill="white" fill-opacity="0.1"/>
<path d="M124.88 305.795L117.243 295.769C76.8016 221.689 111.439 162.565 117.236 154.479C127.234 140.534 138.635 125.304 156.015 113.556C173.388 101.812 196.754 93.5353 230.696 93.5342C270.368 95.6376 301.746 110.219 323.534 133.584C345.325 156.952 357.542 189.124 358.857 226.439C358.856 253.417 351.85 277.58 338.446 298.813H323.35V298.765V298.666V298.566V298.465V298.365V298.264V298.163V298.061V297.96V297.858V297.755V297.653V297.55V297.447V297.343V297.24V297.136V297.032V296.927V296.822V296.717V296.612V296.506V296.4V296.294V296.188V296.081V295.974V295.867V295.759V295.652V295.544V295.435V295.327V295.218V295.109V295V294.89V294.78V294.67V294.56V294.449V294.339V294.227V294.116V294.005V293.893V293.781V293.668V293.556V293.443V293.33V293.216V293.103V292.989V292.875V292.761V292.646V292.532V292.417V292.301V292.186V292.07V291.954V291.838V291.722V291.605V291.488V291.371V291.254V291.136V291.019V290.901V290.782V290.664V290.545V290.426V290.307V290.188V290.069V289.949V289.829V289.709V289.588V289.468V289.347V289.226V289.105V288.983V288.862V288.74V288.618V288.495V288.373V288.25V288.127V288.004V287.881V287.758V287.634V287.51V287.386V287.262V287.137V287.013V286.888V286.763V286.638V286.512V286.387V286.261V286.135V286.009V285.882V285.756V285.629V285.502V285.375V285.248V285.12V284.993V284.865V284.737V284.609V284.48V284.352V284.223V284.094V283.965V283.836V283.707V283.577V283.448V283.318V283.188V283.058V282.927V282.797V282.666V282.535V282.404V282.273V282.142V282.01V281.879V281.747V281.615V281.483V281.351V281.218V281.086V280.953V280.82V280.687V280.554V280.421V280.287V280.154V280.02V279.886V279.752V279.618V279.484V279.349V279.215V279.08V278.945V278.81V278.675V278.54V278.405V278.269V278.134V277.998V277.862V277.726V277.59V277.454V277.317V277.181V277.044V276.908V276.771V276.634V276.497V276.359V276.222V276.085V275.947V275.809V275.672V275.534V275.396V275.258V275.12V274.981V274.843V274.704V274.566V274.427V274.288V274.149V274.01V273.871V273.732V273.592V273.453V273.313V273.174V273.034V272.894V272.754V272.614V272.474V272.334V272.194V272.053V271.913V271.772V271.632V271.491V271.35V271.209V271.068V270.927V270.786V270.645V270.504V270.363V270.221V270.08V269.938V269.796V269.655V269.513V269.371V269.229V269.087V268.945V268.803V268.661V268.519V268.376V268.234V268.092V267.949V267.807V267.664V267.521V267.379V267.236V267.093V266.95V266.807V266.664V266.521V266.378V266.235V266.092V265.949V265.805V265.662V265.519V265.375V265.232V265.088V264.945V264.801V264.658V264.514V264.37V264.226V264.083V263.939V263.795V263.651V263.507V263.363V263.22V263.076V262.932V262.788V262.644V262.499V262.355V262.211V262.067V261.923V261.779V261.635V261.49V261.346V261.202V261.058V260.913V260.769V260.625V260.481V260.336V260.192V260.048V259.903V259.759V259.615V259.47V259.326V259.181V259.037V258.893V258.748V258.604V258.46V258.315V258.171V258.027V257.882V257.738V257.594V257.449V257.305V257.161V257.016V256.872V256.728V256.584V256.439V256.295V256.151V256.007V255.863V255.719V255.575V255.43V255.286V255.142V254.998V254.854V254.71V254.566V254.423V254.279V254.135V253.991V253.847V253.703V253.56V253.416V253.272V253.129V252.985V252.842V252.698V252.555V252.411V252.268V252.125V251.982V251.838V251.695V251.552V251.409V251.266V251.123V250.98V250.837V250.694V250.552V250.409V250.266V250.124V249.981V249.839V249.696V249.554V249.412V249.269V249.127V248.985V248.843V248.701V248.559V248.417V248.276V248.134V247.992V247.851V247.709V247.568V247.427V247.285V247.144V247.003V246.862V246.721V246.58V246.44V246.299V246.158V246.018V245.877V245.737V245.597V245.457V245.317V245.177V245.037V244.897V244.757V244.618V244.478V244.339V244.199V244.06V243.921V243.782V243.643V243.504V243.366V243.227V243.088V242.95V242.812V242.674V242.535V242.398V242.26V242.122V241.984V241.847V241.709V241.572V241.435V241.298V241.161V241.024V240.887V240.751V240.614V240.478V240.342V240.206V240.07V239.934V239.798V239.663V239.527V239.392V239.257V239.122V238.987V238.852V238.717V238.583V238.448V238.314V238.18V238.046V237.912V237.779V237.645V237.512V237.378V237.245V237.112V236.98V236.847V236.714V236.582V236.45V236.318V236.186V236.054V235.923V235.791V235.66V235.529V235.398V235.267V235.136V235.006V234.876V234.745V234.615V234.486V234.356V234.227V234.097V233.968V233.839V233.71V233.582V233.453V233.325V233.197V233.069V232.941V232.813V232.686V232.559V232.432V232.305V232.178V232.052V231.925V231.799V231.673V231.548V231.422V231.297V231.172C323.35 181.612 291.152 129.874 230.702 129.874C170.28 129.874 133.623 177.897 133.623 226.435V226.588V226.742V226.896V227.05V227.205V227.359V227.514V227.67V227.825V227.981V228.137V228.294V228.451V228.607V228.765V228.922V229.08V229.238V229.396V229.555V229.714V229.873V230.032V230.192V230.352V230.512V230.673V230.833V230.994V231.155V231.317V231.478V231.64V231.803V231.965V232.128V232.291V232.454V232.617V232.781V232.945V233.109V233.273V233.438V233.603V233.768V233.933V234.098V234.264V234.43V234.596V234.763V234.93V235.096V235.263V235.431V235.598V235.766V235.934V236.102V236.271V236.439V236.608V236.777V236.946V237.116V237.286V237.455V237.626V237.796V237.966V238.137V238.308V238.479V238.65V238.822V238.993V239.165V239.337V239.509V239.682V239.855V240.027V240.2V240.373V240.547V240.72V240.894V241.068V241.242V241.416V241.591V241.765V241.94V242.115V242.29V242.466V242.641V242.817V242.992V243.168V243.344V243.521V243.697V243.874V244.051V244.227V244.405V244.582V244.759V244.937V245.114V245.292V245.47V245.648V245.827V246.005V246.184V246.362V246.541V246.72V246.899V247.078V247.258V247.437V247.617V247.797V247.977V248.157V248.337V248.517V248.698V248.878V249.059V249.24V249.421V249.602V249.783V249.964V250.146V250.327V250.509V250.69V250.872V251.054V251.236V251.418V251.601V251.783V251.966V252.148V252.331V252.514V252.696V252.879V253.063V253.246V253.429V253.612V253.796V253.979V254.163V254.347V254.53V254.714V254.898V255.082V255.266V255.451V255.635V255.819V256.004V256.188V256.373V256.557V256.742V256.927V257.112V257.297V257.482V257.667V257.852V258.037V258.222V258.408V258.593V258.778V258.964V259.149V259.335V259.521V259.706V259.892V260.078V260.264V260.45V260.636V260.822V261.008V261.194V261.38V261.566V261.752V261.938V262.124V262.311V262.497V262.683V262.87V263.056V263.242V263.429V263.615V263.802V263.988V264.175V264.361V264.548V264.735V264.921V265.108V265.294V265.481V265.668V265.854V266.041V266.228V266.414V266.601V266.788V266.974V267.161V267.348V267.535V267.721V267.908V268.095V268.281V268.468V268.655V268.841V269.028V269.215V269.401V269.588V269.774V269.961V270.147V270.334V270.52V270.707V270.893V271.08V271.266V271.453V271.639V271.825V272.011V272.198V272.384V272.57V272.756V272.942V273.128V273.314V273.5V273.686V273.872V274.058V274.244V274.43V274.615V274.801V274.987V275.172V275.358V275.543V275.728V275.914V276.099V276.284V276.469V276.654V276.839V277.024V277.209V277.394V277.579V277.764V277.948V278.133V278.317V278.502V278.686V278.87V279.054V279.238V279.422V279.606V279.79V279.974V280.157V280.341V280.524V280.708V280.891V281.074V281.257V281.44V281.623V281.806V281.989V282.171V282.354V282.536V282.719V282.901V283.083V283.265V283.447V283.629V283.81V283.992V284.173V284.355V284.536V284.717V284.898V285.079V285.259V285.44V285.62V285.801V285.981V286.161V286.341V286.521V286.701V286.88V287.06V287.239V287.418V287.597V287.776V287.955V288.133V288.312V288.49V288.668V288.846V289.024V289.202V289.38V289.557V289.734V289.911V290.088V290.265V290.442V290.618V290.795V290.971V291.147V291.323V291.498V291.674V291.849V292.024V292.199V292.374V292.549V292.723V292.898V293.072V293.246V293.42V293.593V293.767V293.94V294.113V294.286V294.458V294.631V294.803V294.975V295.147V295.319V295.49V295.662V295.833V296.004V296.175V296.345V296.516V296.686V296.856V297.025V297.195V297.364V297.533V297.702V297.871V298.039V298.208V298.376V298.544V298.711V298.879V299.046V299.213V299.379V299.546V299.712V299.878V300.044V300.21V300.375V300.54V300.705V300.87V301.034V301.198V301.362V301.526V301.689V301.853V302.016V302.178V302.341V302.503V302.665V302.827V302.989V303.15V303.311V303.472V303.632V303.792V303.952V304.112V304.272V304.431V304.59V304.748V304.907V305.065V305.223V305.38V305.538V305.695V305.852V306.008V306.164V306.32V306.476V306.632V306.787V306.941V307.096V307.25V307.404V307.558V307.712V307.865V308.018V308.17V308.322V308.474V308.626V308.777V308.928V309.079V309.23V309.38V309.53V309.679V309.829V309.978V310.126V310.275V310.423V310.57V310.718V310.865V311.012V311.158V311.304V311.45V311.596V311.741V311.886V312.03V312.175V312.318V312.462V312.605V312.748V312.891V313.033V313.175V313.316V313.458V313.599V313.739V313.879V314.019V314.159V314.261L124.88 305.795Z" stroke="url(#paint3_linear_156_728)" stroke-width="0.5"/>
</g>
<path d="M425.9 206.412C428.361 246.637 419.08 284.873 401.007 317.798L364.147 297.252C378.393 271.135 385.698 240.845 383.75 208.99C378.218 118.552 300.199 49.7366 209.492 55.2845C118.785 60.8324 49.7341 138.643 55.2656 229.081C57.657 268.181 73.5982 303.24 98.2556 329.995L76.6223 368.109C40.2696 333.491 16.4168 285.64 13.1152 231.659C6.16443 118.016 92.9333 20.2353 206.922 13.2635C320.911 6.29163 418.95 92.7688 425.9 206.412Z" stroke="white"/>
<path d="M133.912 283.152L133.507 282.57C98.9321 219.428 128.552 169.049 133.487 162.187C142.054 150.275 151.799 137.303 166.647 127.298C181.482 117.302 201.447 110.245 230.48 110.243C264.411 112.038 291.226 124.468 309.84 144.366C328.458 164.267 338.908 191.679 340.034 223.497C340.032 246.432 334.071 266.974 322.67 285.031H310.177V285.021V284.935V284.848V284.762V284.675V284.589V284.501V284.414V284.326V284.239V284.15V284.062V283.974V283.885V283.796V283.706V283.617V283.527V283.437V283.347V283.256V283.166V283.075V282.984V282.892V282.801V282.709V282.617V282.525V282.432V282.339V282.247V282.153V282.06V281.966V281.873V281.779V281.684V281.59V281.495V281.4V281.305V281.21V281.114V281.019V280.923V280.826V280.73V280.633V280.537V280.44V280.342V280.245V280.147V280.05V279.952V279.853V279.755V279.656V279.557V279.458V279.359V279.26V279.16V279.06V278.96V278.86V278.76V278.659V278.558V278.457V278.356V278.255V278.153V278.052V277.95V277.848V277.745V277.643V277.54V277.437V277.334V277.231V277.128V277.024V276.92V276.816V276.712V276.608V276.504V276.399V276.294V276.189V276.084V275.979V275.873V275.768V275.662V275.556V275.45V275.343V275.237V275.13V275.023V274.917V274.809V274.702V274.595V274.487V274.379V274.271V274.163V274.055V273.947V273.838V273.729V273.62V273.511V273.402V273.293V273.183V273.074V272.964V272.854V272.744V272.634V272.523V272.413V272.302V272.191V272.081V271.969V271.858V271.747V271.635V271.524V271.412V271.3V271.188V271.076V270.964V270.851V270.739V270.626V270.513V270.4V270.287V270.174V270.06V269.947V269.833V269.72V269.606V269.492V269.378V269.263V269.149V269.035V268.92V268.805V268.691V268.576V268.461V268.345V268.23V268.115V267.999V267.884V267.768V267.652V267.536V267.42V267.304V267.188V267.071V266.955V266.838V266.721V266.605V266.488V266.371V266.254V266.136V266.019V265.902V265.784V265.667V265.549V265.431V265.313V265.195V265.077V264.959V264.841V264.722V264.604V264.485V264.367V264.248V264.129V264.011V263.892V263.773V263.653V263.534V263.415V263.296V263.176V263.057V262.937V262.817V262.698V262.578V262.458V262.338V262.218V262.098V261.978V261.857V261.737V261.617V261.496V261.376V261.255V261.134V261.014V260.893V260.772V260.651V260.53V260.409V260.288V260.167V260.045V259.924V259.803V259.681V259.56V259.438V259.317V259.195V259.074V258.952V258.83V258.708V258.586V258.464V258.342V258.22V258.098V257.976V257.854V257.732V257.61V257.487V257.365V257.243V257.12V256.998V256.876V256.753V256.63V256.508V256.385V256.263V256.14V256.017V255.895V255.772V255.649V255.526V255.403V255.28V255.157V255.035V254.912V254.789V254.666V254.543V254.42V254.296V254.173V254.05V253.927V253.804V253.681V253.558V253.434V253.311V253.188V253.065V252.942V252.818V252.695V252.572V252.448V252.325V252.202V252.079V251.955V251.832V251.709V251.585V251.462V251.339V251.215V251.092V250.969V250.845V250.722V250.599V250.475V250.352V250.229V250.106V249.982V249.859V249.736V249.613V249.489V249.366V249.243V249.12V248.996V248.873V248.75V248.627V248.504V248.381V248.258V248.135V248.012V247.889V247.766V247.643V247.52V247.397V247.274V247.151V247.028V246.905V246.782V246.66V246.537V246.414V246.292V246.169V246.046V245.924V245.801V245.679V245.556V245.434V245.311V245.189V245.067V244.945V244.822V244.7V244.578V244.456V244.334V244.212V244.09V243.968V243.846V243.724V243.603V243.481V243.359V243.238V243.116V242.995V242.873V242.752V242.63V242.509V242.388V242.267V242.146V242.025V241.904V241.783V241.662V241.541V241.42V241.3V241.179V241.059V240.938V240.818V240.697V240.577V240.457V240.337V240.217V240.097V239.977V239.857V239.738V239.618V239.498V239.379V239.259V239.14V239.021V238.902V238.782V238.663V238.545V238.426V238.307V238.188V238.07V237.951V237.833V237.714V237.596V237.478V237.36V237.242V237.124V237.006V236.889V236.771V236.654V236.536V236.419V236.302V236.185V236.068V235.951V235.834V235.717V235.601V235.484V235.368V235.252V235.136V235.02V234.904V234.788V234.672V234.557V234.441V234.326V234.211V234.095V233.98V233.865V233.751V233.636V233.521V233.407V233.293V233.179V233.064V232.95V232.837V232.723V232.609V232.496V232.383V232.269V232.156V232.043V231.931V231.818V231.705V231.593V231.481V231.369V231.257V231.145V231.033V230.921V230.81V230.699V230.587V230.476V230.365V230.255V230.144V230.034V229.923V229.813V229.703V229.593V229.483V229.374V229.264V229.155V229.046V228.937V228.828V228.719V228.611V228.503V228.394V228.286V228.178V228.071V227.963V227.856V227.748V227.641V227.534C310.177 185.096 282.506 140.714 230.494 140.714C178.536 140.714 147.013 181.886 147.013 223.488V223.619V223.75V223.882V224.014V224.146V224.278V224.41V224.543V224.676V224.809V224.942V225.076V225.21V225.344V225.478V225.613V225.748V225.883V226.018V226.153V226.289V226.425V226.561V226.698V226.834V226.971V227.108V227.245V227.383V227.521V227.658V227.797V227.935V228.073V228.212V228.351V228.49V228.63V228.769V228.909V229.049V229.189V229.33V229.47V229.611V229.752V229.893V230.035V230.176V230.318V230.46V230.602V230.745V230.887V231.03V231.173V231.316V231.459V231.603V231.746V231.89V232.034V232.179V232.323V232.468V232.612V232.757V232.902V233.048V233.193V233.339V233.485V233.631V233.777V233.923V234.069V234.216V234.363V234.51V234.657V234.804V234.952V235.099V235.247V235.395V235.543V235.692V235.84V235.988V236.137V236.286V236.435V236.584V236.734V236.883V237.033V237.182V237.332V237.482V237.632V237.783V237.933V238.084V238.234V238.385V238.536V238.687V238.839V238.99V239.142V239.293V239.445V239.597V239.749V239.901V240.053V240.206V240.358V240.511V240.664V240.817V240.97V241.123V241.276V241.43V241.583V241.737V241.89V242.044V242.198V242.352V242.506V242.66V242.815V242.969V243.124V243.278V243.433V243.588V243.743V243.898V244.053V244.208V244.364V244.519V244.675V244.83V244.986V245.142V245.298V245.454V245.61V245.766V245.922V246.078V246.235V246.391V246.548V246.704V246.861V247.018V247.175V247.332V247.489V247.646V247.803V247.96V248.118V248.275V248.432V248.59V248.747V248.905V249.063V249.22V249.378V249.536V249.694V249.852V250.01V250.168V250.326V250.484V250.643V250.801V250.959V251.118V251.276V251.435V251.593V251.752V251.91V252.069V252.228V252.387V252.545V252.704V252.863V253.022V253.181V253.34V253.499V253.658V253.817V253.976V254.135V254.294V254.453V254.613V254.772V254.931V255.09V255.25V255.409V255.568V255.728V255.887V256.046V256.206V256.365V256.525V256.684V256.843V257.003V257.162V257.322V257.481V257.641V257.8V257.96V258.119V258.279V258.438V258.598V258.757V258.917V259.076V259.236V259.395V259.555V259.714V259.873V260.033V260.192V260.352V260.511V260.67V260.83V260.989V261.148V261.308V261.467V261.626V261.785V261.945V262.104V262.263V262.422V262.581V262.74V262.899V263.058V263.217V263.376V263.535V263.694V263.853V264.012V264.17V264.329V264.488V264.646V264.805V264.964V265.122V265.281V265.439V265.597V265.756V265.914V266.072V266.23V266.388V266.546V266.704V266.862V267.02V267.178V267.336V267.494V267.651V267.809V267.966V268.124V268.281V268.438V268.596V268.753V268.91V269.067V269.224V269.381V269.538V269.694V269.851V270.008V270.164V270.321V270.477V270.633V270.789V270.945V271.101V271.257V271.413V271.569V271.725V271.88V272.036V272.191V272.346V272.501V272.656V272.811V272.966V273.121V273.276V273.43V273.585V273.739V273.894V274.048V274.202V274.356V274.51V274.663V274.817V274.97V275.124V275.277V275.43V275.583V275.736V275.889V276.042V276.194V276.347V276.499V276.651V276.803V276.955V277.107V277.259V277.41V277.562V277.713V277.864V278.015V278.166V278.317V278.468V278.618V278.769V278.919V279.069V279.219V279.369V279.518V279.668V279.817V279.966V280.115V280.264V280.413V280.562V280.71V280.858V281.007V281.155V281.302V281.45V281.598V281.745V281.892V282.039V282.186V282.333V282.479V282.626V282.772V282.918V283.064V283.209V283.355V283.5V283.645V283.79V283.935V284.08V284.224V284.369V284.513V284.657V284.8V284.944V285.087V285.23V285.373V285.516V285.659V285.801V285.944V286.086V286.227V286.369V286.511V286.652V286.793V286.934V287.074V287.215V287.355V287.495V287.635V287.775V287.914V288.053V288.192V288.331V288.47V288.608V288.747V288.884V289.022V289.16V289.297V289.434V289.571V289.708V289.844V289.98V290.116V290.252V290.388V290.523V290.658V290.793V290.928V291.062V291.196V291.33V291.464V291.597V291.731V291.864V291.997V292.129V292.261V292.393V292.525V292.657V292.788V292.919V293.05V293.181V293.311V293.441V293.571V293.7V293.83V293.959V294.088V294.216V294.344V294.472V294.6V294.728V294.855V294.982V295.109V295.235V295.361V295.487V295.613V295.738V295.863V295.988V296.113V296.237V296.361V296.485V296.608V296.732V296.855V296.977V297.1V297.222V297.343V297.465V297.586V297.707V297.828V297.921C142.325 293.803 138.138 289.146 134.539 284.049C134.382 283.827 134.226 283.603 133.912 283.152Z" stroke="white"/>
<g filter="url(#filter4_d_156_728)">
<ellipse cx="101.524" cy="307.741" rx="4.18182" ry="5.60451" fill="#E67009"/>
<path d="M97.3423 302.137H105.706V307.041L104.399 310.193L101.524 311.945L98.6491 310.193L97.3423 307.041V302.137Z" fill="url(#paint4_linear_156_728)"/>
<g filter="url(#filter5_i_156_728)">
<ellipse cx="101.524" cy="302.465" rx="4.18182" ry="4.55368" fill="url(#paint5_radial_156_728)"/>
</g>
</g>
<g filter="url(#filter6_d_156_728)">
<ellipse cx="368.524" cy="285.74" rx="4.18182" ry="5.60451" fill="#E67009"/>
<path d="M364.342 280.135H372.706V285.039L371.399 288.192L368.524 289.943L365.649 288.192L364.342 285.039V280.135Z" fill="url(#paint6_linear_156_728)"/>
<g filter="url(#filter7_i_156_728)">
<ellipse cx="368.524" cy="280.465" rx="4.18182" ry="4.55368" fill="url(#paint7_radial_156_728)"/>
</g>
</g>
<g filter="url(#filter8_d_156_728)">
<ellipse cx="140.342" cy="272.082" rx="3" ry="2.38304" fill="#E67009"/>
<path d="M137.342 269.699H143.342V271.784L142.405 273.125L140.342 273.87L138.28 273.125L137.342 271.784V269.699Z" fill="url(#paint8_linear_156_728)"/>
<g filter="url(#filter9_i_156_728)">
<ellipse cx="140.342" cy="269.848" rx="3" ry="1.93622" fill="url(#paint9_radial_156_728)"/>
</g>
</g>
<g filter="url(#filter10_d_156_728)">
<ellipse cx="317.342" cy="272.082" rx="3" ry="2.38304" fill="#E67009"/>
<path d="M314.342 269.699H320.342V271.784L319.405 273.125L317.342 273.87L315.28 273.125L314.342 271.784V269.699Z" fill="url(#paint10_linear_156_728)"/>
<g filter="url(#filter11_i_156_728)">
<ellipse cx="317.342" cy="269.848" rx="3" ry="1.93622" fill="url(#paint11_radial_156_728)"/>
</g>
</g>
<defs>
<filter id="filter0_d_156_728" x="27.251" y="28.8774" width="401.154" height="343.68" filterUnits="userSpaceOnUse" color-interpolation-filters="sRGB">
<feFlood flood-opacity="0" result="BackgroundImageFix"/>
<feColorMatrix in="SourceAlpha" type="matrix" values="0 0 0 0 0 0 0 0 0 0 0 0 0 0 0 0 0 0 127 0" result="hardAlpha"/>
<feOffset dy="6"/>
<feGaussianBlur stdDeviation="10"/>
<feComposite in2="hardAlpha" operator="out"/>
<feColorMatrix type="matrix" values="0 0 0 0 0.901961 0 0 0 0 0.439216 0 0 0 0 0.0352941 0 0 0 1 0"/>
<feBlend mode="normal" in2="BackgroundImageFix" result="effect1_dropShadow_156_728"/>
<feBlend mode="normal" in="SourceGraphic" in2="effect1_dropShadow_156_728" result="shape"/>
</filter>
<filter id="filter1_b_156_728" x="-25.4487" y="-26.5151" width="507.682" height="445.905" filterUnits="userSpaceOnUse" color-interpolation-filters="sRGB">
<feFlood flood-opacity="0" result="BackgroundImageFix"/>
<feGaussianBlur in="BackgroundImageFix" stdDeviation="25"/>
<feComposite in2="SourceAlpha" operator="in" result="effect1_backgroundBlur_156_728"/>
<feBlend mode="normal" in="SourceGraphic" in2="effect1_backgroundBlur_156_728" result="shape"/>
</filter>
<filter id="filter2_d_156_728" x="97.0449" y="99.9019" width="263.186" height="228.693" filterUnits="userSpaceOnUse" color-interpolation-filters="sRGB">
<feFlood flood-opacity="0" result="BackgroundImageFix"/>
<feColorMatrix in="SourceAlpha" type="matrix" values="0 0 0 0 0 0 0 0 0 0 0 0 0 0 0 0 0 0 127 0" result="hardAlpha"/>
<feOffset dy="10"/>
<feGaussianBlur stdDeviation="10"/>
<feComposite in2="hardAlpha" operator="out"/>
<feColorMatrix type="matrix" values="0 0 0 0 0.964706 0 0 0 0 0.65098 0 0 0 0 0.141176 0 0 0 1 0"/>
<feBlend mode="normal" in2="BackgroundImageFix" result="effect1_dropShadow_156_728"/>
<feBlend mode="normal" in="SourceGraphic" in2="effect1_dropShadow_156_728" result="shape"/>
</filter>
<filter id="filter3_b_156_728" x="47.6577" y="43.2842" width="361.449" height="321.567" filterUnits="userSpaceOnUse" color-interpolation-filters="sRGB">
<feFlood flood-opacity="0" result="BackgroundImageFix"/>
<feGaussianBlur in="BackgroundImageFix" stdDeviation="25"/>
<feComposite in2="SourceAlpha" operator="in" result="effect1_backgroundBlur_156_728"/>
<feBlend mode="normal" in="SourceGraphic" in2="effect1_backgroundBlur_156_728" result="shape"/>
</filter>
<filter id="filter4_d_156_728" x="96.3423" y="297.912" width="10.3638" height="17.4341" filterUnits="userSpaceOnUse" color-interpolation-filters="sRGB">
<feFlood flood-opacity="0" result="BackgroundImageFix"/>
<feColorMatrix in="SourceAlpha" type="matrix" values="0 0 0 0 0 0 0 0 0 0 0 0 0 0 0 0 0 0 127 0" result="hardAlpha"/>
<feOffset dy="1"/>
<feGaussianBlur stdDeviation="0.5"/>
<feComposite in2="hardAlpha" operator="out"/>
<feColorMatrix type="matrix" values="0 0 0 0 0 0 0 0 0 0 0 0 0 0 0 0 0 0 0.7 0"/>
<feBlend mode="normal" in2="BackgroundImageFix" result="effect1_dropShadow_156_728"/>
<feBlend mode="normal" in="SourceGraphic" in2="effect1_dropShadow_156_728" result="shape"/>
</filter>
<filter id="filter5_i_156_728" x="97.3423" y="295.912" width="9.36377" height="11.1074" filterUnits="userSpaceOnUse" color-interpolation-filters="sRGB">
<feFlood flood-opacity="0" result="BackgroundImageFix"/>
<feBlend mode="normal" in="SourceGraphic" in2="BackgroundImageFix" result="shape"/>
<feColorMatrix in="SourceAlpha" type="matrix" values="0 0 0 0 0 0 0 0 0 0 0 0 0 0 0 0 0 0 127 0" result="hardAlpha"/>
<feOffset dx="1" dy="-2"/>
<feGaussianBlur stdDeviation="1"/>
<feComposite in2="hardAlpha" operator="arithmetic" k2="-1" k3="1"/>
<feColorMatrix type="matrix" values="0 0 0 0 0.964706 0 0 0 0 0.65098 0 0 0 0 0.141176 0 0 0 1 0"/>
<feBlend mode="normal" in2="shape" result="effect1_innerShadow_156_728"/>
</filter>
<filter id="filter6_d_156_728" x="363.342" y="275.912" width="10.3638" height="17.4326" filterUnits="userSpaceOnUse" color-interpolation-filters="sRGB">
<feFlood flood-opacity="0" result="BackgroundImageFix"/>
<feColorMatrix in="SourceAlpha" type="matrix" values="0 0 0 0 0 0 0 0 0 0 0 0 0 0 0 0 0 0 127 0" result="hardAlpha"/>
<feOffset dy="1"/>
<feGaussianBlur stdDeviation="0.5"/>
<feComposite in2="hardAlpha" operator="out"/>
<feColorMatrix type="matrix" values="0 0 0 0 0 0 0 0 0 0 0 0 0 0 0 0 0 0 0.7 0"/>
<feBlend mode="normal" in2="BackgroundImageFix" result="effect1_dropShadow_156_728"/>
<feBlend mode="normal" in="SourceGraphic" in2="effect1_dropShadow_156_728" result="shape"/>
</filter>
<filter id="filter7_i_156_728" x="364.342" y="273.912" width="9.36377" height="11.1074" filterUnits="userSpaceOnUse" color-interpolation-filters="sRGB">
<feFlood flood-opacity="0" result="BackgroundImageFix"/>
<feBlend mode="normal" in="SourceGraphic" in2="BackgroundImageFix" result="shape"/>
<feColorMatrix in="SourceAlpha" type="matrix" values="0 0 0 0 0 0 0 0 0 0 0 0 0 0 0 0 0 0 127 0" result="hardAlpha"/>
<feOffset dx="1" dy="-2"/>
<feGaussianBlur stdDeviation="1"/>
<feComposite in2="hardAlpha" operator="arithmetic" k2="-1" k3="1"/>
<feColorMatrix type="matrix" values="0 0 0 0 0.964706 0 0 0 0 0.65098 0 0 0 0 0.141176 0 0 0 1 0"/>
<feBlend mode="normal" in2="shape" result="effect1_innerShadow_156_728"/>
</filter>
<filter id="filter8_d_156_728" x="136.342" y="267.912" width="8" height="8.55371" filterUnits="userSpaceOnUse" color-interpolation-filters="sRGB">
<feFlood flood-opacity="0" result="BackgroundImageFix"/>
<feColorMatrix in="SourceAlpha" type="matrix" values="0 0 0 0 0 0 0 0 0 0 0 0 0 0 0 0 0 0 127 0" result="hardAlpha"/>
<feOffset dy="1"/>
<feGaussianBlur stdDeviation="0.5"/>
<feComposite in2="hardAlpha" operator="out"/>
<feColorMatrix type="matrix" values="0 0 0 0 0 0 0 0 0 0 0 0 0 0 0 0 0 0 0.7 0"/>
<feBlend mode="normal" in2="BackgroundImageFix" result="effect1_dropShadow_156_728"/>
<feBlend mode="normal" in="SourceGraphic" in2="effect1_dropShadow_156_728" result="shape"/>
</filter>
<filter id="filter9_i_156_728" x="137.342" y="265.912" width="7" height="5.87256" filterUnits="userSpaceOnUse" color-interpolation-filters="sRGB">
<feFlood flood-opacity="0" result="BackgroundImageFix"/>
<feBlend mode="normal" in="SourceGraphic" in2="BackgroundImageFix" result="shape"/>
<feColorMatrix in="SourceAlpha" type="matrix" values="0 0 0 0 0 0 0 0 0 0 0 0 0 0 0 0 0 0 127 0" result="hardAlpha"/>
<feOffset dx="1" dy="-2"/>
<feGaussianBlur stdDeviation="1"/>
<feComposite in2="hardAlpha" operator="arithmetic" k2="-1" k3="1"/>
<feColorMatrix type="matrix" values="0 0 0 0 0.964706 0 0 0 0 0.65098 0 0 0 0 0.141176 0 0 0 1 0"/>
<feBlend mode="normal" in2="shape" result="effect1_innerShadow_156_728"/>
</filter>
<filter id="filter10_d_156_728" x="313.342" y="267.912" width="8" height="8.55371" filterUnits="userSpaceOnUse" color-interpolation-filters="sRGB">
<feFlood flood-opacity="0" result="BackgroundImageFix"/>
<feColorMatrix in="SourceAlpha" type="matrix" values="0 0 0 0 0 0 0 0 0 0 0 0 0 0 0 0 0 0 127 0" result="hardAlpha"/>
<feOffset dy="1"/>
<feGaussianBlur stdDeviation="0.5"/>
<feComposite in2="hardAlpha" operator="out"/>
<feColorMatrix type="matrix" values="0 0 0 0 0 0 0 0 0 0 0 0 0 0 0 0 0 0 0.7 0"/>
<feBlend mode="normal" in2="BackgroundImageFix" result="effect1_dropShadow_156_728"/>
<feBlend mode="normal" in="SourceGraphic" in2="effect1_dropShadow_156_728" result="shape"/>
</filter>
<filter id="filter11_i_156_728" x="314.342" y="265.912" width="7" height="5.87256" filterUnits="userSpaceOnUse" color-interpolation-filters="sRGB">
<feFlood flood-opacity="0" result="BackgroundImageFix"/>
<feBlend mode="normal" in="SourceGraphic" in2="BackgroundImageFix" result="shape"/>
<feColorMatrix in="SourceAlpha" type="matrix" values="0 0 0 0 0 0 0 0 0 0 0 0 0 0 0 0 0 0 127 0" result="hardAlpha"/>
<feOffset dx="1" dy="-2"/>
<feGaussianBlur stdDeviation="1"/>
<feComposite in2="hardAlpha" operator="arithmetic" k2="-1" k3="1"/>
<feColorMatrix type="matrix" values="0 0 0 0 0.964706 0 0 0 0 0.65098 0 0 0 0 0.141176 0 0 0 1 0"/>
<feBlend mode="normal" in2="shape" result="effect1_innerShadow_156_728"/>
</filter>
<radialGradient id="paint0_angular_156_728" cx="0" cy="0" r="1" gradientUnits="userSpaceOnUse" gradientTransform="translate(227.828 194.717) rotate(90) scale(151.84 180.577)">
<stop stop-color="#E67009"/>
<stop offset="0.245888" stop-color="#EA8832" stop-opacity="0.995581"/>
<stop offset="0.432893" stop-color="white" stop-opacity="0.973455"/>
<stop offset="0.665562" stop-color="#E87A1A" stop-opacity="0.998205"/>
<stop offset="1" stop-color="#E67009"/>
</radialGradient>
<linearGradient id="paint1_linear_156_728" x1="151.33" y1="46.0389" x2="322.133" y2="364.177" gradientUnits="userSpaceOnUse">
<stop stop-color="white"/>
<stop offset="0.669971" stop-color="white" stop-opacity="0"/>
</linearGradient>
<radialGradient id="paint2_angular_156_728" cx="0" cy="0" r="1" gradientUnits="userSpaceOnUse" gradientTransform="translate(228.638 204.248) rotate(90) scale(94.3465 111.593)">
<stop offset="0.201841" stop-color="#F6A624"/>
<stop offset="0.425558" stop-color="white"/>
<stop offset="0.640784" stop-color="#F6A624"/>
<stop offset="0.999056" stop-color="#F6A624"/>
</radialGradient>
<linearGradient id="paint3_linear_156_728" x1="228.382" y1="93.2842" x2="228.382" y2="256.382" gradientUnits="userSpaceOnUse">
<stop stop-color="white"/>
<stop offset="1" stop-color="white" stop-opacity="0"/>
</linearGradient>
<linearGradient id="paint4_linear_156_728" x1="101.524" y1="302.137" x2="101.524" y2="308.792" gradientUnits="userSpaceOnUse">
<stop stop-color="#F6A624"/>
<stop offset="1" stop-color="#E67009"/>
</linearGradient>
<radialGradient id="paint5_radial_156_728" cx="0" cy="0" r="1" gradientUnits="userSpaceOnUse" gradientTransform="translate(101.524 302.465) rotate(90) scale(4.55368 4.18182)">
<stop stop-color="#F6A624"/>
<stop offset="0.578028" stop-color="#EF8F19"/>
<stop offset="0.960382" stop-color="#E67009"/>
</radialGradient>
<linearGradient id="paint6_linear_156_728" x1="368.524" y1="280.135" x2="368.524" y2="286.791" gradientUnits="userSpaceOnUse">
<stop stop-color="#F6A624"/>
<stop offset="1" stop-color="#E67009"/>
</linearGradient>
<radialGradient id="paint7_radial_156_728" cx="0" cy="0" r="1" gradientUnits="userSpaceOnUse" gradientTransform="translate(368.524 280.465) rotate(90) scale(4.55368 4.18182)">
<stop stop-color="#F6A624"/>
<stop offset="0.578028" stop-color="#EF8F19"/>
<stop offset="0.960382" stop-color="#E67009"/>
</radialGradient>
<linearGradient id="paint8_linear_156_728" x1="140.342" y1="269.699" x2="140.342" y2="272.529" gradientUnits="userSpaceOnUse">
<stop stop-color="#F6A624"/>
<stop offset="1" stop-color="#E67009"/>
</linearGradient>
<radialGradient id="paint9_radial_156_728" cx="0" cy="0" r="1" gradientUnits="userSpaceOnUse" gradientTransform="translate(140.342 269.848) rotate(90) scale(1.93622 3)">
<stop stop-color="#F6A624"/>
<stop offset="0.578028" stop-color="#EF8F19"/>
<stop offset="0.960382" stop-color="#E67009"/>
</radialGradient>
<linearGradient id="paint10_linear_156_728" x1="317.342" y1="269.699" x2="317.342" y2="272.529" gradientUnits="userSpaceOnUse">
<stop stop-color="#F6A624"/>
<stop offset="1" stop-color="#E67009"/>
</linearGradient>
<radialGradient id="paint11_radial_156_728" cx="0" cy="0" r="1" gradientUnits="userSpaceOnUse" gradientTransform="translate(317.342 269.848) rotate(90) scale(1.93622 3)">
<stop stop-color="#F6A624"/>
<stop offset="0.578028" stop-color="#EF8F19"/>
<stop offset="0.960382" stop-color="#E67009"/>
</radialGradient>
</defs>
</svg>
