<svg width="229" height="294" viewBox="0 0 229 294" fill="none" xmlns="http://www.w3.org/2000/svg">
<g filter="url(#filter0_d_1692_2)">
<path d="M121.661 62.0443C141.172 58.2236 146.543 60.516 155.52 75.8462C178.56 72.1481 187.936 77.6198 191.067 96.9689C191.788 96.8368 192.519 96.7519 193.221 96.5538C211.194 91.5349 224.527 101.139 224.812 119.733C225.096 138.007 225.001 156.28 224.869 174.554C224.764 188.45 225.182 202.412 223.853 216.205C220.608 249.912 192.396 279.959 158.869 286.261C131.549 291.393 106.839 285.242 86.5408 266.384C64.5727 245.959 43.7243 224.346 22.4015 203.233C18.2546 199.129 13.9464 195.148 10.1222 190.752C1.62909 180.997 2.06561 167.356 10.8528 158.761C19.9153 149.912 33.7984 149.563 43.3922 158.516C52.5211 167.035 61.1375 176.082 70.0006 184.884C71.2438 186.11 72.5723 187.252 74.7643 189.252C75.0206 185.497 75.3812 182.733 75.3717 179.959C75.2198 132.092 74.9921 84.2236 74.8687 36.3557C74.8592 31.2047 74.9636 25.9783 75.7418 20.9028C77.5068 9.4217 87.2999 1.74246 99.2472 2.00661C110.701 2.25189 120.475 10.5255 121.367 21.8934C122.117 31.5349 121.623 41.2708 121.661 50.9689C121.68 54.4877 121.661 58.0255 121.661 62.0443ZM87.224 116.148C87.2904 116.148 87.3569 116.148 87.4233 116.148C87.4233 124.073 87.4138 131.997 87.4233 139.931C87.4613 160.799 87.5277 181.667 87.5372 202.535C87.5372 205.846 87.243 209.818 83.3903 210.318C80.8471 210.648 77.5163 209.091 75.3622 207.356C71.2153 204.007 67.6567 199.941 63.8515 196.176C54.2861 186.695 44.9105 177.025 35.0984 167.818C29.8792 162.912 23.5972 163.28 19.4503 167.771C15.3698 172.195 15.3793 178.79 20.1146 183.507C45.1667 208.469 69.8393 233.846 95.6696 257.997C112.096 273.346 132.745 278.563 155.026 274.148C189.283 267.356 211.868 240.176 212.305 205.422C212.656 176.799 212.418 148.158 212.39 119.525C212.38 112.101 208.044 107.45 201.401 107.478C194.939 107.497 190.849 111.884 190.726 119.327C190.593 127.252 190.754 135.176 190.754 143.101C190.754 147.469 190.839 151.846 190.583 156.195C190.374 159.733 188.268 161.875 184.624 161.988C180.961 162.11 178.835 160.054 178.323 156.554C178.019 154.488 178.086 152.356 178.086 150.261C178.105 133.761 178.171 117.261 178.18 100.761C178.18 98.667 178.19 96.516 177.734 94.4972C176.539 89.0915 172.269 85.9123 166.812 86.0538C161.413 86.1858 157.731 89.2141 156.734 94.7802C156.222 97.6292 156.155 100.573 156.165 103.478C156.174 115.29 156.317 127.092 156.355 138.903C156.364 143.261 156.497 147.658 156.07 151.978C155.719 155.592 154.096 158.573 149.57 158.233C145.233 157.903 144.55 155.092 144.521 151.45C144.379 130.752 144.151 110.054 143.895 89.3462C143.857 86.45 143.753 83.5066 143.145 80.6953C141.921 74.9406 137.604 71.9877 131.749 72.4972C125.021 73.0821 121.709 77.6009 121.671 87.1292C121.623 101.195 121.927 115.271 121.946 129.337C121.955 135.959 121.804 142.592 121.452 149.195C121.272 152.573 119.185 154.384 115.607 154.327C112.067 154.271 110.226 152.393 109.761 149.073C109.515 147.318 109.401 145.535 109.401 143.761C109.448 105.752 109.524 67.733 109.543 29.7236C109.543 27.3179 109.382 24.8557 108.869 22.5066C107.721 17.2613 103.707 14.3462 98.2508 14.4594C92.6994 14.5726 89.0175 17.5443 88.2109 23.0632C87.6226 27.0443 87.2809 31.1009 87.2715 35.1292C87.186 62.1198 87.224 89.1292 87.224 116.148Z" fill="url(#paint0_linear_1692_2)" shape-rendering="crispEdges"/>
</g>
<defs>
<filter id="filter0_d_1692_2" x="0" y="0" width="228.997" height="293.996" filterUnits="userSpaceOnUse" color-interpolation-filters="sRGB">
<feFlood flood-opacity="0" result="BackgroundImageFix"/>
<feColorMatrix in="SourceAlpha" type="matrix" values="0 0 0 0 0 0 0 0 0 0 0 0 0 0 0 0 0 0 127 0" result="hardAlpha"/>
<feOffset dy="2"/>
<feGaussianBlur stdDeviation="2"/>
<feComposite in2="hardAlpha" operator="out"/>
<feColorMatrix type="matrix" values="0 0 0 0 0 0 0 0 0 0 0 0 0 0 0 0 0 0 0.8 0"/>
<feBlend mode="normal" in2="BackgroundImageFix" result="effect1_dropShadow_1692_2"/>
<feBlend mode="normal" in="SourceGraphic" in2="effect1_dropShadow_1692_2" result="shape"/>
</filter>
<linearGradient id="paint0_linear_1692_2" x1="114.499" y1="2" x2="114.499" y2="287.996" gradientUnits="userSpaceOnUse">
<stop offset="0.555098" stop-color="white"/>
<stop offset="1" stop-color="white" stop-opacity="0"/>
</linearGradient>
</defs>
</svg>
