<svg width="240" height="317" viewBox="0 0 298 317" fill="none" xmlns="http://www.w3.org/2000/svg">
<g filter="url(#filter0_bdi_162_1097)">
<path d="M295 310.062C295 312.568 292.968 314.6 290.462 314.6V314.6C287.955 314.6 285.923 312.568 285.923 310.062V6.77997C285.923 4.2735 287.955 2.2416 290.462 2.2416V2.2416C292.968 2.2416 295 4.2735 295 6.77997V310.062Z" fill="#2FC4CE" fill-opacity="0.1" shape-rendering="crispEdges"/>
<path d="M286.173 310.062V6.77997C286.173 4.41156 288.093 2.49161 290.462 2.49161C292.83 2.49161 294.75 4.41156 294.75 6.77997V310.062C294.75 312.43 292.83 314.35 290.462 314.35C288.093 314.35 286.173 312.43 286.173 310.062Z" stroke="white" stroke-width="0.5" shape-rendering="crispEdges"/>
</g>
<g filter="url(#filter1_bdi_162_1097)">
<path d="M266.672 310.062C266.672 312.568 264.64 314.6 262.134 314.6V314.6C259.627 314.6 257.595 312.568 257.595 310.062V6.77997C257.595 4.2735 259.627 2.2416 262.134 2.2416V2.2416C264.64 2.2416 266.672 4.2735 266.672 6.77997V310.062Z" fill="#2FC4CE" fill-opacity="0.1" shape-rendering="crispEdges"/>
<path d="M257.845 310.062V6.77997C257.845 4.41156 259.765 2.49161 262.134 2.49161C264.502 2.49161 266.422 4.41156 266.422 6.77997V310.062C266.422 312.43 264.502 314.35 262.134 314.35C259.765 314.35 257.845 312.43 257.845 310.062Z" stroke="white" stroke-width="0.5" shape-rendering="crispEdges"/>
</g>
<g filter="url(#filter2_bdi_162_1097)">
<path d="M238.161 310.062C238.161 312.568 236.129 314.6 233.623 314.6V314.6C231.117 314.6 229.085 312.568 229.085 310.062L229.085 6.77997C229.085 4.2735 231.117 2.2416 233.623 2.2416V2.2416C236.129 2.2416 238.161 4.2735 238.161 6.77997L238.161 310.062Z" fill="#2FC4CE" fill-opacity="0.1" shape-rendering="crispEdges"/>
<path d="M229.335 310.062L229.335 6.77997C229.335 4.41156 231.255 2.49161 233.623 2.49161C235.991 2.49161 237.911 4.41156 237.911 6.77997L237.911 310.062C237.911 312.43 235.991 314.35 233.623 314.35C231.255 314.35 229.335 312.43 229.335 310.062Z" stroke="white" stroke-width="0.5" shape-rendering="crispEdges"/>
</g>
<g filter="url(#filter3_bdi_162_1097)">
<path d="M209.651 310.062C209.651 312.568 207.619 314.6 205.112 314.6V314.6C202.606 314.6 200.574 312.568 200.574 310.062L200.574 6.77997C200.574 4.2735 202.606 2.2416 205.112 2.2416V2.2416C207.619 2.2416 209.651 4.2735 209.651 6.77997L209.651 310.062Z" fill="#2FC4CE" fill-opacity="0.1" shape-rendering="crispEdges"/>
<path d="M200.824 310.062L200.824 6.77997C200.824 4.41156 202.744 2.49161 205.112 2.49161C207.481 2.49161 209.401 4.41156 209.401 6.77997L209.401 310.062C209.401 312.43 207.481 314.35 205.112 314.35C202.744 314.35 200.824 312.43 200.824 310.062Z" stroke="white" stroke-width="0.5" shape-rendering="crispEdges"/>
</g>
<g filter="url(#filter4_bdi_162_1097)">
<path d="M181.141 310.062C181.141 312.568 179.109 314.6 176.602 314.6V314.6C174.096 314.6 172.064 312.568 172.064 310.062L172.064 6.77997C172.064 4.2735 174.096 2.2416 176.602 2.2416V2.2416C179.109 2.2416 181.141 4.2735 181.141 6.77997L181.141 310.062Z" fill="#2FC4CE" fill-opacity="0.1" shape-rendering="crispEdges"/>
<path d="M172.314 310.062L172.314 6.77997C172.314 4.41156 174.234 2.49161 176.602 2.49161C178.971 2.49161 180.891 4.41156 180.891 6.77997L180.891 310.062C180.891 312.43 178.971 314.35 176.602 314.35C174.234 314.35 172.314 312.43 172.314 310.062Z" stroke="white" stroke-width="0.5" shape-rendering="crispEdges"/>
</g>
<g filter="url(#filter5_bdi_162_1097)">
<path d="M152.63 310.062C152.63 312.568 150.598 314.6 148.092 314.6V314.6C145.585 314.6 143.553 312.568 143.553 310.062L143.553 6.77997C143.553 4.2735 145.585 2.2416 148.092 2.2416V2.2416C150.598 2.2416 152.63 4.2735 152.63 6.77997L152.63 310.062Z" fill="#2FC4CE" fill-opacity="0.1" shape-rendering="crispEdges"/>
<path d="M143.803 310.062L143.803 6.77997C143.803 4.41156 145.723 2.49161 148.092 2.49161C150.46 2.49161 152.38 4.41156 152.38 6.77997L152.38 310.062C152.38 312.43 150.46 314.35 148.092 314.35C145.723 314.35 143.803 312.43 143.803 310.062Z" stroke="white" stroke-width="0.5" shape-rendering="crispEdges"/>
</g>
<g filter="url(#filter6_bdi_162_1097)">
<path d="M124.119 310.062C124.119 312.568 122.087 314.6 119.581 314.6V314.6C117.074 314.6 115.042 312.568 115.042 310.062L115.042 6.77997C115.042 4.2735 117.074 2.2416 119.581 2.2416V2.2416C122.087 2.2416 124.119 4.2735 124.119 6.77997L124.119 310.062Z" fill="#2FC4CE" fill-opacity="0.1" shape-rendering="crispEdges"/>
<path d="M115.292 310.062L115.292 6.77997C115.292 4.41156 117.212 2.49161 119.581 2.49161C121.949 2.49161 123.869 4.41156 123.869 6.77997L123.869 310.062C123.869 312.43 121.949 314.35 119.581 314.35C117.212 314.35 115.292 312.43 115.292 310.062Z" stroke="white" stroke-width="0.5" shape-rendering="crispEdges"/>
</g>
<g filter="url(#filter7_bdi_162_1097)">
<path d="M95.6084 310.062C95.6084 312.568 93.5765 314.6 91.07 314.6V314.6C88.5636 314.6 86.5317 312.568 86.5317 310.062L86.5317 6.77997C86.5317 4.2735 88.5636 2.2416 91.07 2.2416V2.2416C93.5765 2.2416 95.6084 4.2735 95.6084 6.77997L95.6084 310.062Z" fill="#2FC4CE" fill-opacity="0.1" shape-rendering="crispEdges"/>
<path d="M86.7817 310.062L86.7817 6.77997C86.7817 4.41156 88.7016 2.49161 91.07 2.49161C93.4384 2.49161 95.3584 4.41156 95.3584 6.77997L95.3584 310.062C95.3584 312.43 93.4384 314.35 91.07 314.35C88.7016 314.35 86.7817 312.43 86.7817 310.062Z" stroke="white" stroke-width="0.5" shape-rendering="crispEdges"/>
</g>
<g filter="url(#filter8_bdi_162_1097)">
<path d="M67.0977 310.062C67.0977 312.568 65.0658 314.6 62.5593 314.6V314.6C60.0528 314.6 58.0209 312.568 58.0209 310.062L58.0209 6.77997C58.0209 4.2735 60.0528 2.2416 62.5593 2.2416V2.2416C65.0658 2.2416 67.0977 4.2735 67.0977 6.77997L67.0977 310.062Z" fill="#2FC4CE" fill-opacity="0.1" shape-rendering="crispEdges"/>
<path d="M58.2709 310.062L58.2709 6.77997C58.2709 4.41156 60.1909 2.49161 62.5593 2.49161C64.9277 2.49161 66.8477 4.41156 66.8477 6.77997L66.8477 310.062C66.8477 312.43 64.9277 314.35 62.5593 314.35C60.1909 314.35 58.2709 312.43 58.2709 310.062Z" stroke="white" stroke-width="0.5" shape-rendering="crispEdges"/>
</g>
<g filter="url(#filter9_bdi_162_1097)">
<path d="M38.5876 310.062C38.5876 312.568 36.5557 314.6 34.0493 314.6V314.6C31.5428 314.6 29.5109 312.568 29.5109 310.062L29.5109 6.77997C29.5109 4.2735 31.5428 2.2416 34.0493 2.2416V2.2416C36.5557 2.2416 38.5876 4.2735 38.5876 6.77997L38.5876 310.062Z" fill="#2FC4CE" fill-opacity="0.1" shape-rendering="crispEdges"/>
<path d="M29.7609 310.062L29.7609 6.77997C29.7609 4.41156 31.6809 2.49161 34.0493 2.49161C36.4177 2.49161 38.3376 4.41156 38.3376 6.77997L38.3376 310.062C38.3376 312.43 36.4177 314.35 34.0493 314.35C31.6809 314.35 29.7609 312.43 29.7609 310.062Z" stroke="white" stroke-width="0.5" shape-rendering="crispEdges"/>
</g>
<g filter="url(#filter10_bdi_162_1097)">
<path d="M10.0767 310.062C10.0767 312.568 8.04476 314.6 5.53829 314.6V314.6C3.03182 314.6 0.999925 312.568 0.999925 310.062L0.999925 6.77997C0.999925 4.2735 3.03182 2.2416 5.53829 2.2416V2.2416C8.04476 2.2416 10.0767 4.2735 10.0767 6.77997L10.0767 310.062Z" fill="#2FC4CE" fill-opacity="0.1" shape-rendering="crispEdges"/>
<path d="M1.24992 310.062L1.24992 6.77997C1.24992 4.41156 3.16989 2.49161 5.53829 2.49161C7.90669 2.49161 9.82666 4.41156 9.82666 6.77997L9.82666 310.062C9.82666 312.43 7.90669 314.35 5.53829 314.35C3.16989 314.35 1.24992 312.43 1.24992 310.062Z" stroke="white" stroke-width="0.5" shape-rendering="crispEdges"/>
</g>
<defs>
<filter id="filter0_bdi_162_1097" x="185.923" y="-97.7583" width="209.077" height="512.358" filterUnits="userSpaceOnUse" color-interpolation-filters="sRGB">
<feFlood flood-opacity="0" result="BackgroundImageFix"/>
<feGaussianBlur in="BackgroundImageFix" stdDeviation="50"/>
<feComposite in2="SourceAlpha" operator="in" result="effect1_backgroundBlur_162_1097"/>
<feColorMatrix in="SourceAlpha" type="matrix" values="0 0 0 0 0 0 0 0 0 0 0 0 0 0 0 0 0 0 127 0" result="hardAlpha"/>
<feOffset dx="1"/>
<feGaussianBlur stdDeviation="1"/>
<feComposite in2="hardAlpha" operator="out"/>
<feColorMatrix type="matrix" values="0 0 0 0 0.184314 0 0 0 0 0.65098 0 0 0 0 0.807843 0 0 0 1 0"/>
<feBlend mode="normal" in2="effect1_backgroundBlur_162_1097" result="effect2_dropShadow_162_1097"/>
<feBlend mode="normal" in="SourceGraphic" in2="effect2_dropShadow_162_1097" result="shape"/>
<feColorMatrix in="SourceAlpha" type="matrix" values="0 0 0 0 0 0 0 0 0 0 0 0 0 0 0 0 0 0 127 0" result="hardAlpha"/>
<feOffset dx="1"/>
<feGaussianBlur stdDeviation="1.5"/>
<feComposite in2="hardAlpha" operator="arithmetic" k2="-1" k3="1"/>
<feColorMatrix type="matrix" values="0 0 0 0 1 0 0 0 0 1 0 0 0 0 1 0 0 0 1 0"/>
<feBlend mode="normal" in2="shape" result="effect3_innerShadow_162_1097"/>
</filter>
<filter id="filter1_bdi_162_1097" x="237.595" y="-17.7583" width="49.0767" height="352.358" filterUnits="userSpaceOnUse" color-interpolation-filters="sRGB">
<feFlood flood-opacity="0" result="BackgroundImageFix"/>
<feGaussianBlur in="BackgroundImageFix" stdDeviation="10"/>
<feComposite in2="SourceAlpha" operator="in" result="effect1_backgroundBlur_162_1097"/>
<feColorMatrix in="SourceAlpha" type="matrix" values="0 0 0 0 0 0 0 0 0 0 0 0 0 0 0 0 0 0 127 0" result="hardAlpha"/>
<feOffset dx="1"/>
<feGaussianBlur stdDeviation="1"/>
<feComposite in2="hardAlpha" operator="out"/>
<feColorMatrix type="matrix" values="0 0 0 0 0.184314 0 0 0 0 0.65098 0 0 0 0 0.807843 0 0 0 1 0"/>
<feBlend mode="normal" in2="effect1_backgroundBlur_162_1097" result="effect2_dropShadow_162_1097"/>
<feBlend mode="normal" in="SourceGraphic" in2="effect2_dropShadow_162_1097" result="shape"/>
<feColorMatrix in="SourceAlpha" type="matrix" values="0 0 0 0 0 0 0 0 0 0 0 0 0 0 0 0 0 0 127 0" result="hardAlpha"/>
<feOffset dx="1"/>
<feGaussianBlur stdDeviation="1.5"/>
<feComposite in2="hardAlpha" operator="arithmetic" k2="-1" k3="1"/>
<feColorMatrix type="matrix" values="0 0 0 0 1 0 0 0 0 1 0 0 0 0 1 0 0 0 1 0"/>
<feBlend mode="normal" in2="shape" result="effect3_innerShadow_162_1097"/>
</filter>
<filter id="filter2_bdi_162_1097" x="209.085" y="-17.7583" width="49.0767" height="352.358" filterUnits="userSpaceOnUse" color-interpolation-filters="sRGB">
<feFlood flood-opacity="0" result="BackgroundImageFix"/>
<feGaussianBlur in="BackgroundImageFix" stdDeviation="10"/>
<feComposite in2="SourceAlpha" operator="in" result="effect1_backgroundBlur_162_1097"/>
<feColorMatrix in="SourceAlpha" type="matrix" values="0 0 0 0 0 0 0 0 0 0 0 0 0 0 0 0 0 0 127 0" result="hardAlpha"/>
<feOffset dx="1"/>
<feGaussianBlur stdDeviation="1"/>
<feComposite in2="hardAlpha" operator="out"/>
<feColorMatrix type="matrix" values="0 0 0 0 0.184314 0 0 0 0 0.65098 0 0 0 0 0.807843 0 0 0 1 0"/>
<feBlend mode="normal" in2="effect1_backgroundBlur_162_1097" result="effect2_dropShadow_162_1097"/>
<feBlend mode="normal" in="SourceGraphic" in2="effect2_dropShadow_162_1097" result="shape"/>
<feColorMatrix in="SourceAlpha" type="matrix" values="0 0 0 0 0 0 0 0 0 0 0 0 0 0 0 0 0 0 127 0" result="hardAlpha"/>
<feOffset dx="1"/>
<feGaussianBlur stdDeviation="1.5"/>
<feComposite in2="hardAlpha" operator="arithmetic" k2="-1" k3="1"/>
<feColorMatrix type="matrix" values="0 0 0 0 1 0 0 0 0 1 0 0 0 0 1 0 0 0 1 0"/>
<feBlend mode="normal" in2="shape" result="effect3_innerShadow_162_1097"/>
</filter>
<filter id="filter3_bdi_162_1097" x="180.574" y="-17.7583" width="49.0767" height="352.358" filterUnits="userSpaceOnUse" color-interpolation-filters="sRGB">
<feFlood flood-opacity="0" result="BackgroundImageFix"/>
<feGaussianBlur in="BackgroundImageFix" stdDeviation="10"/>
<feComposite in2="SourceAlpha" operator="in" result="effect1_backgroundBlur_162_1097"/>
<feColorMatrix in="SourceAlpha" type="matrix" values="0 0 0 0 0 0 0 0 0 0 0 0 0 0 0 0 0 0 127 0" result="hardAlpha"/>
<feOffset dx="1"/>
<feGaussianBlur stdDeviation="1"/>
<feComposite in2="hardAlpha" operator="out"/>
<feColorMatrix type="matrix" values="0 0 0 0 0.184314 0 0 0 0 0.65098 0 0 0 0 0.807843 0 0 0 1 0"/>
<feBlend mode="normal" in2="effect1_backgroundBlur_162_1097" result="effect2_dropShadow_162_1097"/>
<feBlend mode="normal" in="SourceGraphic" in2="effect2_dropShadow_162_1097" result="shape"/>
<feColorMatrix in="SourceAlpha" type="matrix" values="0 0 0 0 0 0 0 0 0 0 0 0 0 0 0 0 0 0 127 0" result="hardAlpha"/>
<feOffset dx="1"/>
<feGaussianBlur stdDeviation="1.5"/>
<feComposite in2="hardAlpha" operator="arithmetic" k2="-1" k3="1"/>
<feColorMatrix type="matrix" values="0 0 0 0 1 0 0 0 0 1 0 0 0 0 1 0 0 0 1 0"/>
<feBlend mode="normal" in2="shape" result="effect3_innerShadow_162_1097"/>
</filter>
<filter id="filter4_bdi_162_1097" x="152.064" y="-17.7583" width="49.0767" height="352.358" filterUnits="userSpaceOnUse" color-interpolation-filters="sRGB">
<feFlood flood-opacity="0" result="BackgroundImageFix"/>
<feGaussianBlur in="BackgroundImageFix" stdDeviation="10"/>
<feComposite in2="SourceAlpha" operator="in" result="effect1_backgroundBlur_162_1097"/>
<feColorMatrix in="SourceAlpha" type="matrix" values="0 0 0 0 0 0 0 0 0 0 0 0 0 0 0 0 0 0 127 0" result="hardAlpha"/>
<feOffset dx="1"/>
<feGaussianBlur stdDeviation="1"/>
<feComposite in2="hardAlpha" operator="out"/>
<feColorMatrix type="matrix" values="0 0 0 0 0.184314 0 0 0 0 0.65098 0 0 0 0 0.807843 0 0 0 1 0"/>
<feBlend mode="normal" in2="effect1_backgroundBlur_162_1097" result="effect2_dropShadow_162_1097"/>
<feBlend mode="normal" in="SourceGraphic" in2="effect2_dropShadow_162_1097" result="shape"/>
<feColorMatrix in="SourceAlpha" type="matrix" values="0 0 0 0 0 0 0 0 0 0 0 0 0 0 0 0 0 0 127 0" result="hardAlpha"/>
<feOffset dx="1"/>
<feGaussianBlur stdDeviation="1.5"/>
<feComposite in2="hardAlpha" operator="arithmetic" k2="-1" k3="1"/>
<feColorMatrix type="matrix" values="0 0 0 0 1 0 0 0 0 1 0 0 0 0 1 0 0 0 1 0"/>
<feBlend mode="normal" in2="shape" result="effect3_innerShadow_162_1097"/>
</filter>
<filter id="filter5_bdi_162_1097" x="123.553" y="-17.7583" width="49.0767" height="352.358" filterUnits="userSpaceOnUse" color-interpolation-filters="sRGB">
<feFlood flood-opacity="0" result="BackgroundImageFix"/>
<feGaussianBlur in="BackgroundImageFix" stdDeviation="10"/>
<feComposite in2="SourceAlpha" operator="in" result="effect1_backgroundBlur_162_1097"/>
<feColorMatrix in="SourceAlpha" type="matrix" values="0 0 0 0 0 0 0 0 0 0 0 0 0 0 0 0 0 0 127 0" result="hardAlpha"/>
<feOffset dx="1"/>
<feGaussianBlur stdDeviation="1"/>
<feComposite in2="hardAlpha" operator="out"/>
<feColorMatrix type="matrix" values="0 0 0 0 0.184314 0 0 0 0 0.65098 0 0 0 0 0.807843 0 0 0 1 0"/>
<feBlend mode="normal" in2="effect1_backgroundBlur_162_1097" result="effect2_dropShadow_162_1097"/>
<feBlend mode="normal" in="SourceGraphic" in2="effect2_dropShadow_162_1097" result="shape"/>
<feColorMatrix in="SourceAlpha" type="matrix" values="0 0 0 0 0 0 0 0 0 0 0 0 0 0 0 0 0 0 127 0" result="hardAlpha"/>
<feOffset dx="1"/>
<feGaussianBlur stdDeviation="1.5"/>
<feComposite in2="hardAlpha" operator="arithmetic" k2="-1" k3="1"/>
<feColorMatrix type="matrix" values="0 0 0 0 1 0 0 0 0 1 0 0 0 0 1 0 0 0 1 0"/>
<feBlend mode="normal" in2="shape" result="effect3_innerShadow_162_1097"/>
</filter>
<filter id="filter6_bdi_162_1097" x="95.0422" y="-17.7583" width="49.0767" height="352.358" filterUnits="userSpaceOnUse" color-interpolation-filters="sRGB">
<feFlood flood-opacity="0" result="BackgroundImageFix"/>
<feGaussianBlur in="BackgroundImageFix" stdDeviation="10"/>
<feComposite in2="SourceAlpha" operator="in" result="effect1_backgroundBlur_162_1097"/>
<feColorMatrix in="SourceAlpha" type="matrix" values="0 0 0 0 0 0 0 0 0 0 0 0 0 0 0 0 0 0 127 0" result="hardAlpha"/>
<feOffset dx="1"/>
<feGaussianBlur stdDeviation="1"/>
<feComposite in2="hardAlpha" operator="out"/>
<feColorMatrix type="matrix" values="0 0 0 0 0.184314 0 0 0 0 0.65098 0 0 0 0 0.807843 0 0 0 1 0"/>
<feBlend mode="normal" in2="effect1_backgroundBlur_162_1097" result="effect2_dropShadow_162_1097"/>
<feBlend mode="normal" in="SourceGraphic" in2="effect2_dropShadow_162_1097" result="shape"/>
<feColorMatrix in="SourceAlpha" type="matrix" values="0 0 0 0 0 0 0 0 0 0 0 0 0 0 0 0 0 0 127 0" result="hardAlpha"/>
<feOffset dx="1"/>
<feGaussianBlur stdDeviation="1.5"/>
<feComposite in2="hardAlpha" operator="arithmetic" k2="-1" k3="1"/>
<feColorMatrix type="matrix" values="0 0 0 0 1 0 0 0 0 1 0 0 0 0 1 0 0 0 1 0"/>
<feBlend mode="normal" in2="shape" result="effect3_innerShadow_162_1097"/>
</filter>
<filter id="filter7_bdi_162_1097" x="66.5317" y="-17.7583" width="49.0767" height="352.358" filterUnits="userSpaceOnUse" color-interpolation-filters="sRGB">
<feFlood flood-opacity="0" result="BackgroundImageFix"/>
<feGaussianBlur in="BackgroundImageFix" stdDeviation="10"/>
<feComposite in2="SourceAlpha" operator="in" result="effect1_backgroundBlur_162_1097"/>
<feColorMatrix in="SourceAlpha" type="matrix" values="0 0 0 0 0 0 0 0 0 0 0 0 0 0 0 0 0 0 127 0" result="hardAlpha"/>
<feOffset dx="1"/>
<feGaussianBlur stdDeviation="1"/>
<feComposite in2="hardAlpha" operator="out"/>
<feColorMatrix type="matrix" values="0 0 0 0 0.184314 0 0 0 0 0.65098 0 0 0 0 0.807843 0 0 0 1 0"/>
<feBlend mode="normal" in2="effect1_backgroundBlur_162_1097" result="effect2_dropShadow_162_1097"/>
<feBlend mode="normal" in="SourceGraphic" in2="effect2_dropShadow_162_1097" result="shape"/>
<feColorMatrix in="SourceAlpha" type="matrix" values="0 0 0 0 0 0 0 0 0 0 0 0 0 0 0 0 0 0 127 0" result="hardAlpha"/>
<feOffset dx="1"/>
<feGaussianBlur stdDeviation="1.5"/>
<feComposite in2="hardAlpha" operator="arithmetic" k2="-1" k3="1"/>
<feColorMatrix type="matrix" values="0 0 0 0 1 0 0 0 0 1 0 0 0 0 1 0 0 0 1 0"/>
<feBlend mode="normal" in2="shape" result="effect3_innerShadow_162_1097"/>
</filter>
<filter id="filter8_bdi_162_1097" x="38.021" y="-17.7583" width="49.0767" height="352.358" filterUnits="userSpaceOnUse" color-interpolation-filters="sRGB">
<feFlood flood-opacity="0" result="BackgroundImageFix"/>
<feGaussianBlur in="BackgroundImageFix" stdDeviation="10"/>
<feComposite in2="SourceAlpha" operator="in" result="effect1_backgroundBlur_162_1097"/>
<feColorMatrix in="SourceAlpha" type="matrix" values="0 0 0 0 0 0 0 0 0 0 0 0 0 0 0 0 0 0 127 0" result="hardAlpha"/>
<feOffset dx="1"/>
<feGaussianBlur stdDeviation="1"/>
<feComposite in2="hardAlpha" operator="out"/>
<feColorMatrix type="matrix" values="0 0 0 0 0.184314 0 0 0 0 0.65098 0 0 0 0 0.807843 0 0 0 1 0"/>
<feBlend mode="normal" in2="effect1_backgroundBlur_162_1097" result="effect2_dropShadow_162_1097"/>
<feBlend mode="normal" in="SourceGraphic" in2="effect2_dropShadow_162_1097" result="shape"/>
<feColorMatrix in="SourceAlpha" type="matrix" values="0 0 0 0 0 0 0 0 0 0 0 0 0 0 0 0 0 0 127 0" result="hardAlpha"/>
<feOffset dx="1"/>
<feGaussianBlur stdDeviation="1.5"/>
<feComposite in2="hardAlpha" operator="arithmetic" k2="-1" k3="1"/>
<feColorMatrix type="matrix" values="0 0 0 0 1 0 0 0 0 1 0 0 0 0 1 0 0 0 1 0"/>
<feBlend mode="normal" in2="shape" result="effect3_innerShadow_162_1097"/>
</filter>
<filter id="filter9_bdi_162_1097" x="9.51099" y="-17.7583" width="49.0767" height="352.358" filterUnits="userSpaceOnUse" color-interpolation-filters="sRGB">
<feFlood flood-opacity="0" result="BackgroundImageFix"/>
<feGaussianBlur in="BackgroundImageFix" stdDeviation="10"/>
<feComposite in2="SourceAlpha" operator="in" result="effect1_backgroundBlur_162_1097"/>
<feColorMatrix in="SourceAlpha" type="matrix" values="0 0 0 0 0 0 0 0 0 0 0 0 0 0 0 0 0 0 127 0" result="hardAlpha"/>
<feOffset dx="1"/>
<feGaussianBlur stdDeviation="1"/>
<feComposite in2="hardAlpha" operator="out"/>
<feColorMatrix type="matrix" values="0 0 0 0 0.184314 0 0 0 0 0.65098 0 0 0 0 0.807843 0 0 0 1 0"/>
<feBlend mode="normal" in2="effect1_backgroundBlur_162_1097" result="effect2_dropShadow_162_1097"/>
<feBlend mode="normal" in="SourceGraphic" in2="effect2_dropShadow_162_1097" result="shape"/>
<feColorMatrix in="SourceAlpha" type="matrix" values="0 0 0 0 0 0 0 0 0 0 0 0 0 0 0 0 0 0 127 0" result="hardAlpha"/>
<feOffset dx="1"/>
<feGaussianBlur stdDeviation="1.5"/>
<feComposite in2="hardAlpha" operator="arithmetic" k2="-1" k3="1"/>
<feColorMatrix type="matrix" values="0 0 0 0 1 0 0 0 0 1 0 0 0 0 1 0 0 0 1 0"/>
<feBlend mode="normal" in2="shape" result="effect3_innerShadow_162_1097"/>
</filter>
<filter id="filter10_bdi_162_1097" x="-19" y="-17.7583" width="49.0767" height="352.358" filterUnits="userSpaceOnUse" color-interpolation-filters="sRGB">
<feFlood flood-opacity="0" result="BackgroundImageFix"/>
<feGaussianBlur in="BackgroundImageFix" stdDeviation="10"/>
<feComposite in2="SourceAlpha" operator="in" result="effect1_backgroundBlur_162_1097"/>
<feColorMatrix in="SourceAlpha" type="matrix" values="0 0 0 0 0 0 0 0 0 0 0 0 0 0 0 0 0 0 127 0" result="hardAlpha"/>
<feOffset dx="1"/>
<feGaussianBlur stdDeviation="1"/>
<feComposite in2="hardAlpha" operator="out"/>
<feColorMatrix type="matrix" values="0 0 0 0 0.184314 0 0 0 0 0.65098 0 0 0 0 0.807843 0 0 0 1 0"/>
<feBlend mode="normal" in2="effect1_backgroundBlur_162_1097" result="effect2_dropShadow_162_1097"/>
<feBlend mode="normal" in="SourceGraphic" in2="effect2_dropShadow_162_1097" result="shape"/>
<feColorMatrix in="SourceAlpha" type="matrix" values="0 0 0 0 0 0 0 0 0 0 0 0 0 0 0 0 0 0 127 0" result="hardAlpha"/>
<feOffset dx="1"/>
<feGaussianBlur stdDeviation="1.5"/>
<feComposite in2="hardAlpha" operator="arithmetic" k2="-1" k3="1"/>
<feColorMatrix type="matrix" values="0 0 0 0 1 0 0 0 0 1 0 0 0 0 1 0 0 0 1 0"/>
<feBlend mode="normal" in2="shape" result="effect3_innerShadow_162_1097"/>
</filter>
</defs>
</svg>
