<svg width="296" height="429" viewBox="0 0 296 429" fill="none" xmlns="http://www.w3.org/2000/svg">
<g filter="url(#filter0_bdi_1090_786)">
<path d="M293 422.493C293 424.982 290.982 427 288.493 427C286.003 427 283.985 424.982 283.985 422.493V6.50751C283.985 4.0181 286.003 2 288.493 2C290.982 2 293 4.0181 293 6.50751V422.493Z" fill="#2FC4CE" fill-opacity="0.1" shape-rendering="crispEdges"/>
<path d="M292.75 422.493C292.75 424.844 290.844 426.75 288.493 426.75C286.141 426.75 284.235 424.844 284.235 422.493V6.50751C284.235 4.15616 286.141 2.25 288.493 2.25C290.844 2.25 292.75 4.15616 292.75 6.50751V422.493Z" stroke="white" stroke-width="0.5" shape-rendering="crispEdges"/>
</g>
<g filter="url(#filter1_bdi_1090_786)">
<path d="M264.865 422.493C264.865 424.982 262.847 427 260.357 427C257.868 427 255.85 424.982 255.85 422.493L255.85 6.50751C255.85 4.0181 257.868 2 260.357 2C262.847 2 264.865 4.0181 264.865 6.50751V422.493Z" fill="#2FC4CE" fill-opacity="0.1" shape-rendering="crispEdges"/>
<path d="M264.615 422.493C264.615 424.844 262.709 426.75 260.357 426.75C258.006 426.75 256.1 424.844 256.1 422.493V6.50751C256.1 4.15616 258.006 2.25 260.357 2.25C262.709 2.25 264.615 4.15616 264.615 6.50751V422.493Z" stroke="white" stroke-width="0.5" shape-rendering="crispEdges"/>
</g>
<g filter="url(#filter2_bdi_1090_786)">
<path d="M236.548 422.493C236.548 424.982 234.53 427 232.04 427C229.551 427 227.533 424.982 227.533 422.493L227.533 6.50751C227.533 4.0181 229.551 2 232.04 2C234.53 2 236.548 4.0181 236.548 6.50751L236.548 422.493Z" fill="#2FC4CE" fill-opacity="0.1" shape-rendering="crispEdges"/>
<path d="M236.298 422.493C236.298 424.844 234.392 426.75 232.04 426.75C229.689 426.75 227.783 424.844 227.783 422.493L227.783 6.50751C227.783 4.15616 229.689 2.25 232.04 2.25C234.392 2.25 236.298 4.15616 236.298 6.50751L236.298 422.493Z" stroke="white" stroke-width="0.5" shape-rendering="crispEdges"/>
</g>
<g filter="url(#filter3_bdi_1090_786)">
<path d="M208.231 422.493C208.231 424.982 206.213 427 203.723 427C201.234 427 199.216 424.982 199.216 422.493L199.216 6.50751C199.216 4.0181 201.234 2 203.723 2C206.213 2 208.231 4.0181 208.231 6.50751L208.231 422.493Z" fill="#2FC4CE" fill-opacity="0.1" shape-rendering="crispEdges"/>
<path d="M207.981 422.493C207.981 424.844 206.075 426.75 203.723 426.75C201.372 426.75 199.466 424.844 199.466 422.493L199.466 6.50751C199.466 4.15616 201.372 2.25 203.723 2.25C206.075 2.25 207.981 4.15616 207.981 6.50751L207.981 422.493Z" stroke="white" stroke-width="0.5" shape-rendering="crispEdges"/>
</g>
<g filter="url(#filter4_bdi_1090_786)">
<path d="M179.915 422.493C179.915 424.982 177.897 427 175.408 427C172.918 427 170.9 424.982 170.9 422.493L170.9 6.50751C170.9 4.0181 172.918 2 175.408 2C177.897 2 179.915 4.0181 179.915 6.50751L179.915 422.493Z" fill="#2FC4CE" fill-opacity="0.1" shape-rendering="crispEdges"/>
<path d="M179.665 422.493C179.665 424.844 177.759 426.75 175.408 426.75C173.056 426.75 171.15 424.844 171.15 422.493L171.15 6.50751C171.15 4.15616 173.056 2.25 175.408 2.25C177.759 2.25 179.665 4.15616 179.665 6.50751L179.665 422.493Z" stroke="white" stroke-width="0.5" shape-rendering="crispEdges"/>
</g>
<g filter="url(#filter5_bdi_1090_786)">
<path d="M151.598 422.493C151.598 424.982 149.58 427 147.091 427C144.601 427 142.583 424.982 142.583 422.493L142.583 6.50751C142.583 4.0181 144.601 2 147.091 2C149.58 2 151.598 4.0181 151.598 6.50751L151.598 422.493Z" fill="#2FC4CE" fill-opacity="0.1" shape-rendering="crispEdges"/>
<path d="M151.348 422.493C151.348 424.844 149.442 426.75 147.091 426.75C144.739 426.75 142.833 424.844 142.833 422.493L142.833 6.50751C142.833 4.15616 144.739 2.25 147.091 2.25C149.442 2.25 151.348 4.15616 151.348 6.50751L151.348 422.493Z" stroke="white" stroke-width="0.5" shape-rendering="crispEdges"/>
</g>
<g filter="url(#filter6_bdi_1090_786)">
<path d="M123.281 422.493C123.281 424.982 121.263 427 118.774 427C116.284 427 114.266 424.982 114.266 422.493L114.266 6.50751C114.266 4.0181 116.284 2 118.774 2C121.263 2 123.281 4.0181 123.281 6.50751L123.281 422.493Z" fill="#2FC4CE" fill-opacity="0.1" shape-rendering="crispEdges"/>
<path d="M123.031 422.493C123.031 424.844 121.125 426.75 118.774 426.75C116.422 426.75 114.516 424.844 114.516 422.493L114.516 6.50751C114.516 4.15616 116.422 2.25 118.774 2.25C121.125 2.25 123.031 4.15616 123.031 6.50751L123.031 422.493Z" stroke="white" stroke-width="0.5" shape-rendering="crispEdges"/>
</g>
<g filter="url(#filter7_bdi_1090_786)">
<path d="M94.9648 422.493C94.9648 424.982 92.9468 427 90.4573 427C87.9679 427 85.9499 424.982 85.9499 422.493L85.9499 6.50751C85.9499 4.0181 87.9679 2 90.4573 2C92.9468 2 94.9648 4.0181 94.9648 6.50751L94.9648 422.493Z" fill="#2FC4CE" fill-opacity="0.1" shape-rendering="crispEdges"/>
<path d="M94.7148 422.493C94.7148 424.844 92.8087 426.75 90.4573 426.75C88.106 426.75 86.1999 424.844 86.1999 422.493L86.1999 6.50751C86.1999 4.15616 88.106 2.25 90.4573 2.25C92.8087 2.25 94.7148 4.15616 94.7148 6.50751L94.7148 422.493Z" stroke="white" stroke-width="0.5" shape-rendering="crispEdges"/>
</g>
<g filter="url(#filter8_bdi_1090_786)">
<path d="M66.6479 422.493C66.6479 424.982 64.6299 427 62.1405 427C59.651 427 57.633 424.982 57.633 422.493L57.633 6.50751C57.633 4.0181 59.651 2 62.1405 2C64.6299 2 66.6479 4.0181 66.6479 6.50751L66.6479 422.493Z" fill="#2FC4CE" fill-opacity="0.1" shape-rendering="crispEdges"/>
<path d="M66.3979 422.493C66.3979 424.844 64.4918 426.75 62.1405 426.75C59.7891 426.75 57.883 424.844 57.883 422.493L57.883 6.50751C57.883 4.15616 59.7891 2.25 62.1405 2.25C64.4918 2.25 66.3979 4.15616 66.3979 6.50751L66.3979 422.493Z" stroke="white" stroke-width="0.5" shape-rendering="crispEdges"/>
</g>
<g filter="url(#filter9_bdi_1090_786)">
<path d="M38.3315 422.493C38.3315 424.982 36.3135 427 33.824 427C31.3346 427 29.3166 424.982 29.3166 422.493L29.3166 6.50751C29.3166 4.0181 31.3346 2 33.824 2C36.3135 2 38.3315 4.0181 38.3315 6.50751L38.3315 422.493Z" fill="#2FC4CE" fill-opacity="0.1" shape-rendering="crispEdges"/>
<path d="M38.0815 422.493C38.0815 424.844 36.1754 426.75 33.824 426.75C31.4727 426.75 29.5666 424.844 29.5666 422.493L29.5666 6.50751C29.5666 4.15616 31.4727 2.25 33.824 2.25C36.1754 2.25 38.0815 4.15616 38.0815 6.50751L38.0815 422.493Z" stroke="white" stroke-width="0.5" shape-rendering="crispEdges"/>
</g>
<g filter="url(#filter10_bdi_1090_786)">
<path d="M10.0151 422.493C10.0151 424.982 7.99706 427 5.50764 427C3.01822 427 1.00015 424.982 1.00015 422.493L1.00015 6.50751C1.00015 4.0181 3.01822 2 5.50764 2C7.99706 2 10.0151 4.0181 10.0151 6.50751L10.0151 422.493Z" fill="#2FC4CE" fill-opacity="0.1" shape-rendering="crispEdges"/>
<path d="M9.76514 422.493C9.76514 424.844 7.85899 426.75 5.50764 426.75C3.15629 426.75 1.25015 424.844 1.25015 422.493L1.25015 6.50751C1.25015 4.15616 3.15629 2.25 5.50764 2.25C7.85899 2.25 9.76514 4.15616 9.76514 6.50751L9.76514 422.493Z" stroke="white" stroke-width="0.5" shape-rendering="crispEdges"/>
</g>
<defs>
<filter id="filter0_bdi_1090_786" x="183.985" y="-98" width="209.015" height="625" filterUnits="userSpaceOnUse" color-interpolation-filters="sRGB">
<feFlood flood-opacity="0" result="BackgroundImageFix"/>
<feGaussianBlur in="BackgroundImageFix" stdDeviation="50"/>
<feComposite in2="SourceAlpha" operator="in" result="effect1_backgroundBlur_1090_786"/>
<feColorMatrix in="SourceAlpha" type="matrix" values="0 0 0 0 0 0 0 0 0 0 0 0 0 0 0 0 0 0 127 0" result="hardAlpha"/>
<feOffset dx="1"/>
<feGaussianBlur stdDeviation="1"/>
<feComposite in2="hardAlpha" operator="out"/>
<feColorMatrix type="matrix" values="0 0 0 0 0.184314 0 0 0 0 0.65098 0 0 0 0 0.807843 0 0 0 1 0"/>
<feBlend mode="normal" in2="effect1_backgroundBlur_1090_786" result="effect2_dropShadow_1090_786"/>
<feBlend mode="normal" in="SourceGraphic" in2="effect2_dropShadow_1090_786" result="shape"/>
<feColorMatrix in="SourceAlpha" type="matrix" values="0 0 0 0 0 0 0 0 0 0 0 0 0 0 0 0 0 0 127 0" result="hardAlpha"/>
<feOffset dx="1"/>
<feGaussianBlur stdDeviation="1.5"/>
<feComposite in2="hardAlpha" operator="arithmetic" k2="-1" k3="1"/>
<feColorMatrix type="matrix" values="0 0 0 0 1 0 0 0 0 1 0 0 0 0 1 0 0 0 1 0"/>
<feBlend mode="normal" in2="shape" result="effect3_innerShadow_1090_786"/>
</filter>
<filter id="filter1_bdi_1090_786" x="235.85" y="-18" width="49.0151" height="465" filterUnits="userSpaceOnUse" color-interpolation-filters="sRGB">
<feFlood flood-opacity="0" result="BackgroundImageFix"/>
<feGaussianBlur in="BackgroundImageFix" stdDeviation="10"/>
<feComposite in2="SourceAlpha" operator="in" result="effect1_backgroundBlur_1090_786"/>
<feColorMatrix in="SourceAlpha" type="matrix" values="0 0 0 0 0 0 0 0 0 0 0 0 0 0 0 0 0 0 127 0" result="hardAlpha"/>
<feOffset dx="1"/>
<feGaussianBlur stdDeviation="1"/>
<feComposite in2="hardAlpha" operator="out"/>
<feColorMatrix type="matrix" values="0 0 0 0 0.184314 0 0 0 0 0.65098 0 0 0 0 0.807843 0 0 0 1 0"/>
<feBlend mode="normal" in2="effect1_backgroundBlur_1090_786" result="effect2_dropShadow_1090_786"/>
<feBlend mode="normal" in="SourceGraphic" in2="effect2_dropShadow_1090_786" result="shape"/>
<feColorMatrix in="SourceAlpha" type="matrix" values="0 0 0 0 0 0 0 0 0 0 0 0 0 0 0 0 0 0 127 0" result="hardAlpha"/>
<feOffset dx="1"/>
<feGaussianBlur stdDeviation="1.5"/>
<feComposite in2="hardAlpha" operator="arithmetic" k2="-1" k3="1"/>
<feColorMatrix type="matrix" values="0 0 0 0 1 0 0 0 0 1 0 0 0 0 1 0 0 0 1 0"/>
<feBlend mode="normal" in2="shape" result="effect3_innerShadow_1090_786"/>
</filter>
<filter id="filter2_bdi_1090_786" x="207.533" y="-18" width="49.0151" height="465" filterUnits="userSpaceOnUse" color-interpolation-filters="sRGB">
<feFlood flood-opacity="0" result="BackgroundImageFix"/>
<feGaussianBlur in="BackgroundImageFix" stdDeviation="10"/>
<feComposite in2="SourceAlpha" operator="in" result="effect1_backgroundBlur_1090_786"/>
<feColorMatrix in="SourceAlpha" type="matrix" values="0 0 0 0 0 0 0 0 0 0 0 0 0 0 0 0 0 0 127 0" result="hardAlpha"/>
<feOffset dx="1"/>
<feGaussianBlur stdDeviation="1"/>
<feComposite in2="hardAlpha" operator="out"/>
<feColorMatrix type="matrix" values="0 0 0 0 0.184314 0 0 0 0 0.65098 0 0 0 0 0.807843 0 0 0 1 0"/>
<feBlend mode="normal" in2="effect1_backgroundBlur_1090_786" result="effect2_dropShadow_1090_786"/>
<feBlend mode="normal" in="SourceGraphic" in2="effect2_dropShadow_1090_786" result="shape"/>
<feColorMatrix in="SourceAlpha" type="matrix" values="0 0 0 0 0 0 0 0 0 0 0 0 0 0 0 0 0 0 127 0" result="hardAlpha"/>
<feOffset dx="1"/>
<feGaussianBlur stdDeviation="1.5"/>
<feComposite in2="hardAlpha" operator="arithmetic" k2="-1" k3="1"/>
<feColorMatrix type="matrix" values="0 0 0 0 1 0 0 0 0 1 0 0 0 0 1 0 0 0 1 0"/>
<feBlend mode="normal" in2="shape" result="effect3_innerShadow_1090_786"/>
</filter>
<filter id="filter3_bdi_1090_786" x="179.216" y="-18" width="49.0151" height="465" filterUnits="userSpaceOnUse" color-interpolation-filters="sRGB">
<feFlood flood-opacity="0" result="BackgroundImageFix"/>
<feGaussianBlur in="BackgroundImageFix" stdDeviation="10"/>
<feComposite in2="SourceAlpha" operator="in" result="effect1_backgroundBlur_1090_786"/>
<feColorMatrix in="SourceAlpha" type="matrix" values="0 0 0 0 0 0 0 0 0 0 0 0 0 0 0 0 0 0 127 0" result="hardAlpha"/>
<feOffset dx="1"/>
<feGaussianBlur stdDeviation="1"/>
<feComposite in2="hardAlpha" operator="out"/>
<feColorMatrix type="matrix" values="0 0 0 0 0.184314 0 0 0 0 0.65098 0 0 0 0 0.807843 0 0 0 1 0"/>
<feBlend mode="normal" in2="effect1_backgroundBlur_1090_786" result="effect2_dropShadow_1090_786"/>
<feBlend mode="normal" in="SourceGraphic" in2="effect2_dropShadow_1090_786" result="shape"/>
<feColorMatrix in="SourceAlpha" type="matrix" values="0 0 0 0 0 0 0 0 0 0 0 0 0 0 0 0 0 0 127 0" result="hardAlpha"/>
<feOffset dx="1"/>
<feGaussianBlur stdDeviation="1.5"/>
<feComposite in2="hardAlpha" operator="arithmetic" k2="-1" k3="1"/>
<feColorMatrix type="matrix" values="0 0 0 0 1 0 0 0 0 1 0 0 0 0 1 0 0 0 1 0"/>
<feBlend mode="normal" in2="shape" result="effect3_innerShadow_1090_786"/>
</filter>
<filter id="filter4_bdi_1090_786" x="150.9" y="-18" width="49.0151" height="465" filterUnits="userSpaceOnUse" color-interpolation-filters="sRGB">
<feFlood flood-opacity="0" result="BackgroundImageFix"/>
<feGaussianBlur in="BackgroundImageFix" stdDeviation="10"/>
<feComposite in2="SourceAlpha" operator="in" result="effect1_backgroundBlur_1090_786"/>
<feColorMatrix in="SourceAlpha" type="matrix" values="0 0 0 0 0 0 0 0 0 0 0 0 0 0 0 0 0 0 127 0" result="hardAlpha"/>
<feOffset dx="1"/>
<feGaussianBlur stdDeviation="1"/>
<feComposite in2="hardAlpha" operator="out"/>
<feColorMatrix type="matrix" values="0 0 0 0 0.184314 0 0 0 0 0.65098 0 0 0 0 0.807843 0 0 0 1 0"/>
<feBlend mode="normal" in2="effect1_backgroundBlur_1090_786" result="effect2_dropShadow_1090_786"/>
<feBlend mode="normal" in="SourceGraphic" in2="effect2_dropShadow_1090_786" result="shape"/>
<feColorMatrix in="SourceAlpha" type="matrix" values="0 0 0 0 0 0 0 0 0 0 0 0 0 0 0 0 0 0 127 0" result="hardAlpha"/>
<feOffset dx="1"/>
<feGaussianBlur stdDeviation="1.5"/>
<feComposite in2="hardAlpha" operator="arithmetic" k2="-1" k3="1"/>
<feColorMatrix type="matrix" values="0 0 0 0 1 0 0 0 0 1 0 0 0 0 1 0 0 0 1 0"/>
<feBlend mode="normal" in2="shape" result="effect3_innerShadow_1090_786"/>
</filter>
<filter id="filter5_bdi_1090_786" x="122.583" y="-18" width="49.0151" height="465" filterUnits="userSpaceOnUse" color-interpolation-filters="sRGB">
<feFlood flood-opacity="0" result="BackgroundImageFix"/>
<feGaussianBlur in="BackgroundImageFix" stdDeviation="10"/>
<feComposite in2="SourceAlpha" operator="in" result="effect1_backgroundBlur_1090_786"/>
<feColorMatrix in="SourceAlpha" type="matrix" values="0 0 0 0 0 0 0 0 0 0 0 0 0 0 0 0 0 0 127 0" result="hardAlpha"/>
<feOffset dx="1"/>
<feGaussianBlur stdDeviation="1"/>
<feComposite in2="hardAlpha" operator="out"/>
<feColorMatrix type="matrix" values="0 0 0 0 0.184314 0 0 0 0 0.65098 0 0 0 0 0.807843 0 0 0 1 0"/>
<feBlend mode="normal" in2="effect1_backgroundBlur_1090_786" result="effect2_dropShadow_1090_786"/>
<feBlend mode="normal" in="SourceGraphic" in2="effect2_dropShadow_1090_786" result="shape"/>
<feColorMatrix in="SourceAlpha" type="matrix" values="0 0 0 0 0 0 0 0 0 0 0 0 0 0 0 0 0 0 127 0" result="hardAlpha"/>
<feOffset dx="1"/>
<feGaussianBlur stdDeviation="1.5"/>
<feComposite in2="hardAlpha" operator="arithmetic" k2="-1" k3="1"/>
<feColorMatrix type="matrix" values="0 0 0 0 1 0 0 0 0 1 0 0 0 0 1 0 0 0 1 0"/>
<feBlend mode="normal" in2="shape" result="effect3_innerShadow_1090_786"/>
</filter>
<filter id="filter6_bdi_1090_786" x="94.2661" y="-18" width="49.0151" height="465" filterUnits="userSpaceOnUse" color-interpolation-filters="sRGB">
<feFlood flood-opacity="0" result="BackgroundImageFix"/>
<feGaussianBlur in="BackgroundImageFix" stdDeviation="10"/>
<feComposite in2="SourceAlpha" operator="in" result="effect1_backgroundBlur_1090_786"/>
<feColorMatrix in="SourceAlpha" type="matrix" values="0 0 0 0 0 0 0 0 0 0 0 0 0 0 0 0 0 0 127 0" result="hardAlpha"/>
<feOffset dx="1"/>
<feGaussianBlur stdDeviation="1"/>
<feComposite in2="hardAlpha" operator="out"/>
<feColorMatrix type="matrix" values="0 0 0 0 0.184314 0 0 0 0 0.65098 0 0 0 0 0.807843 0 0 0 1 0"/>
<feBlend mode="normal" in2="effect1_backgroundBlur_1090_786" result="effect2_dropShadow_1090_786"/>
<feBlend mode="normal" in="SourceGraphic" in2="effect2_dropShadow_1090_786" result="shape"/>
<feColorMatrix in="SourceAlpha" type="matrix" values="0 0 0 0 0 0 0 0 0 0 0 0 0 0 0 0 0 0 127 0" result="hardAlpha"/>
<feOffset dx="1"/>
<feGaussianBlur stdDeviation="1.5"/>
<feComposite in2="hardAlpha" operator="arithmetic" k2="-1" k3="1"/>
<feColorMatrix type="matrix" values="0 0 0 0 1 0 0 0 0 1 0 0 0 0 1 0 0 0 1 0"/>
<feBlend mode="normal" in2="shape" result="effect3_innerShadow_1090_786"/>
</filter>
<filter id="filter7_bdi_1090_786" x="65.9497" y="-18" width="49.0151" height="465" filterUnits="userSpaceOnUse" color-interpolation-filters="sRGB">
<feFlood flood-opacity="0" result="BackgroundImageFix"/>
<feGaussianBlur in="BackgroundImageFix" stdDeviation="10"/>
<feComposite in2="SourceAlpha" operator="in" result="effect1_backgroundBlur_1090_786"/>
<feColorMatrix in="SourceAlpha" type="matrix" values="0 0 0 0 0 0 0 0 0 0 0 0 0 0 0 0 0 0 127 0" result="hardAlpha"/>
<feOffset dx="1"/>
<feGaussianBlur stdDeviation="1"/>
<feComposite in2="hardAlpha" operator="out"/>
<feColorMatrix type="matrix" values="0 0 0 0 0.184314 0 0 0 0 0.65098 0 0 0 0 0.807843 0 0 0 1 0"/>
<feBlend mode="normal" in2="effect1_backgroundBlur_1090_786" result="effect2_dropShadow_1090_786"/>
<feBlend mode="normal" in="SourceGraphic" in2="effect2_dropShadow_1090_786" result="shape"/>
<feColorMatrix in="SourceAlpha" type="matrix" values="0 0 0 0 0 0 0 0 0 0 0 0 0 0 0 0 0 0 127 0" result="hardAlpha"/>
<feOffset dx="1"/>
<feGaussianBlur stdDeviation="1.5"/>
<feComposite in2="hardAlpha" operator="arithmetic" k2="-1" k3="1"/>
<feColorMatrix type="matrix" values="0 0 0 0 1 0 0 0 0 1 0 0 0 0 1 0 0 0 1 0"/>
<feBlend mode="normal" in2="shape" result="effect3_innerShadow_1090_786"/>
</filter>
<filter id="filter8_bdi_1090_786" x="37.6328" y="-18" width="49.0151" height="465" filterUnits="userSpaceOnUse" color-interpolation-filters="sRGB">
<feFlood flood-opacity="0" result="BackgroundImageFix"/>
<feGaussianBlur in="BackgroundImageFix" stdDeviation="10"/>
<feComposite in2="SourceAlpha" operator="in" result="effect1_backgroundBlur_1090_786"/>
<feColorMatrix in="SourceAlpha" type="matrix" values="0 0 0 0 0 0 0 0 0 0 0 0 0 0 0 0 0 0 127 0" result="hardAlpha"/>
<feOffset dx="1"/>
<feGaussianBlur stdDeviation="1"/>
<feComposite in2="hardAlpha" operator="out"/>
<feColorMatrix type="matrix" values="0 0 0 0 0.184314 0 0 0 0 0.65098 0 0 0 0 0.807843 0 0 0 1 0"/>
<feBlend mode="normal" in2="effect1_backgroundBlur_1090_786" result="effect2_dropShadow_1090_786"/>
<feBlend mode="normal" in="SourceGraphic" in2="effect2_dropShadow_1090_786" result="shape"/>
<feColorMatrix in="SourceAlpha" type="matrix" values="0 0 0 0 0 0 0 0 0 0 0 0 0 0 0 0 0 0 127 0" result="hardAlpha"/>
<feOffset dx="1"/>
<feGaussianBlur stdDeviation="1.5"/>
<feComposite in2="hardAlpha" operator="arithmetic" k2="-1" k3="1"/>
<feColorMatrix type="matrix" values="0 0 0 0 1 0 0 0 0 1 0 0 0 0 1 0 0 0 1 0"/>
<feBlend mode="normal" in2="shape" result="effect3_innerShadow_1090_786"/>
</filter>
<filter id="filter9_bdi_1090_786" x="9.31641" y="-18" width="49.0151" height="465" filterUnits="userSpaceOnUse" color-interpolation-filters="sRGB">
<feFlood flood-opacity="0" result="BackgroundImageFix"/>
<feGaussianBlur in="BackgroundImageFix" stdDeviation="10"/>
<feComposite in2="SourceAlpha" operator="in" result="effect1_backgroundBlur_1090_786"/>
<feColorMatrix in="SourceAlpha" type="matrix" values="0 0 0 0 0 0 0 0 0 0 0 0 0 0 0 0 0 0 127 0" result="hardAlpha"/>
<feOffset dx="1"/>
<feGaussianBlur stdDeviation="1"/>
<feComposite in2="hardAlpha" operator="out"/>
<feColorMatrix type="matrix" values="0 0 0 0 0.184314 0 0 0 0 0.65098 0 0 0 0 0.807843 0 0 0 1 0"/>
<feBlend mode="normal" in2="effect1_backgroundBlur_1090_786" result="effect2_dropShadow_1090_786"/>
<feBlend mode="normal" in="SourceGraphic" in2="effect2_dropShadow_1090_786" result="shape"/>
<feColorMatrix in="SourceAlpha" type="matrix" values="0 0 0 0 0 0 0 0 0 0 0 0 0 0 0 0 0 0 127 0" result="hardAlpha"/>
<feOffset dx="1"/>
<feGaussianBlur stdDeviation="1.5"/>
<feComposite in2="hardAlpha" operator="arithmetic" k2="-1" k3="1"/>
<feColorMatrix type="matrix" values="0 0 0 0 1 0 0 0 0 1 0 0 0 0 1 0 0 0 1 0"/>
<feBlend mode="normal" in2="shape" result="effect3_innerShadow_1090_786"/>
</filter>
<filter id="filter10_bdi_1090_786" x="-19" y="-18" width="49.0151" height="465" filterUnits="userSpaceOnUse" color-interpolation-filters="sRGB">
<feFlood flood-opacity="0" result="BackgroundImageFix"/>
<feGaussianBlur in="BackgroundImageFix" stdDeviation="10"/>
<feComposite in2="SourceAlpha" operator="in" result="effect1_backgroundBlur_1090_786"/>
<feColorMatrix in="SourceAlpha" type="matrix" values="0 0 0 0 0 0 0 0 0 0 0 0 0 0 0 0 0 0 127 0" result="hardAlpha"/>
<feOffset dx="1"/>
<feGaussianBlur stdDeviation="1"/>
<feComposite in2="hardAlpha" operator="out"/>
<feColorMatrix type="matrix" values="0 0 0 0 0.184314 0 0 0 0 0.65098 0 0 0 0 0.807843 0 0 0 1 0"/>
<feBlend mode="normal" in2="effect1_backgroundBlur_1090_786" result="effect2_dropShadow_1090_786"/>
<feBlend mode="normal" in="SourceGraphic" in2="effect2_dropShadow_1090_786" result="shape"/>
<feColorMatrix in="SourceAlpha" type="matrix" values="0 0 0 0 0 0 0 0 0 0 0 0 0 0 0 0 0 0 127 0" result="hardAlpha"/>
<feOffset dx="1"/>
<feGaussianBlur stdDeviation="1.5"/>
<feComposite in2="hardAlpha" operator="arithmetic" k2="-1" k3="1"/>
<feColorMatrix type="matrix" values="0 0 0 0 1 0 0 0 0 1 0 0 0 0 1 0 0 0 1 0"/>
<feBlend mode="normal" in2="shape" result="effect3_innerShadow_1090_786"/>
</filter>
</defs>
</svg>
