<svg width="150" height="53" viewBox="0 0 150 53" fill="none" xmlns="http://www.w3.org/2000/svg">
<g filter="url(#filter0_ddi_162_1140)">
<rect width="112" height="28" rx="14" transform="matrix(-1 0 0 1 126 10.0015)" fill="#F3F8FE"/>
</g>
<g filter="url(#filter1_i_162_1140)">
<circle cx="130" cy="24.0015" r="20" transform="rotate(-90 130 24.0015)" fill="#F6A624"/>
</g>
<path d="M36.9648 22.7983H37.3848C38.6152 22.7983 39.4323 22.6551 39.8359 22.3687C40.2396 22.0822 40.4414 21.5744 40.4414 20.8452C40.4414 20.0575 40.2233 19.5041 39.7871 19.1851C39.3574 18.8595 38.5566 18.6968 37.3848 18.6968H36.9648V22.7983ZM36.8184 24.605V31.0015H34.6406V16.7046H37.8828C38.8333 16.7046 39.569 16.7664 40.0898 16.8901C40.6172 17.0138 41.0664 17.2189 41.4375 17.5054C41.8802 17.8504 42.222 18.2964 42.4629 18.8433C42.7038 19.3901 42.8242 19.9891 42.8242 20.6401C42.8242 21.786 42.5475 22.6844 41.9941 23.3354C41.4408 23.98 40.6237 24.3674 39.543 24.4976L44.4648 31.0015H41.8379L37.082 24.605H36.8184ZM54.2402 26.6851H46.8379C46.89 27.5509 47.1471 28.228 47.6094 28.7163C48.0716 29.1981 48.6868 29.439 49.4551 29.439C50.1387 29.439 50.7083 29.2957 51.1641 29.0093C51.6198 28.7228 52.0169 28.2606 52.3555 27.6226L54.1426 28.6187C53.6217 29.5496 52.9772 30.243 52.209 30.6987C51.4408 31.1545 50.5391 31.3823 49.5039 31.3823C48.0195 31.3823 46.8379 30.9299 45.959 30.0249C45.0801 29.12 44.6406 27.9123 44.6406 26.4019C44.6406 24.95 45.0931 23.7586 45.998 22.8276C46.9095 21.8901 48.0781 21.4214 49.5039 21.4214C50.9948 21.4214 52.1569 21.8478 52.9902 22.7007C53.8236 23.5535 54.2402 24.7482 54.2402 26.2847V26.6851ZM52.043 25.2593C51.9583 24.5952 51.7044 24.0907 51.2812 23.7456C50.8581 23.394 50.2786 23.2183 49.543 23.2183C48.8464 23.2183 48.2865 23.3875 47.8633 23.7261C47.4401 24.0646 47.1439 24.5757 46.9746 25.2593H52.043ZM63.1074 26.3433C63.1074 25.3862 62.8828 24.6408 62.4336 24.1069C61.9909 23.5731 61.3691 23.3062 60.5684 23.3062C59.7676 23.3062 59.1361 23.5828 58.6738 24.1362C58.2181 24.6831 57.9902 25.4448 57.9902 26.4214C57.9902 27.4045 58.2116 28.1629 58.6543 28.6968C59.097 29.2306 59.722 29.4976 60.5293 29.4976C61.291 29.4976 61.9095 29.2078 62.3848 28.6284C62.8665 28.049 63.1074 27.2873 63.1074 26.3433ZM65.168 30.4253C65.168 32.2352 64.8066 33.508 64.084 34.2437C63.3613 34.9858 62.1439 35.3569 60.4316 35.3569C59.1556 35.3569 58.1367 35.0868 57.375 34.5464C56.6133 34.0125 56.2259 33.2996 56.2129 32.4077L58.4883 32.3979C58.5208 32.7951 58.7064 33.0978 59.0449 33.3062C59.3835 33.5145 59.8587 33.6187 60.4707 33.6187C61.3757 33.6187 62.0267 33.4201 62.4238 33.0229C62.821 32.6258 63.0228 31.9618 63.0293 31.0308L63.0488 29.8003C62.6712 30.3341 62.2285 30.7313 61.7207 30.9917C61.2194 31.2521 60.6432 31.3823 59.9922 31.3823C58.6836 31.3823 57.6517 30.9364 56.8965 30.0444C56.1478 29.146 55.7734 27.9188 55.7734 26.3628C55.7734 24.8849 56.1576 23.6935 56.9258 22.7886C57.694 21.8771 58.6966 21.4214 59.9336 21.4214C60.6888 21.4214 61.3333 21.5809 61.8672 21.8999C62.4076 22.2124 62.8014 22.6649 63.0488 23.2573V21.7437H65.168V30.4253ZM67.9121 17.7397C67.9121 17.3817 68.0423 17.0724 68.3027 16.812C68.5697 16.5516 68.8854 16.4214 69.25 16.4214C69.6276 16.4214 69.9401 16.5483 70.1875 16.8022C70.4414 17.0496 70.5684 17.3621 70.5684 17.7397C70.5684 18.1174 70.4414 18.4364 70.1875 18.6968C69.9336 18.9507 69.6211 19.0776 69.25 19.0776C68.8854 19.0776 68.5697 18.9474 68.3027 18.687C68.0423 18.4201 67.9121 18.1043 67.9121 17.7397ZM68.1953 31.0015V21.7437H70.3145V31.0015H68.1953ZM72.2871 29.3218L74.0449 28.3647C74.1751 28.827 74.416 29.1785 74.7676 29.4194C75.1191 29.6603 75.5716 29.7808 76.125 29.7808C76.6003 29.7808 76.9714 29.6733 77.2383 29.4585C77.5117 29.2371 77.6484 28.9377 77.6484 28.5601C77.6484 28.0588 77.1667 27.6291 76.2031 27.271C75.8776 27.1538 75.627 27.0562 75.4512 26.978C74.4616 26.5679 73.7682 26.1512 73.3711 25.728C72.9805 25.3049 72.7852 24.7905 72.7852 24.1851C72.7852 23.3582 73.1074 22.6877 73.752 22.1733C74.403 21.659 75.2624 21.4019 76.3301 21.4019C77.0462 21.4019 77.6582 21.5353 78.166 21.8022C78.6803 22.0627 79.0547 22.437 79.2891 22.9253L77.7852 23.9604C77.6745 23.6675 77.4792 23.4364 77.1992 23.2671C76.9258 23.0913 76.6068 23.0034 76.2422 23.0034C75.8385 23.0034 75.513 23.1011 75.2656 23.2964C75.0247 23.4852 74.9043 23.7391 74.9043 24.0581C74.9043 24.5399 75.4512 24.9793 76.5449 25.3765C76.89 25.5002 77.1569 25.6011 77.3457 25.6792C78.1986 26.0177 78.8073 26.4019 79.1719 26.8315C79.543 27.2547 79.7285 27.7853 79.7285 28.4233C79.7285 29.3478 79.3932 30.0737 78.7227 30.6011C78.0521 31.1219 77.1276 31.3823 75.9492 31.3823C75.0443 31.3823 74.2923 31.2131 73.6934 30.8745C73.0944 30.536 72.6257 30.0184 72.2871 29.3218ZM82.3652 31.0015V23.5991H80.7441V21.7437H82.3652V18.2378H84.4844V21.7437H86.1055V23.5991H84.4844V31.0015H82.3652ZM96.8574 26.6851H89.4551C89.5072 27.5509 89.7643 28.228 90.2266 28.7163C90.6888 29.1981 91.304 29.439 92.0723 29.439C92.7559 29.439 93.3255 29.2957 93.7812 29.0093C94.237 28.7228 94.6341 28.2606 94.9727 27.6226L96.7598 28.6187C96.2389 29.5496 95.5944 30.243 94.8262 30.6987C94.0579 31.1545 93.1562 31.3823 92.1211 31.3823C90.6367 31.3823 89.4551 30.9299 88.5762 30.0249C87.6973 29.12 87.2578 27.9123 87.2578 26.4019C87.2578 24.95 87.7103 23.7586 88.6152 22.8276C89.5267 21.8901 90.6953 21.4214 92.1211 21.4214C93.612 21.4214 94.7741 21.8478 95.6074 22.7007C96.4408 23.5535 96.8574 24.7482 96.8574 26.2847V26.6851ZM94.6602 25.2593C94.5755 24.5952 94.3216 24.0907 93.8984 23.7456C93.4753 23.394 92.8958 23.2183 92.1602 23.2183C91.4635 23.2183 90.9036 23.3875 90.4805 23.7261C90.0573 24.0646 89.7611 24.5757 89.5918 25.2593H94.6602ZM101.193 23.2183C101.421 22.6063 101.721 22.1538 102.092 21.8608C102.469 21.5679 102.935 21.4214 103.488 21.4214C103.788 21.4214 104.081 21.4572 104.367 21.5288C104.66 21.6004 104.947 21.7046 105.227 21.8413L104.465 23.6382C104.283 23.508 104.084 23.4136 103.869 23.355C103.661 23.2899 103.426 23.2573 103.166 23.2573C102.463 23.2573 101.958 23.5405 101.652 24.1069C101.346 24.6668 101.193 25.6108 101.193 26.939V31.0015H99.0742V21.7241H101.193V23.2183Z" fill="#F6A624"/>
<defs>
<filter id="filter0_ddi_162_1140" x="0" y="0.00146484" width="136" height="52" filterUnits="userSpaceOnUse" color-interpolation-filters="sRGB">
<feFlood flood-opacity="0" result="BackgroundImageFix"/>
<feColorMatrix in="SourceAlpha" type="matrix" values="0 0 0 0 0 0 0 0 0 0 0 0 0 0 0 0 0 0 127 0" result="hardAlpha"/>
<feOffset dy="4"/>
<feGaussianBlur stdDeviation="5"/>
<feComposite in2="hardAlpha" operator="out"/>
<feColorMatrix type="matrix" values="0 0 0 0 0.901961 0 0 0 0 0.439216 0 0 0 0 0.0352941 0 0 0 1 0"/>
<feBlend mode="normal" in2="BackgroundImageFix" result="effect1_dropShadow_162_1140"/>
<feColorMatrix in="SourceAlpha" type="matrix" values="0 0 0 0 0 0 0 0 0 0 0 0 0 0 0 0 0 0 127 0" result="hardAlpha"/>
<feOffset dx="-4"/>
<feGaussianBlur stdDeviation="5"/>
<feComposite in2="hardAlpha" operator="out"/>
<feColorMatrix type="matrix" values="0 0 0 0 1 0 0 0 0 1 0 0 0 0 1 0 0 0 0.973455 0"/>
<feBlend mode="normal" in2="effect1_dropShadow_162_1140" result="effect2_dropShadow_162_1140"/>
<feBlend mode="normal" in="SourceGraphic" in2="effect2_dropShadow_162_1140" result="shape"/>
<feColorMatrix in="SourceAlpha" type="matrix" values="0 0 0 0 0 0 0 0 0 0 0 0 0 0 0 0 0 0 127 0" result="hardAlpha"/>
<feOffset dx="3" dy="3"/>
<feGaussianBlur stdDeviation="1"/>
<feComposite in2="hardAlpha" operator="arithmetic" k2="-1" k3="1"/>
<feColorMatrix type="matrix" values="0 0 0 0 0.670937 0 0 0 0 0.68983 0 0 0 0 0.7125 0 0 0 1 0"/>
<feBlend mode="normal" in2="shape" result="effect3_innerShadow_162_1140"/>
</filter>
<filter id="filter1_i_162_1140" x="110" y="4.00146" width="40" height="41" filterUnits="userSpaceOnUse" color-interpolation-filters="sRGB">
<feFlood flood-opacity="0" result="BackgroundImageFix"/>
<feBlend mode="normal" in="SourceGraphic" in2="BackgroundImageFix" result="shape"/>
<feColorMatrix in="SourceAlpha" type="matrix" values="0 0 0 0 0 0 0 0 0 0 0 0 0 0 0 0 0 0 127 0" result="hardAlpha"/>
<feOffset dy="1"/>
<feGaussianBlur stdDeviation="1"/>
<feComposite in2="hardAlpha" operator="arithmetic" k2="-1" k3="1"/>
<feColorMatrix type="matrix" values="0 0 0 0 0.901961 0 0 0 0 0.439216 0 0 0 0 0.0352941 0 0 0 1 0"/>
<feBlend mode="normal" in2="shape" result="effect1_innerShadow_162_1140"/>
</filter>
</defs>
</svg>
