<svg width="125" height="121" viewBox="0 0 125 121" fill="none" xmlns="http://www.w3.org/2000/svg">
<path d="M102.27 82.4749C97.2186 69.7798 92.3983 57.6645 87.4196 45.156C90.7695 45.4692 93.7699 45.7491 96.8164 46.029C92.3719 30.6549 73.7762 14.7877 53.9672 14.7744C53.8551 15.9339 53.7364 17.1135 53.5913 18.5463C52.2395 18.5463 50.8745 18.5463 49.2457 18.5463C49.094 17.4 48.9226 16.1472 48.7577 14.9277C31.804 14.1413 9.52213 28.2692 4.10168 50.1008C5.28205 50.2474 6.44922 50.3873 7.80763 50.5539C7.80763 52.1133 7.80763 53.5861 7.80763 55.2055C5.96785 55.3254 4.37205 55.432 2.2619 55.5786C2.2619 61.4497 2.2619 67.1542 2.2619 72.8653C-0.0394869 66.1746 -0.395575 59.2839 0.349572 52.3799C2.29487 34.2535 9.97053 19.1927 24.9394 8.65674C40.7194 -2.45231 57.8907 -1.79256 75.0291 4.57831C93.8951 11.5889 105.976 25.4636 111.845 44.8295C112.537 47.1219 113.388 48.3348 116.006 48.3414C118.815 48.3481 121.617 48.9945 124.993 49.441C117.338 60.5701 109.985 71.2659 102.27 82.4749Z" fill="#373737"/>
<path d="M54.9563 107.092C56.618 107.279 57.6797 107.392 58.8996 107.532C58.8996 109.251 58.8996 110.871 58.8996 112.736C57.7192 112.85 56.5653 112.963 55.1079 113.103C55.1079 115.342 55.1079 117.508 55.1079 119.927C52.6615 119.927 50.5315 119.927 47.973 119.927C47.973 117.801 47.973 115.555 47.973 112.95C42.902 112.95 38.2465 112.95 33.5778 112.95C32.859 109.771 33.3734 107.325 35.1143 104.893C38.6422 99.9614 41.9129 94.8434 45.3089 89.812C48.5928 84.9472 48.606 84.9538 54.9629 85.8202C54.9563 92.8041 54.9563 99.8414 54.9563 107.092ZM40.1588 107.012C42.8229 107.012 45.2628 107.012 47.6301 107.012C47.6301 102.934 47.6301 99.175 47.6301 94.9633C44.9924 99.0284 42.6449 102.634 40.3105 106.246C40.1984 106.406 40.2248 106.652 40.1588 107.012Z" stroke="#373737" stroke-width="2" stroke-miterlimit="10"/>
<path d="M13.762 114.029C19.2483 114.029 23.8907 114.029 28.7308 114.029C28.7308 116.202 28.7308 118.014 28.7308 120.007C20.8244 120.007 13.0893 120.007 5.28179 120.007C4.41136 116.862 5.1631 114.536 7.56999 112.323C11.0517 109.118 14.1708 105.513 17.4415 102.081C17.5932 101.921 17.7449 101.761 17.8833 101.587C20.8837 98.0355 21.6618 94.3369 19.8418 92.3243C18.0614 90.3584 14.7313 90.6916 10.7748 93.224C10.2275 93.5772 9.68673 93.9371 8.83608 94.4902C7.5568 92.9974 6.2973 91.538 4.97846 90.0052C8.6976 86.36 12.9377 84.674 17.8965 84.9339C26.5218 85.3804 30.7619 92.9908 26.2844 100.468C24.5039 103.447 21.8333 105.899 19.4594 108.491C17.857 110.231 16.0699 111.797 13.762 114.029Z" stroke="#373737" stroke-width="2" stroke-miterlimit="10"/>
<path d="M101.531 91.5379C95.6819 91.5379 90.4197 91.5379 84.9333 91.5379C84.9333 89.5454 84.9333 87.7327 84.9333 85.7002C92.9124 85.7002 100.878 85.7002 109.543 85.7002C109.075 88.0726 108.976 90.3917 108.152 92.4109C104.92 100.295 101.241 107.998 98.1811 115.949C96.8887 119.301 95.2335 120.807 91.7386 120.207C90.9011 120.06 90.0175 120.187 88.6986 120.187C93.0179 110.531 97.192 101.221 101.531 91.5379Z" stroke="#373737" stroke-width="2" stroke-miterlimit="10"/>
<path d="M57.1653 57.6911C55.7278 56.3049 54.2507 54.8721 52.4768 53.1595C56.2289 49.4342 59.8425 46.0289 63.2122 42.3903C64.0694 41.464 64.6893 39.7047 64.4849 38.4918C63.5485 32.9006 68.8371 26.2165 75.972 28.469C73.8948 30.1217 71.9693 31.6544 69.7273 33.4337C72.4903 35.9928 74.3762 37.7388 76.9414 40.1112C78.2668 38.1453 79.6845 36.0394 81.465 33.4071C83.8059 40.8975 78.5833 47.1351 72.2463 45.9223C70.301 45.5491 69.2129 46.0022 67.9666 47.2884C64.6695 50.7071 61.2735 54.0325 57.9104 57.3778C57.772 57.5245 57.5214 57.5511 57.1653 57.6911Z" fill="#373737"/>
<path d="M47.4256 54.099C46.5354 54.4722 45.6518 54.8454 44.7615 55.2186C44.8341 54.972 44.9 54.7188 44.9726 54.4722C43.0536 53.7125 41.1017 53.0128 39.2224 52.1664C38.4575 51.8199 37.7585 51.2335 37.1518 50.627C32.9513 46.422 28.7574 42.2036 24.6096 37.9452C21.9126 35.1796 21.6752 32.3341 23.8315 30.055C26.1131 27.6359 28.9684 27.8225 31.8632 30.7014C36.077 34.8931 40.2511 39.1315 44.412 43.3765C45.0055 43.9829 45.5528 44.716 45.876 45.4957C46.6409 47.3083 47.2607 49.1809 47.94 51.0335C48.2763 50.9669 48.606 50.9069 48.9423 50.8403C48.54 51.8199 48.1444 52.7995 47.7421 53.7791C47.6432 53.8924 47.5377 53.9991 47.4256 54.099ZM26.4362 35.233C26.4824 37.8253 38.4377 49.8607 40.8512 49.8673C36.0901 45.0292 31.25 40.1244 26.4362 35.233ZM44.4384 46.3353C44.1549 46.6152 43.8713 46.9018 43.5878 47.1817C38.7938 42.2703 33.9932 37.3588 29.1992 32.4474C29.4432 32.2008 29.6806 31.9542 29.9245 31.7077C34.7581 36.5791 39.5983 41.4572 44.4384 46.3353Z" fill="#373737"/>
<path d="M62.1965 119.774C65.1112 111.85 68.006 103.986 70.8943 96.1162C71.6197 94.1436 72.3253 92.1644 73.0572 90.1918C75.0487 84.8605 75.0553 84.8605 81.1285 85.8868C77.8842 94.7501 74.6596 103.567 71.4284 112.377C71.046 113.416 70.6371 114.442 70.2547 115.482C68.2962 120.84 68.2962 120.84 62.1965 119.774Z" fill="#373737"/>
<path d="M46.7067 58.5707C48.5069 60.5699 49.8851 62.1027 51.7513 64.1752C49.595 66.1944 47.3398 68.2336 45.1768 70.3661C43.2579 72.2521 41.3192 73.9781 40.7389 77.0102C40.2444 79.6026 37.9298 80.9754 35.2262 80.7355C32.5423 80.5022 30.7685 78.7829 30.2409 76.1639C29.6936 73.4716 30.8344 70.8326 33.3402 70.2862C37.7584 69.3265 39.8817 65.7746 42.7963 63.1023C44.1679 61.8494 45.2494 60.2834 46.7067 58.5707ZM34.8767 79.1161C35.3712 79.1228 35.8592 79.1294 36.3538 79.1427C37.277 77.8832 38.7145 76.7303 38.9981 75.3375C39.4333 73.1717 37.9034 71.7922 35.7471 71.7123C33.4985 71.6256 32.0544 73.1051 32.3709 75.2243C32.5819 76.6171 34.0062 77.8233 34.8767 79.1161Z" fill="#373737"/>
<path d="M47.4255 54.0991C47.5376 54.0058 47.6431 53.8991 47.7421 53.7792C48.7312 54.299 49.9116 54.6255 50.6699 55.3786C56.4003 61.0497 62.0054 66.8541 67.7423 72.5119C69.0018 73.7515 70.8152 74.4179 72.0747 75.6574C73.0309 76.597 73.631 77.9765 74.1189 79.2693C74.231 79.5626 72.9518 80.8287 72.7407 80.7288C71.4219 80.109 70.0833 79.3826 69.0348 78.3897C68.1512 77.55 67.8215 76.1372 66.9642 75.2576C61.036 69.1599 55.0023 63.1622 49.0807 57.0646C48.3158 56.2715 47.9663 55.092 47.4255 54.0991Z" fill="#373737"/>
<path d="M26.436 35.233C31.2564 40.1245 36.09 45.0293 40.851 49.8674C38.4309 49.8607 26.4822 37.8187 26.436 35.233Z" fill="white"/>
<g filter="url(#filter0_d_1542_292)">
<path d="M44.4385 46.3355C39.5983 41.4573 34.7581 36.5859 29.918 31.7078C29.674 31.9543 29.4366 32.2009 29.1926 32.4475C33.9866 37.3589 38.7872 42.2704 43.5812 47.1818C43.8648 46.8952 44.1549 46.6153 44.4385 46.3355Z" fill="white"/>
</g>
<path d="M34.8767 79.116C33.9997 77.8232 32.582 76.617 32.3709 75.2242C32.0544 73.105 33.492 71.6256 35.7472 71.7122C37.9035 71.7922 39.4334 73.1717 38.9981 75.3375C38.7146 76.7303 37.277 77.8832 36.3539 79.1427C35.8659 79.1294 35.3713 79.1227 34.8767 79.116Z" fill="white"/>
<defs>
<filter id="filter0_d_1542_292" x="25.1926" y="31.7078" width="23.2458" height="23.474" filterUnits="userSpaceOnUse" color-interpolation-filters="sRGB">
<feFlood flood-opacity="0" result="BackgroundImageFix"/>
<feColorMatrix in="SourceAlpha" type="matrix" values="0 0 0 0 0 0 0 0 0 0 0 0 0 0 0 0 0 0 127 0" result="hardAlpha"/>
<feOffset dy="4"/>
<feGaussianBlur stdDeviation="2"/>
<feComposite in2="hardAlpha" operator="out"/>
<feColorMatrix type="matrix" values="0 0 0 0 0 0 0 0 0 0 0 0 0 0 0 0 0 0 0.25 0"/>
<feBlend mode="normal" in2="BackgroundImageFix" result="effect1_dropShadow_1542_292"/>
<feBlend mode="normal" in="SourceGraphic" in2="effect1_dropShadow_1542_292" result="shape"/>
</filter>
</defs>
</svg>
