<svg width="146" height="87" viewBox="0 0 146 87" fill="none" xmlns="http://www.w3.org/2000/svg">
<path d="M145.435 38.2758C146.04 37.035 145.525 35.5382 144.285 34.9326L124.064 25.0642C122.823 24.4586 121.327 24.9736 120.721 26.2144C120.115 27.4552 120.63 28.952 121.871 29.5576L139.845 38.3295L131.073 56.3032C130.467 57.544 130.982 59.0408 132.223 59.6464C133.464 60.252 134.961 59.737 135.566 58.4962L145.435 38.2758ZM89.6392 58.2465L144.001 39.5433L142.375 34.8153L88.0125 53.5185L89.6392 58.2465ZM76.9981 41.8365C71.1799 50.5375 79.7414 61.6518 89.6392 58.2465L88.0125 53.5185C82.6428 55.3659 77.998 49.3363 81.1545 44.6158L76.9981 41.8365Z" fill="#373737"/>
<path d="M77.9929 0.00704994C80.4158 0.00704994 82.8422 -0.0145405 85.265 0.0178451C86.7253 0.0358372 87.7387 0.913848 87.9894 2.26325C88.2255 3.53349 87.6043 4.71016 86.4129 5.24633C85.8971 5.47662 85.3486 5.48382 84.8001 5.48382C83.6704 5.48742 82.5371 5.50541 81.4074 5.48022C80.9279 5.46943 80.7354 5.58458 80.7608 6.10634C80.8044 7.06352 80.8408 8.03149 80.7499 8.98507C80.6773 9.74073 81.0187 9.88827 81.6544 9.93505C84.5277 10.151 87.3537 10.6763 90.0598 11.6371C104.368 16.7144 113.322 26.5633 116.282 41.3671C120.111 60.4998 108.258 79.6901 89.4024 85.3216C68.792 91.4785 47.2372 80.1831 40.7788 59.8413C33.8263 37.9522 47.971 14.5986 70.7245 10.41C71.9922 10.1761 73.278 10.0466 74.5603 9.90986C75.0797 9.85588 75.2759 9.67236 75.2505 9.1326C75.2069 8.14304 75.2069 7.14628 75.2468 6.15672C75.2722 5.57738 75.0325 5.46223 74.5131 5.47662C73.3507 5.50901 72.1847 5.49821 71.0223 5.48742C69.1698 5.46943 67.9566 4.38271 67.9566 2.75623C67.9566 1.11176 69.1661 0.0142467 71.0042 0.0106483C73.3362 0.00345153 75.6646 0.00704994 77.9929 0.00704994ZM77.9675 81.4929C96.2676 81.5361 111.277 66.7826 111.466 48.8014C111.655 30.7374 97.0849 15.3614 78.3816 15.2211C59.6565 15.0772 44.571 29.917 44.5311 48.2581C44.4911 66.5811 59.453 81.4533 77.9675 81.4929Z" fill="#373737"/>
<path d="M19.0282 50.6552C14.7713 50.6552 10.518 50.6552 6.261 50.6552C4.32967 50.6552 3.03725 49.741 3.00074 48.3496C2.96423 46.9179 4.27856 45.8984 6.20623 45.8953C14.4901 45.8922 22.7704 45.8953 31.0543 45.8984C31.5727 45.8984 32.0984 45.8643 32.6059 45.9325C34.2014 46.1463 35.125 47.203 34.9863 48.5851C34.8658 49.7751 33.7231 50.6428 32.1861 50.649C27.7977 50.6645 23.4129 50.6552 19.0282 50.6552Z" fill="#373737" stroke="#373737" stroke-width="5" stroke-miterlimit="10"/>
<path d="M23.9303 68.8219C20.6439 68.8219 17.3575 68.8257 14.0748 68.8219C12.2977 68.8182 11.0598 67.7079 11.0019 66.0909C10.944 64.4553 12.1963 63.1252 13.9662 63.1178C20.6982 63.0917 27.4303 63.0917 34.1623 63.1215C35.7801 63.1289 37.0144 64.4553 36.9999 66.0239C36.989 67.5961 35.7331 68.8145 34.079 68.8219C30.6949 68.8294 27.3144 68.8219 23.9303 68.8219Z" stroke="#373737" stroke-miterlimit="10"/>
<path d="M24.0888 28.6843C27.4388 28.6843 30.7888 28.678 34.1352 28.6875C35.812 28.6906 36.9891 29.685 36.9999 31.0665C37.0108 32.3882 35.7468 33.4425 34.1026 33.4425C27.37 33.4519 20.6373 33.4519 13.9047 33.4425C12.2242 33.4393 11.0146 32.4355 11.0001 31.0791C10.9856 29.6756 12.1808 28.6906 13.9445 28.6843C17.3235 28.678 20.7061 28.6843 24.0888 28.6843Z" stroke="#373737" stroke-miterlimit="10"/>
<path d="M44 14.2754C44.0514 12.4233 44.9514 10.547 47.1114 9.40385C49.3853 8.20161 51.6812 8.42747 53.911 9.59843C54.598 9.9598 55.1784 10.4532 55.7441 10.9709C56.1408 11.3323 56.049 11.513 55.6559 11.8083C52.5372 14.1398 49.4257 16.4887 46.3327 18.8515C45.8735 19.2024 45.6163 19.2407 45.2894 18.7229C44.5106 17.4825 44 16.1725 44 14.2754Z" fill="#373737"/>
<path d="M110.224 19.1139C106.942 16.6596 103.66 14.2018 100.378 11.7441C100.14 11.5651 99.7916 11.4343 100.162 11.0453C103.092 7.94042 108.343 7.62373 110.906 11.1038C112.6 13.3998 112.292 16.9315 110.224 19.1139Z" fill="#373737"/>
</svg>
