<svg width="145" height="91" viewBox="0 0 145 91" fill="none" xmlns="http://www.w3.org/2000/svg">
<g clip-path="url(#clip0_1542_313)">
<path d="M56.7229 59.3394C58.4273 60.381 60.1317 61.4226 61.8361 62.4553C70.1146 67.4859 78.3976 72.5164 86.6806 77.547C88.6904 78.7703 88.748 80.1887 86.8444 81.6114C82.041 85.1927 77.2421 88.7739 72.4388 92.3552C72.2972 92.4571 72.1599 92.5635 71.8854 92.7718C72.244 92.8072 72.4565 92.8516 72.669 92.8516C79.1325 92.8427 85.5959 92.8383 92.0594 92.8072C92.4667 92.8072 92.9404 92.6521 93.268 92.4083C97.5843 89.2171 101.887 86.0126 106.177 82.7859C108.346 81.1549 108.28 79.28 105.96 77.8307C104.991 77.2235 103.902 76.7936 102.826 76.3902C87.7298 70.7347 72.6248 65.0969 57.5198 59.4591C57.2807 59.3704 57.0284 59.2995 56.7849 59.2197C56.7627 59.2552 56.745 59.2995 56.7229 59.3394Z" fill="url(#paint0_linear_1542_313)"/>
<path d="M110.17 79.1913C110.467 79.475 110.799 79.7365 111.056 80.0556C112.016 81.2523 111.866 82.3338 110.64 83.2468C106.739 86.1588 102.839 89.0664 98.9435 91.9784C98.6468 92.2 98.3502 92.4304 97.8323 92.8249C98.3901 92.8249 98.669 92.8249 98.9523 92.8249C104.411 92.8249 109.869 92.8293 115.328 92.8205C116.364 92.8205 117.404 92.785 118.436 92.7274C118.715 92.7141 119.029 92.6122 119.25 92.4526C120.831 91.2958 122.416 90.1434 123.952 88.9334C125.789 87.4885 125.74 85.8796 123.841 84.5056C123.292 84.1111 122.69 83.7565 122.061 83.5172C118.139 82.0191 114.199 80.5565 110.263 79.085C110.232 79.116 110.201 79.1514 110.17 79.1913Z" fill="url(#paint1_linear_1542_313)"/>
<path d="M127.223 85.7689C127.56 86.057 127.936 86.3052 128.224 86.6332C129.091 87.6437 129.007 88.5656 127.958 89.3856C126.586 90.4537 125.182 91.4776 123.836 92.7009C131.362 92.7009 138.893 92.7009 146.489 92.7009C140.101 90.3119 133.74 87.9362 127.378 85.5605C127.325 85.6315 127.272 85.7024 127.223 85.7689Z" fill="url(#paint2_linear_1542_313)"/>
<path d="M50.3213 58.2359C50.8348 58.4796 51.3528 58.7234 51.8663 58.9672C52.7296 59.1932 53.6504 59.3306 54.0887 60.2171C57.834 61.4315 65.0987 64.8975 79.4511 68.8467C77.853 67.0472 65.0412 63.6388 59.4188 60.5318C56.2048 58.7544 53.7523 57.1411 53.9957 53.6263C54.0444 52.8995 53.8895 52.1415 53.8408 51.3969C53.6991 49.3005 52.9067 47.0977 50.9145 46.0871C48.8958 45.0633 48.8338 48.157 46.399 48.3032C48.8825 43.3435 44.4112 41.1673 40.9095 38.5523C39.1785 38.6188 41.6222 40.9235 39.5371 40.8438C37.5538 33.8009 30.0544 30.2862 25.7469 24.7015C24.3613 22.9065 22.8561 21.3552 20.5806 23.7442C19.3543 13.7495 10.8411 8.0319 4.70971 1.1176C2.52719 -1.34672 1.63736 0.838373 1.12382 2.19464C-1.89098 10.1239 -3.75918 18.0931 3.96597 25.8717C3.72249 26.6828 3.16911 26.2484 2.73969 26.1021C2.22615 25.9248 1.73475 25.6855 0.92018 25.3398C1.50455 28.8546 3.67379 31.6646 4.7894 34.7184C6.12636 38.3706 10.4029 38.9556 12.8731 41.4155C12.0232 42.5635 10.8323 40.9014 9.65469 41.9651C14.9051 46.5259 16.6317 55.151 27.2521 53.8834C26.2162 54.5748 25.1758 55.2618 24.016 56.033C26.9245 58.1472 29.6117 60.0841 33.2374 59.9733C34.4903 59.9334 34.145 60.8021 34.5301 61.3207C36.5444 64.0465 38.5322 61.1612 40.9582 61.3828C39.5238 64.7646 41.8303 65.2964 44.7211 65.2255C46.0891 65.1901 47.4792 65.0881 48.7674 64.7823C50.7419 64.3125 53.2343 63.59 53.3715 61.8216C53.4955 60.1772 50.5471 60.124 49.1349 59.1135C35.6325 52.8108 24.8792 43.8666 16.8707 32.2674C26.1365 42.9136 37.4254 51.4191 50.3213 58.2359Z" fill="url(#paint3_linear_1542_313)"/>
<path d="M57.7545 80.7781C51.7824 79.5016 46.0716 77.1924 40.6131 74.4621C37.8816 73.0926 35.2342 71.5546 32.6577 69.9191C30.0856 68.2703 27.5622 66.5373 25.1539 64.6536C22.75 62.7654 20.3993 60.8064 18.1769 58.71L17.3358 57.9343L16.5168 57.1321L14.8788 55.5276C13.8296 54.4195 12.745 53.3425 11.74 52.1901L10.2171 50.4793C9.71245 49.9075 9.23434 49.3092 8.74294 48.7241C7.75128 47.5629 6.81718 46.3529 5.88308 45.1473L5.18804 44.2387L4.51956 43.3079L3.1826 41.4464C2.30605 40.1965 1.47819 38.9156 0.623779 37.6479C1.50918 38.8934 2.36803 40.1522 3.27114 41.3799L4.64794 43.206L5.33856 44.119L6.05573 45.0099L7.48566 46.7961C7.95493 47.3944 8.46846 47.9618 8.95986 48.5424C9.46011 49.1186 9.94266 49.7081 10.4518 50.271L11.9924 51.9597C12.5015 52.527 13.0283 53.0766 13.564 53.6173L15.1533 55.2572L16.7913 56.8484L17.6103 57.6418L18.4558 58.413C20.6782 60.4917 23.0334 62.4286 25.4328 64.3034C30.2361 68.0442 35.3803 71.3463 40.7769 74.1607C43.4773 75.5702 46.2487 76.8378 49.0775 77.9636C51.8931 79.0894 54.7795 80.0999 57.7545 80.7781Z" fill="#373737"/>
<path d="M65.0944 85.8796C62.6241 85.8885 60.1627 85.5561 57.7278 85.1262C55.2974 84.6741 52.8847 84.089 50.5162 83.3533C45.7749 81.8995 41.2018 79.9183 36.85 77.5382C32.5159 75.127 28.3811 72.3436 24.5871 69.1568C20.7843 65.9833 17.2648 62.4818 14.1438 58.6613C17.6721 62.1051 21.3554 65.3584 25.2335 68.3457C25.7116 68.7269 26.2074 69.0859 26.7033 69.4449L28.1819 70.5308C29.1957 71.2178 30.1785 71.9402 31.2144 72.5874C33.2464 73.948 35.3492 75.1891 37.4875 76.368C39.6125 77.5692 41.8127 78.6329 44.0395 79.639C46.2618 80.654 48.5373 81.5449 50.8394 82.3693C53.1459 83.176 55.4878 83.894 57.8651 84.4879C60.2424 85.0907 62.6462 85.5915 65.0944 85.8796Z" fill="#373737"/>
<path d="M60.4505 89.1064C60.4505 89.1064 49.4759 91.6416 36.8633 83.504" stroke="#373737" stroke-width="0.5" stroke-miterlimit="10"/>
</g>
<defs>
<linearGradient id="paint0_linear_1542_313" x1="82.7361" y1="68.6408" x2="73.702" y2="93.4324" gradientUnits="userSpaceOnUse">
<stop stop-color="white"/>
<stop offset="0.0811393" stop-color="#373737"/>
<stop offset="0.237116" stop-color="#373737"/>
</linearGradient>
<linearGradient id="paint1_linear_1542_313" x1="114.899" y1="80.7683" x2="109.021" y2="96.8989" gradientUnits="userSpaceOnUse">
<stop stop-color="white"/>
<stop offset="0.121133" stop-color="#373737"/>
<stop offset="0.2015" stop-color="#373737"/>
</linearGradient>
<linearGradient id="paint2_linear_1542_313" x1="136.541" y1="88.9042" x2="133.83" y2="96.3452" gradientUnits="userSpaceOnUse">
<stop stop-color="white"/>
<stop offset="0.0825807" stop-color="#373737"/>
<stop offset="0.2015" stop-color="#373737"/>
</linearGradient>
<linearGradient id="paint3_linear_1542_313" x1="65.2928" y1="64.196" x2="5.5711" y2="22.4277" gradientUnits="userSpaceOnUse">
<stop offset="0.0442" stop-color="white"/>
<stop offset="0.5285" stop-color="#373737"/>
</linearGradient>
<clipPath id="clip0_1542_313">
<rect width="145" height="91" fill="white"/>
</clipPath>
</defs>
</svg>
