<svg width="631" height="269" viewBox="0 0 631 269" fill="none" xmlns="http://www.w3.org/2000/svg">
<g filter="url(#filter0_di_1775_1681)">
<circle r="102.107" transform="matrix(-1 0 0 1 136.876 134.876)" fill="white"/>
</g>
<g filter="url(#filter1_bdd_1775_1681)">
<mask id="path-2-inside-1_1775_1681" fill="white">
<path fill-rule="evenodd" clip-rule="evenodd" d="M171 25H565C590.405 25 611 45.5949 611 71C611 96.4051 590.405 117 565 117H263.026C253.618 117 246.521 125.469 246.521 134.877C246.521 195.432 197.431 244.521 136.876 244.521C76.3213 244.521 27.2317 195.432 27.2317 134.877C27.2317 74.3216 76.3213 25.232 136.876 25.232C139.024 25.232 141.157 25.2937 143.274 25.4155C152.468 25.9445 161.791 25 171 25Z"/>
</mask>
<path fill-rule="evenodd" clip-rule="evenodd" d="M171 25H565C590.405 25 611 45.5949 611 71C611 96.4051 590.405 117 565 117H263.026C253.618 117 246.521 125.469 246.521 134.877C246.521 195.432 197.431 244.521 136.876 244.521C76.3213 244.521 27.2317 195.432 27.2317 134.877C27.2317 74.3216 76.3213 25.232 136.876 25.232C139.024 25.232 141.157 25.2937 143.274 25.4155C152.468 25.9445 161.791 25 171 25Z" fill="white" fill-opacity="0.1" shape-rendering="crispEdges"/>
<path d="M143.274 25.4155L143.331 24.4172L143.274 25.4155ZM565 26H171V24H565V26ZM263.026 116H565V118H263.026V116ZM136.876 243.521C196.879 243.521 245.521 194.879 245.521 134.877H247.521C247.521 195.984 197.984 245.521 136.876 245.521V243.521ZM28.2317 134.877C28.2317 194.879 76.8736 243.521 136.876 243.521V245.521C75.769 245.521 26.2317 195.984 26.2317 134.877H28.2317ZM136.876 26.232C76.8736 26.232 28.2317 74.8739 28.2317 134.877H26.2317C26.2317 73.7693 75.769 24.232 136.876 24.232V26.232ZM143.216 26.4139C141.118 26.2932 139.005 26.232 136.876 26.232V24.232C139.043 24.232 141.195 24.2943 143.331 24.4172L143.216 26.4139ZM143.331 24.4172C147.879 24.6788 152.469 24.5766 157.095 24.4068C161.706 24.2375 166.371 24 171 24V26C166.42 26 161.818 26.2347 157.168 26.4055C152.531 26.5757 147.863 26.6812 143.216 26.4139L143.331 24.4172ZM263.026 118C254.271 118 247.521 125.915 247.521 134.877H245.521C245.521 125.023 252.965 116 263.026 116V118ZM612 71C612 96.9574 590.957 118 565 118V116C589.853 116 610 95.8528 610 71H612ZM565 24C590.957 24 612 45.0426 612 71H610C610 46.1472 589.853 26 565 26V24Z" fill="url(#paint0_linear_1775_1681)" mask="url(#path-2-inside-1_1775_1681)"/>
</g>
<path d="M293.52 82V60.5547H297.006V82H293.52ZM304.931 82H301.752V68.1133H304.74V70.3838C305.375 69.417 306.093 68.7139 306.894 68.2744C307.704 67.8252 308.656 67.6006 309.75 67.6006C310.834 67.6006 311.732 67.8301 312.445 68.2891C313.158 68.7383 313.7 69.4268 314.071 70.3545C314.804 69.3975 315.58 68.6992 316.4 68.2598C317.23 67.8203 318.173 67.6006 319.228 67.6006C320.146 67.6006 320.946 67.7715 321.63 68.1133C322.313 68.4453 322.846 68.9336 323.227 69.5781C323.402 69.8809 323.529 70.2422 323.607 70.6621C323.695 71.082 323.739 71.6826 323.739 72.4639V73.5771V82H320.561V74.8662C320.561 73.001 320.36 71.7754 319.96 71.1895C319.569 70.5938 318.866 70.2959 317.851 70.2959C316.601 70.2959 315.707 70.6963 315.17 71.4971C314.643 72.2881 314.379 73.6797 314.379 75.6719V82H311.171V74.8662C311.171 73.1475 310.961 71.9561 310.541 71.292C310.131 70.6279 309.418 70.2959 308.402 70.2959C307.777 70.2959 307.206 70.4375 306.688 70.7207C306.171 71.0039 305.761 71.3945 305.458 71.8926C305.263 72.2148 305.126 72.6104 305.048 73.0791C304.97 73.5479 304.931 74.4121 304.931 75.6719V82ZM331.181 82H328.002V68.1133H330.99V70.3838C331.625 69.417 332.343 68.7139 333.144 68.2744C333.954 67.8252 334.906 67.6006 336 67.6006C337.084 67.6006 337.982 67.8301 338.695 68.2891C339.408 68.7383 339.95 69.4268 340.321 70.3545C341.054 69.3975 341.83 68.6992 342.65 68.2598C343.48 67.8203 344.423 67.6006 345.478 67.6006C346.396 67.6006 347.196 67.7715 347.88 68.1133C348.563 68.4453 349.096 68.9336 349.477 69.5781C349.652 69.8809 349.779 70.2422 349.857 70.6621C349.945 71.082 349.989 71.6826 349.989 72.4639V73.5771V82H346.811V74.8662C346.811 73.001 346.61 71.7754 346.21 71.1895C345.819 70.5938 345.116 70.2959 344.101 70.2959C342.851 70.2959 341.957 70.6963 341.42 71.4971C340.893 72.2881 340.629 73.6797 340.629 75.6719V82H337.421V74.8662C337.421 73.1475 337.211 71.9561 336.791 71.292C336.381 70.6279 335.668 70.2959 334.652 70.2959C334.027 70.2959 333.456 70.4375 332.938 70.7207C332.421 71.0039 332.011 71.3945 331.708 71.8926C331.513 72.2148 331.376 72.6104 331.298 73.0791C331.22 73.5479 331.181 74.4121 331.181 75.6719V82ZM367.626 75.5254H356.522C356.601 76.8242 356.986 77.8398 357.68 78.5723C358.373 79.2949 359.296 79.6562 360.448 79.6562C361.474 79.6562 362.328 79.4414 363.012 79.0117C363.695 78.582 364.291 77.8887 364.799 76.9316L367.479 78.4258C366.698 79.8223 365.731 80.8623 364.579 81.5459C363.427 82.2295 362.074 82.5713 360.521 82.5713C358.295 82.5713 356.522 81.8926 355.204 80.5352C353.886 79.1777 353.227 77.3662 353.227 75.1006C353.227 72.9229 353.905 71.1357 355.263 69.7393C356.63 68.333 358.383 67.6299 360.521 67.6299C362.758 67.6299 364.501 68.2695 365.751 69.5488C367.001 70.8281 367.626 72.6201 367.626 74.9248V75.5254ZM364.33 73.3867C364.203 72.3906 363.822 71.6338 363.188 71.1162C362.553 70.5889 361.684 70.3252 360.58 70.3252C359.535 70.3252 358.695 70.5791 358.061 71.0869C357.426 71.5947 356.981 72.3613 356.728 73.3867H364.33ZM380.927 75.0127C380.927 73.5771 380.59 72.459 379.916 71.6582C379.252 70.8574 378.319 70.457 377.118 70.457C375.917 70.457 374.97 70.8721 374.276 71.7021C373.593 72.5225 373.251 73.665 373.251 75.1299C373.251 76.6045 373.583 77.7422 374.247 78.543C374.911 79.3438 375.849 79.7441 377.06 79.7441C378.212 79.7441 379.145 79.3145 379.857 78.4551C380.57 77.5859 380.927 76.4385 380.927 75.0127ZM380.839 59.2949H384.018V82H380.839V80.1982C380.272 80.999 379.608 81.5947 378.847 81.9854C378.095 82.376 377.23 82.5713 376.254 82.5713C374.291 82.5713 372.743 81.9023 371.61 80.5645C370.487 79.2168 369.926 77.376 369.926 75.042C369.926 72.8252 370.502 71.0381 371.654 69.6807C372.807 68.3135 374.311 67.6299 376.166 67.6299C377.299 67.6299 378.266 67.8691 379.066 68.3477C379.877 68.8164 380.468 69.4951 380.839 70.3838V59.2949ZM388.134 62.1074C388.134 61.5703 388.329 61.1064 388.72 60.7158C389.12 60.3252 389.594 60.1299 390.141 60.1299C390.707 60.1299 391.176 60.3203 391.547 60.7012C391.928 61.0723 392.118 61.541 392.118 62.1074C392.118 62.6738 391.928 63.1523 391.547 63.543C391.166 63.9238 390.697 64.1143 390.141 64.1143C389.594 64.1143 389.12 63.9189 388.72 63.5283C388.329 63.1279 388.134 62.6543 388.134 62.1074ZM388.559 82V68.1133H391.737V82H388.559ZM409.359 82H406.181V80.1982C405.614 80.999 404.95 81.5947 404.188 81.9854C403.437 82.376 402.572 82.5713 401.596 82.5713C399.633 82.5713 398.085 81.9023 396.952 80.5645C395.829 79.2168 395.268 77.376 395.268 75.042C395.268 72.8252 395.844 71.0381 396.996 69.6807C398.148 68.3135 399.652 67.6299 401.508 67.6299C402.641 67.6299 403.607 67.8691 404.408 68.3477C405.219 68.8164 405.81 69.4951 406.181 70.3838V68.1133H409.359V82ZM406.269 75.0127C406.269 73.5771 405.932 72.459 405.258 71.6582C404.594 70.8574 403.661 70.457 402.46 70.457C401.259 70.457 400.312 70.8721 399.618 71.7021C398.935 72.5225 398.593 73.665 398.593 75.1299C398.593 76.6045 398.925 77.7422 399.589 78.543C400.253 79.3438 401.19 79.7441 402.401 79.7441C403.544 79.7441 404.472 79.3096 405.185 78.4404C405.907 77.5713 406.269 76.4287 406.269 75.0127ZM414.501 82V70.8965H412.069V68.1133H414.501V62.8545H417.68V68.1133H420.111V70.8965H417.68V82H414.501ZM436.239 75.5254H425.136C425.214 76.8242 425.6 77.8398 426.293 78.5723C426.986 79.2949 427.909 79.6562 429.062 79.6562C430.087 79.6562 430.941 79.4414 431.625 79.0117C432.309 78.582 432.904 77.8887 433.412 76.9316L436.093 78.4258C435.312 79.8223 434.345 80.8623 433.192 81.5459C432.04 82.2295 430.688 82.5713 429.135 82.5713C426.908 82.5713 425.136 81.8926 423.817 80.5352C422.499 79.1777 421.84 77.3662 421.84 75.1006C421.84 72.9229 422.519 71.1357 423.876 69.7393C425.243 68.333 426.996 67.6299 429.135 67.6299C431.371 67.6299 433.114 68.2695 434.364 69.5488C435.614 70.8281 436.239 72.6201 436.239 74.9248V75.5254ZM432.943 73.3867C432.816 72.3906 432.436 71.6338 431.801 71.1162C431.166 70.5889 430.297 70.3252 429.193 70.3252C428.148 70.3252 427.309 70.5791 426.674 71.0869C426.039 71.5947 425.595 72.3613 425.341 73.3867H432.943ZM453.407 73.5771H459.384L457.187 68.6846C457.06 68.3721 456.928 68.0156 456.791 67.6152C456.654 67.2051 456.518 66.751 456.381 66.2529C456.264 66.7217 456.137 67.1611 456 67.5713C455.873 67.9717 455.741 68.3428 455.604 68.6846L453.407 73.5771ZM463.046 82L460.614 76.4775H452.118L449.628 82H445.966L456.352 59.7051L466.723 82H463.046ZM478.852 72.0684C478.363 71.5312 477.792 71.1211 477.138 70.8379C476.493 70.5547 475.795 70.4131 475.043 70.4131C473.744 70.4131 472.704 70.833 471.923 71.6729C471.142 72.5127 470.751 73.626 470.751 75.0127C470.751 76.458 471.142 77.5957 471.923 78.4258C472.714 79.2461 473.803 79.6562 475.189 79.6562C475.961 79.6562 476.649 79.5146 477.255 79.2314C477.86 78.9385 478.393 78.499 478.852 77.9131V81.5752C478.266 81.9072 477.636 82.1562 476.962 82.3223C476.298 82.4883 475.59 82.5713 474.838 82.5713C472.66 82.5713 470.883 81.8779 469.506 80.4912C468.139 79.1045 467.455 77.3076 467.455 75.1006C467.455 72.8643 468.163 71.0625 469.579 69.6953C471.005 68.3184 472.865 67.6299 475.16 67.6299C475.883 67.6299 476.547 67.7031 477.152 67.8496C477.758 67.9863 478.324 68.2012 478.852 68.4941V72.0684ZM492.475 72.0684C491.986 71.5312 491.415 71.1211 490.761 70.8379C490.116 70.5547 489.418 70.4131 488.666 70.4131C487.367 70.4131 486.327 70.833 485.546 71.6729C484.765 72.5127 484.374 73.626 484.374 75.0127C484.374 76.458 484.765 77.5957 485.546 78.4258C486.337 79.2461 487.426 79.6562 488.812 79.6562C489.584 79.6562 490.272 79.5146 490.878 79.2314C491.483 78.9385 492.016 78.499 492.475 77.9131V81.5752C491.889 81.9072 491.259 82.1562 490.585 82.3223C489.921 82.4883 489.213 82.5713 488.461 82.5713C486.283 82.5713 484.506 81.8779 483.129 80.4912C481.762 79.1045 481.078 77.3076 481.078 75.1006C481.078 72.8643 481.786 71.0625 483.202 69.6953C484.628 68.3184 486.488 67.6299 488.783 67.6299C489.506 67.6299 490.17 67.7031 490.775 67.8496C491.381 67.9863 491.947 68.2012 492.475 68.4941V72.0684ZM509.101 75.5254H497.997C498.075 76.8242 498.461 77.8398 499.154 78.5723C499.848 79.2949 500.771 79.6562 501.923 79.6562C502.948 79.6562 503.803 79.4414 504.486 79.0117C505.17 78.582 505.766 77.8887 506.273 76.9316L508.954 78.4258C508.173 79.8223 507.206 80.8623 506.054 81.5459C504.901 82.2295 503.549 82.5713 501.996 82.5713C499.77 82.5713 497.997 81.8926 496.679 80.5352C495.36 79.1777 494.701 77.3662 494.701 75.1006C494.701 72.9229 495.38 71.1357 496.737 69.7393C498.104 68.333 499.857 67.6299 501.996 67.6299C504.232 67.6299 505.976 68.2695 507.226 69.5488C508.476 70.8281 509.101 72.6201 509.101 74.9248V75.5254ZM505.805 73.3867C505.678 72.3906 505.297 71.6338 504.662 71.1162C504.027 70.5889 503.158 70.3252 502.055 70.3252C501.01 70.3252 500.17 70.5791 499.535 71.0869C498.9 71.5947 498.456 72.3613 498.202 73.3867H505.805ZM510.829 79.4805L513.466 78.0449C513.661 78.7383 514.022 79.2656 514.55 79.627C515.077 79.9883 515.756 80.1689 516.586 80.1689C517.299 80.1689 517.855 80.0078 518.256 79.6855C518.666 79.3535 518.871 78.9043 518.871 78.3379C518.871 77.5859 518.148 76.9414 516.703 76.4043C516.215 76.2285 515.839 76.082 515.575 75.9648C514.091 75.3496 513.051 74.7246 512.455 74.0898C511.869 73.4551 511.576 72.6836 511.576 71.7754C511.576 70.5352 512.06 69.5293 513.026 68.7578C514.003 67.9863 515.292 67.6006 516.894 67.6006C517.968 67.6006 518.886 67.8008 519.647 68.2012C520.419 68.5918 520.98 69.1533 521.332 69.8857L519.076 71.4385C518.91 70.999 518.617 70.6523 518.197 70.3984C517.787 70.1348 517.309 70.0029 516.762 70.0029C516.156 70.0029 515.668 70.1494 515.297 70.4424C514.936 70.7256 514.755 71.1064 514.755 71.585C514.755 72.3076 515.575 72.9668 517.216 73.5625C517.733 73.748 518.134 73.8994 518.417 74.0166C519.696 74.5244 520.609 75.1006 521.156 75.7451C521.713 76.3799 521.991 77.1758 521.991 78.1328C521.991 79.5195 521.488 80.6084 520.482 81.3994C519.477 82.1807 518.09 82.5713 516.322 82.5713C514.965 82.5713 513.837 82.3174 512.938 81.8096C512.04 81.3018 511.337 80.5254 510.829 79.4805ZM523.603 79.4805L526.239 78.0449C526.435 78.7383 526.796 79.2656 527.323 79.627C527.851 79.9883 528.529 80.1689 529.359 80.1689C530.072 80.1689 530.629 80.0078 531.029 79.6855C531.439 79.3535 531.645 78.9043 531.645 78.3379C531.645 77.5859 530.922 76.9414 529.477 76.4043C528.988 76.2285 528.612 76.082 528.349 75.9648C526.864 75.3496 525.824 74.7246 525.229 74.0898C524.643 73.4551 524.35 72.6836 524.35 71.7754C524.35 70.5352 524.833 69.5293 525.8 68.7578C526.776 67.9863 528.065 67.6006 529.667 67.6006C530.741 67.6006 531.659 67.8008 532.421 68.2012C533.192 68.5918 533.754 69.1533 534.105 69.8857L531.85 71.4385C531.684 70.999 531.391 70.6523 530.971 70.3984C530.561 70.1348 530.082 70.0029 529.535 70.0029C528.93 70.0029 528.441 70.1494 528.07 70.4424C527.709 70.7256 527.528 71.1064 527.528 71.585C527.528 72.3076 528.349 72.9668 529.989 73.5625C530.507 73.748 530.907 73.8994 531.19 74.0166C532.47 74.5244 533.383 75.1006 533.93 75.7451C534.486 76.3799 534.765 77.1758 534.765 78.1328C534.765 79.5195 534.262 80.6084 533.256 81.3994C532.25 82.1807 530.863 82.5713 529.096 82.5713C527.738 82.5713 526.61 82.3174 525.712 81.8096C524.813 81.3018 524.11 80.5254 523.603 79.4805Z" fill="#373737"/>
<g filter="url(#filter2_bdi_1775_1681)">
<circle r="94.5685" transform="matrix(-0.492424 -0.870356 -0.870356 0.492424 136.876 134.876)" fill="white" fill-opacity="0.1" shape-rendering="crispEdges"/>
<circle r="94.0685" transform="matrix(-0.492424 -0.870356 -0.870356 0.492424 136.876 134.876)" stroke="url(#paint1_linear_1775_1681)" shape-rendering="crispEdges"/>
</g>
<g clip-path="url(#clip0_1775_1681)" filter="url(#filter3_d_1775_1681)">
<path d="M96.3425 154.333C98.2901 154.333 99.9665 154.333 102.088 154.333C102.088 160.032 102.088 152.911 102.088 155.939C102.088 158.01 102.061 154.625 102.099 156.696C102.202 162.834 106.151 166.835 112.347 166.879C121.933 166.949 131.519 166.9 141.105 166.9C151.955 166.9 162.811 166.906 173.661 166.9C180.85 166.895 184.761 163.018 184.761 155.923C184.766 141.587 184.772 127.251 184.756 112.915C184.75 106.107 180.806 102.132 174.025 102.127C153.588 102.111 133.146 102.111 112.71 102.132C106.059 102.127 102.147 106.058 102.093 112.742C102.055 117.588 102.088 119.621 102.088 124.596C100.091 124.596 98.404 124.596 96.0875 124.596C96.3696 118.004 96.0875 114.202 97.0912 107.789C98.1165 101.278 104.61 96.6057 111.289 96.5895C132.723 96.53 154.158 96.5192 175.593 96.5949C183.204 96.622 189.53 102.619 190.295 110.206C190.403 111.282 190.441 112.364 190.441 113.445C190.452 127.603 190.468 141.76 190.452 155.912C190.436 166.127 184.121 172.432 173.878 172.443C153.442 172.465 133 172.465 112.564 172.443C102.923 172.432 96.4185 165.938 96.3588 156.328C96.3208 151.396 96.3425 159.432 96.3425 154.333Z" stroke="#373737" stroke-width="2" stroke-miterlimit="10"/>
<g filter="url(#filter4_d_1775_1681)">
<path d="M156.29 134.292C154.999 133.399 153.708 132.518 152.427 131.615C152.102 131.382 151.641 131.134 151.559 130.815C151.451 130.387 151.532 129.803 151.766 129.436C151.879 129.252 152.628 129.241 152.91 129.43C155.438 131.101 157.934 132.81 160.413 134.551C161.287 135.168 161.292 136.033 160.424 136.65C157.95 138.391 155.455 140.11 152.921 141.765C152.628 141.96 151.858 141.868 151.619 141.614C151.12 141.089 151.288 140.424 151.879 139.986C152.742 139.348 153.637 138.764 154.516 138.153C155.118 137.736 155.72 137.32 156.599 136.709C155.883 136.677 155.471 136.639 155.059 136.639C146.921 136.633 138.783 136.633 130.646 136.633C130.315 136.633 129.897 136.747 129.664 136.59C129.268 136.32 128.779 135.909 128.725 135.503C128.687 135.222 129.268 134.778 129.658 134.546C129.908 134.4 130.309 134.513 130.64 134.513C138.778 134.513 146.915 134.513 155.053 134.513C155.444 134.513 155.829 134.513 156.22 134.513C156.247 134.438 156.268 134.367 156.29 134.292Z" fill="#373737"/>
</g>
<g filter="url(#filter5_d_1775_1681)">
<path d="M89.4743 147.86C87.8143 149.596 86.2573 151.288 84.6134 152.894C84.2011 153.294 83.523 153.624 82.9642 153.63C81.5971 153.646 80.8593 152.402 81.2716 150.964C82.0962 148.065 82.91 145.161 83.7726 142.274C83.9516 141.668 83.8756 141.365 83.3114 141.014C78.9225 138.267 74.5607 135.471 70.1826 132.702C69.4068 132.21 68.886 131.604 69.0271 130.631C69.179 129.593 69.8897 129.155 70.8608 128.933C85.2862 125.623 99.7115 122.292 114.137 118.977C114.495 118.896 114.869 118.799 115.227 118.826C116.567 118.939 117.332 120.183 116.812 121.497C115.802 124.055 114.734 126.586 113.687 129.128C112.14 132.891 110.594 136.655 109.048 140.419C107.518 144.128 105.983 147.838 104.448 151.548C103.498 153.841 102.565 156.144 101.599 158.432C100.948 159.978 99.2233 160.211 98.1708 158.886C95.442 155.441 92.7403 151.986 90.0223 148.536C89.8595 148.33 89.6914 148.13 89.4743 147.86ZM99.245 154.052C103.314 144.166 107.323 134.438 111.327 124.704C111.267 124.666 111.202 124.628 111.142 124.59C103.585 129.814 96.0225 135.044 88.4327 140.289C92.035 144.875 95.5776 149.379 99.245 154.052ZM107.811 124.515C107.795 124.466 107.773 124.417 107.757 124.369C97.1672 126.813 86.5773 129.252 75.8139 131.734C79.5735 134.119 83.1378 136.395 86.7238 138.629C86.9245 138.753 87.3803 138.667 87.6027 138.515C94.1725 134 100.726 129.468 107.28 124.937C107.459 124.801 107.632 124.65 107.811 124.515Z" fill="#373737"/>
</g>
<path d="M124.217 136.882C124.876 136.882 125.41 136.349 125.41 135.692C125.41 135.035 124.876 134.503 124.217 134.503C123.558 134.503 123.023 135.035 123.023 135.692C123.023 136.349 123.558 136.882 124.217 136.882Z" fill="#373737"/>
<path d="M119.47 136.531C119.934 136.531 120.311 136.155 120.311 135.692C120.311 135.23 119.934 134.854 119.47 134.854C119.005 134.854 118.629 135.23 118.629 135.692C118.629 136.155 119.005 136.531 119.47 136.531Z" fill="#373737"/>
<path d="M115.792 136.228C116.088 136.228 116.329 135.988 116.329 135.693C116.329 135.397 116.088 135.157 115.792 135.157C115.495 135.157 115.255 135.397 115.255 135.693C115.255 135.988 115.495 136.228 115.792 136.228Z" fill="#373737"/>
</g>
<defs>
<filter id="filter0_di_1775_1681" x="0.769775" y="0.769287" width="315.213" height="244.213" filterUnits="userSpaceOnUse" color-interpolation-filters="sRGB">
<feFlood flood-opacity="0" result="BackgroundImageFix"/>
<feColorMatrix in="SourceAlpha" type="matrix" values="0 0 0 0 0 0 0 0 0 0 0 0 0 0 0 0 0 0 127 0" result="hardAlpha"/>
<feOffset dx="-14" dy="-12"/>
<feGaussianBlur stdDeviation="10"/>
<feComposite in2="hardAlpha" operator="out"/>
<feColorMatrix type="matrix" values="0 0 0 0 1 0 0 0 0 1 0 0 0 0 1 0 0 0 1 0"/>
<feBlend mode="normal" in2="BackgroundImageFix" result="effect1_dropShadow_1775_1681"/>
<feBlend mode="normal" in="SourceGraphic" in2="effect1_dropShadow_1775_1681" result="shape"/>
<feColorMatrix in="SourceAlpha" type="matrix" values="0 0 0 0 0 0 0 0 0 0 0 0 0 0 0 0 0 0 127 0" result="hardAlpha"/>
<feOffset dx="77" dy="4"/>
<feGaussianBlur stdDeviation="50"/>
<feComposite in2="hardAlpha" operator="arithmetic" k2="-1" k3="1"/>
<feColorMatrix type="matrix" values="0 0 0 0 0 0 0 0 0 0 0 0 0 0 0 0 0 0 0.25 0"/>
<feBlend mode="normal" in2="shape" result="effect2_innerShadow_1775_1681"/>
</filter>
<filter id="filter1_bdd_1775_1681" x="7.23169" y="5" width="623.768" height="263.521" filterUnits="userSpaceOnUse" color-interpolation-filters="sRGB">
<feFlood flood-opacity="0" result="BackgroundImageFix"/>
<feGaussianBlur in="BackgroundImageFix" stdDeviation="10"/>
<feComposite in2="SourceAlpha" operator="in" result="effect1_backgroundBlur_1775_1681"/>
<feColorMatrix in="SourceAlpha" type="matrix" values="0 0 0 0 0 0 0 0 0 0 0 0 0 0 0 0 0 0 127 0" result="hardAlpha"/>
<feOffset dy="2"/>
<feGaussianBlur stdDeviation="2.5"/>
<feComposite in2="hardAlpha" operator="out"/>
<feColorMatrix type="matrix" values="0 0 0 0 0 0 0 0 0 0 0 0 0 0 0 0 0 0 0.1 0"/>
<feBlend mode="normal" in2="effect1_backgroundBlur_1775_1681" result="effect2_dropShadow_1775_1681"/>
<feColorMatrix in="SourceAlpha" type="matrix" values="0 0 0 0 0 0 0 0 0 0 0 0 0 0 0 0 0 0 127 0" result="hardAlpha"/>
<feOffset dy="4"/>
<feGaussianBlur stdDeviation="10"/>
<feComposite in2="hardAlpha" operator="out"/>
<feColorMatrix type="matrix" values="0 0 0 0 0 0 0 0 0 0 0 0 0 0 0 0 0 0 0.15 0"/>
<feBlend mode="normal" in2="effect2_dropShadow_1775_1681" result="effect3_dropShadow_1775_1681"/>
<feBlend mode="normal" in="SourceGraphic" in2="effect3_dropShadow_1775_1681" result="shape"/>
</filter>
<filter id="filter2_bdi_1775_1681" x="37.2909" y="35.2908" width="199.17" height="201.17" filterUnits="userSpaceOnUse" color-interpolation-filters="sRGB">
<feFlood flood-opacity="0" result="BackgroundImageFix"/>
<feGaussianBlur in="BackgroundImageFix" stdDeviation="2.5"/>
<feComposite in2="SourceAlpha" operator="in" result="effect1_backgroundBlur_1775_1681"/>
<feColorMatrix in="SourceAlpha" type="matrix" values="0 0 0 0 0 0 0 0 0 0 0 0 0 0 0 0 0 0 127 0" result="hardAlpha"/>
<feOffset dy="2"/>
<feGaussianBlur stdDeviation="2.5"/>
<feComposite in2="hardAlpha" operator="out"/>
<feColorMatrix type="matrix" values="0 0 0 0 0 0 0 0 0 0 0 0 0 0 0 0 0 0 0.1 0"/>
<feBlend mode="normal" in2="effect1_backgroundBlur_1775_1681" result="effect2_dropShadow_1775_1681"/>
<feBlend mode="normal" in="SourceGraphic" in2="effect2_dropShadow_1775_1681" result="shape"/>
<feColorMatrix in="SourceAlpha" type="matrix" values="0 0 0 0 0 0 0 0 0 0 0 0 0 0 0 0 0 0 127 0" result="hardAlpha"/>
<feOffset dx="5"/>
<feGaussianBlur stdDeviation="2.5"/>
<feComposite in2="hardAlpha" operator="arithmetic" k2="-1" k3="1"/>
<feColorMatrix type="matrix" values="0 0 0 0 0.976471 0 0 0 0 0.572549 0 0 0 0 0.180392 0 0 0 1 0"/>
<feBlend mode="normal" in2="shape" result="effect3_innerShadow_1775_1681"/>
</filter>
<filter id="filter3_d_1775_1681" x="65" y="96" width="130" height="85" filterUnits="userSpaceOnUse" color-interpolation-filters="sRGB">
<feFlood flood-opacity="0" result="BackgroundImageFix"/>
<feColorMatrix in="SourceAlpha" type="matrix" values="0 0 0 0 0 0 0 0 0 0 0 0 0 0 0 0 0 0 127 0" result="hardAlpha"/>
<feOffset dy="4"/>
<feGaussianBlur stdDeviation="2"/>
<feComposite in2="hardAlpha" operator="out"/>
<feColorMatrix type="matrix" values="0 0 0 0 0 0 0 0 0 0 0 0 0 0 0 0 0 0 0.25 0"/>
<feBlend mode="normal" in2="BackgroundImageFix" result="effect1_dropShadow_1775_1681"/>
<feBlend mode="normal" in="SourceGraphic" in2="effect1_dropShadow_1775_1681" result="shape"/>
</filter>
<filter id="filter4_d_1775_1681" x="124.723" y="129.293" width="40.3484" height="20.5769" filterUnits="userSpaceOnUse" color-interpolation-filters="sRGB">
<feFlood flood-opacity="0" result="BackgroundImageFix"/>
<feColorMatrix in="SourceAlpha" type="matrix" values="0 0 0 0 0 0 0 0 0 0 0 0 0 0 0 0 0 0 127 0" result="hardAlpha"/>
<feOffset dy="4"/>
<feGaussianBlur stdDeviation="2"/>
<feComposite in2="hardAlpha" operator="out"/>
<feColorMatrix type="matrix" values="0 0 0 0 0 0 0 0 0 0 0 0 0 0 0 0 0 0 0.25 0"/>
<feBlend mode="normal" in2="BackgroundImageFix" result="effect1_dropShadow_1775_1681"/>
<feBlend mode="normal" in="SourceGraphic" in2="effect1_dropShadow_1775_1681" result="shape"/>
</filter>
<filter id="filter5_d_1775_1681" x="65.004" y="118.821" width="55.9722" height="48.9297" filterUnits="userSpaceOnUse" color-interpolation-filters="sRGB">
<feFlood flood-opacity="0" result="BackgroundImageFix"/>
<feColorMatrix in="SourceAlpha" type="matrix" values="0 0 0 0 0 0 0 0 0 0 0 0 0 0 0 0 0 0 127 0" result="hardAlpha"/>
<feOffset dy="4"/>
<feGaussianBlur stdDeviation="2"/>
<feComposite in2="hardAlpha" operator="out"/>
<feColorMatrix type="matrix" values="0 0 0 0 0 0 0 0 0 0 0 0 0 0 0 0 0 0 0.25 0"/>
<feBlend mode="normal" in2="BackgroundImageFix" result="effect1_dropShadow_1775_1681"/>
<feBlend mode="normal" in="SourceGraphic" in2="effect1_dropShadow_1775_1681" result="shape"/>
</filter>
<linearGradient id="paint0_linear_1775_1681" x1="124.82" y1="20.3162" x2="-393.946" y2="331.874" gradientUnits="userSpaceOnUse">
<stop offset="0.21826" stop-color="white"/>
<stop offset="0.69101" stop-color="white" stop-opacity="0"/>
</linearGradient>
<linearGradient id="paint1_linear_1775_1681" x1="31.0458" y1="-4.23931" x2="205.606" y2="26.7678" gradientUnits="userSpaceOnUse">
<stop offset="0.21826" stop-color="white"/>
<stop offset="0.69101" stop-color="white" stop-opacity="0"/>
</linearGradient>
<clipPath id="clip0_1775_1681">
<rect width="122" height="77" fill="white" transform="translate(69 96)"/>
</clipPath>
</defs>
</svg>
