<svg width="631" height="269" viewBox="0 0 631 269" fill="none" xmlns="http://www.w3.org/2000/svg">
<g filter="url(#filter0_di_1775_1404)">
<circle r="102.107" transform="matrix(-1 0 0 1 136.876 134.876)" fill="white"/>
</g>
<g filter="url(#filter1_bdd_1775_1404)">
<mask id="path-2-inside-1_1775_1404" fill="white">
<path fill-rule="evenodd" clip-rule="evenodd" d="M171 25H565C590.405 25 611 45.5949 611 71C611 96.4051 590.405 117 565 117H263.026C253.618 117 246.521 125.469 246.521 134.877C246.521 195.432 197.431 244.521 136.876 244.521C76.3213 244.521 27.2317 195.432 27.2317 134.877C27.2317 74.3216 76.3213 25.232 136.876 25.232C139.024 25.232 141.157 25.2937 143.274 25.4155C152.468 25.9445 161.791 25 171 25Z"/>
</mask>
<path fill-rule="evenodd" clip-rule="evenodd" d="M171 25H565C590.405 25 611 45.5949 611 71C611 96.4051 590.405 117 565 117H263.026C253.618 117 246.521 125.469 246.521 134.877C246.521 195.432 197.431 244.521 136.876 244.521C76.3213 244.521 27.2317 195.432 27.2317 134.877C27.2317 74.3216 76.3213 25.232 136.876 25.232C139.024 25.232 141.157 25.2937 143.274 25.4155C152.468 25.9445 161.791 25 171 25Z" fill="white" fill-opacity="0.1" shape-rendering="crispEdges"/>
<path d="M143.274 25.4155L143.331 24.4172L143.274 25.4155ZM565 26H171V24H565V26ZM263.026 116H565V118H263.026V116ZM136.876 243.521C196.879 243.521 245.521 194.879 245.521 134.877H247.521C247.521 195.984 197.984 245.521 136.876 245.521V243.521ZM28.2317 134.877C28.2317 194.879 76.8736 243.521 136.876 243.521V245.521C75.769 245.521 26.2317 195.984 26.2317 134.877H28.2317ZM136.876 26.232C76.8736 26.232 28.2317 74.8739 28.2317 134.877H26.2317C26.2317 73.7693 75.769 24.232 136.876 24.232V26.232ZM143.216 26.4139C141.118 26.2932 139.005 26.232 136.876 26.232V24.232C139.043 24.232 141.195 24.2943 143.331 24.4172L143.216 26.4139ZM143.331 24.4172C147.879 24.6788 152.469 24.5766 157.095 24.4068C161.706 24.2375 166.371 24 171 24V26C166.42 26 161.818 26.2347 157.168 26.4055C152.531 26.5757 147.863 26.6812 143.216 26.4139L143.331 24.4172ZM263.026 118C254.271 118 247.521 125.915 247.521 134.877H245.521C245.521 125.023 252.965 116 263.026 116V118ZM612 71C612 96.9574 590.957 118 565 118V116C589.853 116 610 95.8528 610 71H612ZM565 24C590.957 24 612 45.0426 612 71H610C610 46.1472 589.853 26 565 26V24Z" fill="url(#paint0_linear_1775_1404)" mask="url(#path-2-inside-1_1775_1404)"/>
</g>
<path d="M351.461 82V60.5547H354.947V78.8799H362.74V82H351.461ZM376.231 75.1006C376.231 73.8115 375.816 72.7227 374.986 71.834C374.156 70.9355 373.141 70.4863 371.939 70.4863C370.748 70.4863 369.732 70.9355 368.893 71.834C368.062 72.7227 367.647 73.8115 367.647 75.1006C367.647 76.3896 368.062 77.4834 368.893 78.3818C369.732 79.2705 370.748 79.7148 371.939 79.7148C373.131 79.7148 374.142 79.2705 374.972 78.3818C375.812 77.4834 376.231 76.3896 376.231 75.1006ZM364.293 75.0713C364.293 74.0557 364.483 73.0986 364.864 72.2002C365.255 71.292 365.812 70.4863 366.534 69.7832C367.247 69.0898 368.067 68.5576 368.995 68.1865C369.923 67.8154 370.895 67.6299 371.91 67.6299C372.955 67.6299 373.937 67.8154 374.854 68.1865C375.782 68.5576 376.612 69.1045 377.345 69.8271C378.077 70.54 378.634 71.3457 379.015 72.2441C379.396 73.1426 379.586 74.085 379.586 75.0713C379.586 76.0967 379.396 77.0586 379.015 77.957C378.644 78.8555 378.097 79.6514 377.374 80.3447C376.612 81.0771 375.768 81.6289 374.84 82C373.912 82.3809 372.936 82.5713 371.91 82.5713C370.904 82.5713 369.938 82.3809 369.01 82C368.082 81.6289 367.257 81.0869 366.534 80.374C365.802 79.6514 365.245 78.8408 364.864 77.9424C364.483 77.0439 364.293 76.0869 364.293 75.0713ZM396.241 82.835L393.033 75.6133C392.789 75.0566 392.589 74.5635 392.433 74.1338C392.276 73.6943 392.135 73.2646 392.008 72.8447C391.793 73.4795 391.603 74.0264 391.437 74.4854C391.271 74.9346 391.139 75.2715 391.041 75.4961L387.745 82.835L380.553 68.1133H383.937L387.057 74.8076C387.184 75.0908 387.306 75.4814 387.423 75.9795C387.55 76.4678 387.657 77.0098 387.745 77.6055C387.755 77.2539 387.813 76.8877 387.921 76.5068C388.028 76.126 388.209 75.6572 388.463 75.1006L391.861 67.6006H392.125L395.582 75.1006C395.797 75.5693 395.953 76.0039 396.051 76.4043C396.158 76.8047 396.222 77.2051 396.241 77.6055C396.329 77.0781 396.441 76.5801 396.578 76.1113C396.715 75.6426 396.871 75.2178 397.047 74.8369L400.108 68.1133H403.463L396.241 82.835ZM405.968 73.6357H413.805V76.5654H405.968V73.6357ZM436.202 65.7695C435.216 64.9297 434.171 64.2998 433.067 63.8799C431.974 63.46 430.821 63.25 429.61 63.25C427.267 63.25 425.357 64.002 423.883 65.5059C422.418 67.0098 421.686 68.958 421.686 71.3506C421.686 73.665 422.398 75.5742 423.824 77.0781C425.26 78.582 427.066 79.334 429.244 79.334C430.514 79.334 431.72 79.1094 432.862 78.6602C434.015 78.2109 435.118 77.5322 436.173 76.624V80.5645C435.235 81.2383 434.215 81.7412 433.111 82.0732C432.008 82.4053 430.812 82.5713 429.522 82.5713C427.882 82.5713 426.363 82.3027 424.967 81.7656C423.58 81.2285 422.359 80.4375 421.305 79.3926C420.26 78.3672 419.454 77.1611 418.888 75.7744C418.331 74.3779 418.053 72.8936 418.053 71.3213C418.053 69.749 418.331 68.2744 418.888 66.8975C419.454 65.5107 420.27 64.2949 421.334 63.25C422.398 62.1953 423.619 61.3994 424.996 60.8623C426.373 60.3154 427.862 60.042 429.464 60.042C430.724 60.042 431.925 60.2275 433.067 60.5986C434.21 60.96 435.318 61.5117 436.393 62.2539L436.202 65.7695ZM451.173 75.1006C451.173 73.8115 450.758 72.7227 449.928 71.834C449.098 70.9355 448.082 70.4863 446.881 70.4863C445.689 70.4863 444.674 70.9355 443.834 71.834C443.004 72.7227 442.589 73.8115 442.589 75.1006C442.589 76.3896 443.004 77.4834 443.834 78.3818C444.674 79.2705 445.689 79.7148 446.881 79.7148C448.072 79.7148 449.083 79.2705 449.913 78.3818C450.753 77.4834 451.173 76.3896 451.173 75.1006ZM439.234 75.0713C439.234 74.0557 439.425 73.0986 439.806 72.2002C440.196 71.292 440.753 70.4863 441.476 69.7832C442.188 69.0898 443.009 68.5576 443.937 68.1865C444.864 67.8154 445.836 67.6299 446.852 67.6299C447.896 67.6299 448.878 67.8154 449.796 68.1865C450.724 68.5576 451.554 69.1045 452.286 69.8271C453.019 70.54 453.575 71.3457 453.956 72.2441C454.337 73.1426 454.527 74.085 454.527 75.0713C454.527 76.0967 454.337 77.0586 453.956 77.957C453.585 78.8555 453.038 79.6514 452.315 80.3447C451.554 81.0771 450.709 81.6289 449.781 82C448.854 82.3809 447.877 82.5713 446.852 82.5713C445.846 82.5713 444.879 82.3809 443.951 82C443.023 81.6289 442.198 81.0869 441.476 80.374C440.743 79.6514 440.187 78.8408 439.806 77.9424C439.425 77.0439 439.234 76.0869 439.234 75.0713ZM456.3 79.4805L458.937 78.0449C459.132 78.7383 459.493 79.2656 460.021 79.627C460.548 79.9883 461.227 80.1689 462.057 80.1689C462.77 80.1689 463.326 80.0078 463.727 79.6855C464.137 79.3535 464.342 78.9043 464.342 78.3379C464.342 77.5859 463.619 76.9414 462.174 76.4043C461.686 76.2285 461.31 76.082 461.046 75.9648C459.562 75.3496 458.521 74.7246 457.926 74.0898C457.34 73.4551 457.047 72.6836 457.047 71.7754C457.047 70.5352 457.53 69.5293 458.497 68.7578C459.474 67.9863 460.763 67.6006 462.364 67.6006C463.438 67.6006 464.356 67.8008 465.118 68.2012C465.89 68.5918 466.451 69.1533 466.803 69.8857L464.547 71.4385C464.381 70.999 464.088 70.6523 463.668 70.3984C463.258 70.1348 462.779 70.0029 462.232 70.0029C461.627 70.0029 461.139 70.1494 460.768 70.4424C460.406 70.7256 460.226 71.1064 460.226 71.585C460.226 72.3076 461.046 72.9668 462.687 73.5625C463.204 73.748 463.604 73.8994 463.888 74.0166C465.167 74.5244 466.08 75.1006 466.627 75.7451C467.184 76.3799 467.462 77.1758 467.462 78.1328C467.462 79.5195 466.959 80.6084 465.953 81.3994C464.947 82.1807 463.561 82.5713 461.793 82.5713C460.436 82.5713 459.308 82.3174 458.409 81.8096C457.511 81.3018 456.808 80.5254 456.3 79.4805ZM471.417 82V70.8965H468.985V68.1133H471.417V62.8545H474.596V68.1133H477.027V70.8965H474.596V82H471.417Z" fill="#373737"/>
<g filter="url(#filter2_bdi_1775_1404)">
<circle r="94.5685" transform="matrix(-0.492424 -0.870356 -0.870356 0.492424 136.876 134.876)" fill="white" fill-opacity="0.1" shape-rendering="crispEdges"/>
<circle r="94.0685" transform="matrix(-0.492424 -0.870356 -0.870356 0.492424 136.876 134.876)" stroke="url(#paint1_linear_1775_1404)" shape-rendering="crispEdges"/>
</g>
<g clip-path="url(#clip0_1775_1404)">
<g filter="url(#filter3_d_1775_1404)">
<path d="M164.998 154.82C158.18 164.066 149.5 169.421 138.236 170.766C119.887 172.956 101.455 159.428 98.9472 141.269C98.3239 136.737 98.7951 132.016 99.1904 127.424C99.2816 126.344 101.091 125.415 102.101 124.41C102.451 125.717 103.302 127.114 103.074 128.315C99.73 146.3 110.288 162.298 128.225 166.234C140.729 168.976 153.901 163.688 161.221 152.675C163.068 149.896 164.671 149.503 167.301 151.368C169.042 152.6 171.01 153.521 173.23 154.783C174.203 153.196 175.183 151.648 176.126 150.069C178.725 145.711 178.718 145.703 182.974 148.113C186.699 150.228 190.415 152.35 194.9 154.911C194.231 152.282 193.494 150.356 193.326 148.377C193.212 147.093 193.927 145.741 194.269 144.419C195.242 145.318 196.716 146.051 197.096 147.154C198.313 150.711 199.316 154.375 199.977 158.068C200.152 159.05 199.073 160.977 198.161 161.301C194.482 162.601 190.674 163.583 186.843 164.345C185.802 164.549 184.525 163.583 183.362 163.152C184.221 162.276 184.928 161.06 185.969 160.606C187.884 159.768 189.997 159.383 192.749 158.612C190.377 157.17 188.53 155.999 186.645 154.896C184.692 153.755 182.693 152.675 180.299 151.331C179.045 153.378 177.722 155.311 176.65 157.374C175.472 159.624 174.089 160.221 171.831 158.741C169.726 157.358 167.468 156.225 164.998 154.82Z" fill="#373737"/>
<path d="M95.9221 115.233C95.4432 115.822 95.2608 116.003 95.1316 116.215C90.2747 124.206 90.2671 124.214 82.2862 119.659C78.4478 117.468 74.5638 115.361 70.847 112.989C69.9349 112.408 69.6005 110.95 69 109.892C70.2845 109.771 71.8503 109.114 72.8004 109.62C78.1362 112.43 83.3199 115.52 88.8989 118.707C90.2823 116.343 91.544 114.205 92.7829 112.06C93.7862 110.315 95.0936 109.922 96.8646 110.995C99.1296 112.362 101.448 113.646 104.047 115.142C104.906 114.084 105.75 113.035 106.609 112C117.174 99.2947 135.211 95.4046 150.313 102.55C165.127 109.567 173.466 126.132 170.129 142.07C169.886 143.233 169.247 144.389 168.51 145.326C168.259 145.643 166.572 145.447 166.526 145.235C166.207 143.981 165.88 142.614 166.093 141.375C167.978 130.332 165.34 120.611 157.405 112.581C143.138 98.1541 119.257 100.367 107.947 117.189C106.153 119.855 104.633 120.603 101.904 118.662C100.072 117.37 98.0123 116.411 95.9221 115.233Z" fill="#373737"/>
</g>
<g filter="url(#filter4_d_1775_1404)">
<path d="M145.221 124.765C143.952 124.757 142.69 124.757 141.42 124.772C141.086 124.78 140.926 124.705 140.82 124.342C140.622 123.639 140.364 122.96 140.068 122.295C139.87 121.842 139.566 121.426 139.277 120.928C139.497 120.928 139.657 120.928 139.809 120.928C141.542 120.928 143.275 120.928 145.008 120.928C146.004 120.928 146.194 120.731 146.201 119.772C146.201 119.07 146.201 118.367 146.201 117.672C146.201 116.909 145.966 116.668 145.206 116.66C143.686 116.66 142.158 116.66 140.638 116.66C135.028 116.66 129.411 116.66 123.802 116.66C123.657 116.66 123.543 116.668 123.437 116.683H123.414C122.89 116.758 122.738 117.023 122.738 117.74C122.738 117.808 122.738 117.876 122.738 117.944V119.455C122.738 119.651 122.738 119.855 122.738 120.052V121.691H124.44C124.539 121.713 124.668 121.706 124.805 121.691H125.862C125.96 121.698 126.052 121.698 126.143 121.706C127.344 121.766 128.545 121.774 129.738 121.902C131.023 122.046 132.239 122.438 133.265 123.262C133.744 123.647 134.154 124.093 134.42 124.765C134.162 124.765 133.987 124.765 133.82 124.765C130.658 124.765 127.503 124.765 124.341 124.772C124.189 124.772 123.999 124.78 123.901 124.871C122.738 125.943 122.745 125.943 122.738 127.575C122.738 127.658 122.738 127.733 122.738 127.817C122.738 128.844 122.897 129.002 123.946 129.002C127.344 129.002 130.749 129.002 134.147 129.002C134.344 129.002 134.549 129.025 134.793 129.048C134.466 130.324 133.751 131.238 132.748 131.956C132.626 132.039 132.528 132.16 132.414 132.258C132.292 132.288 132.163 132.303 132.056 132.364C130.741 133.036 129.328 133.353 127.861 133.414C126.485 133.467 125.109 133.467 123.733 133.489C123.034 133.497 122.753 133.776 122.745 134.479C122.738 135.385 122.768 136.292 122.738 137.198C122.715 137.697 122.89 138.067 123.217 138.437C126.257 141.836 129.274 145.243 132.307 148.649C132.398 148.755 132.558 148.8 132.687 148.876C132.74 149.004 132.756 149.148 132.839 149.246C133.88 150.492 134.914 151.746 135.986 152.97C136.168 153.181 136.526 153.34 136.799 153.347C138.433 153.385 140.068 153.363 141.702 153.363C142.097 153.363 142.371 153.211 142.553 152.864C142.743 152.501 142.583 152.237 142.355 151.958C140.592 149.843 138.829 147.72 137.065 145.605C136.898 145.409 136.678 145.258 136.488 145.084C136.412 144.933 136.358 144.767 136.244 144.646C134.375 142.538 132.505 140.431 130.627 138.323C130.551 138.24 130.498 138.135 130.43 138.029C130.513 137.991 130.536 137.968 130.567 137.968C132.421 137.757 134.192 137.251 135.834 136.352C136.07 136.224 136.275 136.11 136.016 135.831C136.328 136.231 136.586 135.914 136.83 135.748C138.996 134.214 140.402 132.175 140.896 129.561C140.972 129.146 141.132 128.98 141.58 128.995C142.827 129.025 144.081 129.01 145.335 129.002C146.004 128.995 146.285 128.7 146.285 128.028C146.285 127.295 146.285 126.563 146.285 125.83C146.277 125.007 146.042 124.765 145.221 124.765Z" fill="#373737"/>
</g>
</g>
<defs>
<filter id="filter0_di_1775_1404" x="0.769775" y="0.769287" width="315.213" height="244.213" filterUnits="userSpaceOnUse" color-interpolation-filters="sRGB">
<feFlood flood-opacity="0" result="BackgroundImageFix"/>
<feColorMatrix in="SourceAlpha" type="matrix" values="0 0 0 0 0 0 0 0 0 0 0 0 0 0 0 0 0 0 127 0" result="hardAlpha"/>
<feOffset dx="-14" dy="-12"/>
<feGaussianBlur stdDeviation="10"/>
<feComposite in2="hardAlpha" operator="out"/>
<feColorMatrix type="matrix" values="0 0 0 0 1 0 0 0 0 1 0 0 0 0 1 0 0 0 1 0"/>
<feBlend mode="normal" in2="BackgroundImageFix" result="effect1_dropShadow_1775_1404"/>
<feBlend mode="normal" in="SourceGraphic" in2="effect1_dropShadow_1775_1404" result="shape"/>
<feColorMatrix in="SourceAlpha" type="matrix" values="0 0 0 0 0 0 0 0 0 0 0 0 0 0 0 0 0 0 127 0" result="hardAlpha"/>
<feOffset dx="77" dy="4"/>
<feGaussianBlur stdDeviation="50"/>
<feComposite in2="hardAlpha" operator="arithmetic" k2="-1" k3="1"/>
<feColorMatrix type="matrix" values="0 0 0 0 0 0 0 0 0 0 0 0 0 0 0 0 0 0 0.25 0"/>
<feBlend mode="normal" in2="shape" result="effect2_innerShadow_1775_1404"/>
</filter>
<filter id="filter1_bdd_1775_1404" x="7.23169" y="5" width="623.768" height="263.521" filterUnits="userSpaceOnUse" color-interpolation-filters="sRGB">
<feFlood flood-opacity="0" result="BackgroundImageFix"/>
<feGaussianBlur in="BackgroundImageFix" stdDeviation="10"/>
<feComposite in2="SourceAlpha" operator="in" result="effect1_backgroundBlur_1775_1404"/>
<feColorMatrix in="SourceAlpha" type="matrix" values="0 0 0 0 0 0 0 0 0 0 0 0 0 0 0 0 0 0 127 0" result="hardAlpha"/>
<feOffset dy="2"/>
<feGaussianBlur stdDeviation="2.5"/>
<feComposite in2="hardAlpha" operator="out"/>
<feColorMatrix type="matrix" values="0 0 0 0 0 0 0 0 0 0 0 0 0 0 0 0 0 0 0.1 0"/>
<feBlend mode="normal" in2="effect1_backgroundBlur_1775_1404" result="effect2_dropShadow_1775_1404"/>
<feColorMatrix in="SourceAlpha" type="matrix" values="0 0 0 0 0 0 0 0 0 0 0 0 0 0 0 0 0 0 127 0" result="hardAlpha"/>
<feOffset dy="4"/>
<feGaussianBlur stdDeviation="10"/>
<feComposite in2="hardAlpha" operator="out"/>
<feColorMatrix type="matrix" values="0 0 0 0 0 0 0 0 0 0 0 0 0 0 0 0 0 0 0.15 0"/>
<feBlend mode="normal" in2="effect2_dropShadow_1775_1404" result="effect3_dropShadow_1775_1404"/>
<feBlend mode="normal" in="SourceGraphic" in2="effect3_dropShadow_1775_1404" result="shape"/>
</filter>
<filter id="filter2_bdi_1775_1404" x="37.2909" y="35.2909" width="199.17" height="201.17" filterUnits="userSpaceOnUse" color-interpolation-filters="sRGB">
<feFlood flood-opacity="0" result="BackgroundImageFix"/>
<feGaussianBlur in="BackgroundImageFix" stdDeviation="2.5"/>
<feComposite in2="SourceAlpha" operator="in" result="effect1_backgroundBlur_1775_1404"/>
<feColorMatrix in="SourceAlpha" type="matrix" values="0 0 0 0 0 0 0 0 0 0 0 0 0 0 0 0 0 0 127 0" result="hardAlpha"/>
<feOffset dy="2"/>
<feGaussianBlur stdDeviation="2.5"/>
<feComposite in2="hardAlpha" operator="out"/>
<feColorMatrix type="matrix" values="0 0 0 0 0 0 0 0 0 0 0 0 0 0 0 0 0 0 0.1 0"/>
<feBlend mode="normal" in2="effect1_backgroundBlur_1775_1404" result="effect2_dropShadow_1775_1404"/>
<feBlend mode="normal" in="SourceGraphic" in2="effect2_dropShadow_1775_1404" result="shape"/>
<feColorMatrix in="SourceAlpha" type="matrix" values="0 0 0 0 0 0 0 0 0 0 0 0 0 0 0 0 0 0 127 0" result="hardAlpha"/>
<feOffset dx="5"/>
<feGaussianBlur stdDeviation="2.5"/>
<feComposite in2="hardAlpha" operator="arithmetic" k2="-1" k3="1"/>
<feColorMatrix type="matrix" values="0 0 0 0 0.976471 0 0 0 0 0.572549 0 0 0 0 0.180392 0 0 0 1 0"/>
<feBlend mode="normal" in2="shape" result="effect3_innerShadow_1775_1404"/>
</filter>
<filter id="filter3_d_1775_1404" x="65" y="99.0009" width="138.996" height="79.9979" filterUnits="userSpaceOnUse" color-interpolation-filters="sRGB">
<feFlood flood-opacity="0" result="BackgroundImageFix"/>
<feColorMatrix in="SourceAlpha" type="matrix" values="0 0 0 0 0 0 0 0 0 0 0 0 0 0 0 0 0 0 127 0" result="hardAlpha"/>
<feOffset dy="4"/>
<feGaussianBlur stdDeviation="2"/>
<feComposite in2="hardAlpha" operator="out"/>
<feColorMatrix type="matrix" values="0 0 0 0 0 0 0 0 0 0 0 0 0 0 0 0 0 0 0.25 0"/>
<feBlend mode="normal" in2="BackgroundImageFix" result="effect1_dropShadow_1775_1404"/>
<feBlend mode="normal" in="SourceGraphic" in2="effect1_dropShadow_1775_1404" result="shape"/>
</filter>
<filter id="filter4_d_1775_1404" x="118.736" y="114.66" width="31.5493" height="44.7091" filterUnits="userSpaceOnUse" color-interpolation-filters="sRGB">
<feFlood flood-opacity="0" result="BackgroundImageFix"/>
<feColorMatrix in="SourceAlpha" type="matrix" values="0 0 0 0 0 0 0 0 0 0 0 0 0 0 0 0 0 0 127 0" result="hardAlpha"/>
<feOffset dy="2"/>
<feGaussianBlur stdDeviation="2"/>
<feComposite in2="hardAlpha" operator="out"/>
<feColorMatrix type="matrix" values="0 0 0 0 0 0 0 0 0 0 0 0 0 0 0 0 0 0 0.25 0"/>
<feBlend mode="normal" in2="BackgroundImageFix" result="effect1_dropShadow_1775_1404"/>
<feBlend mode="normal" in="SourceGraphic" in2="effect1_dropShadow_1775_1404" result="shape"/>
</filter>
<linearGradient id="paint0_linear_1775_1404" x1="124.82" y1="20.3162" x2="-393.946" y2="331.874" gradientUnits="userSpaceOnUse">
<stop offset="0.21826" stop-color="white"/>
<stop offset="0.69101" stop-color="white" stop-opacity="0"/>
</linearGradient>
<linearGradient id="paint1_linear_1775_1404" x1="31.0458" y1="-4.23931" x2="205.606" y2="26.7678" gradientUnits="userSpaceOnUse">
<stop offset="0.21826" stop-color="white"/>
<stop offset="0.69101" stop-color="white" stop-opacity="0"/>
</linearGradient>
<clipPath id="clip0_1775_1404">
<rect width="131" height="72" fill="white" transform="translate(69 99)"/>
</clipPath>
</defs>
</svg>
