<svg width="631" height="269" viewBox="0 0 631 269" fill="none" xmlns="http://www.w3.org/2000/svg">
<g filter="url(#filter0_di_1775_1958)">
<circle r="102.107" transform="matrix(-1 0 0 1 136.876 134.876)" fill="white"/>
</g>
<g filter="url(#filter1_bdd_1775_1958)">
<mask id="path-2-inside-1_1775_1958" fill="white">
<path fill-rule="evenodd" clip-rule="evenodd" d="M171 25H565C590.405 25 611 45.5949 611 71C611 96.4051 590.405 117 565 117H263.026C253.618 117 246.521 125.469 246.521 134.877C246.521 195.432 197.431 244.521 136.876 244.521C76.3213 244.521 27.2317 195.432 27.2317 134.877C27.2317 74.3216 76.3213 25.232 136.876 25.232C139.024 25.232 141.157 25.2937 143.274 25.4155C152.468 25.9445 161.791 25 171 25Z"/>
</mask>
<path fill-rule="evenodd" clip-rule="evenodd" d="M171 25H565C590.405 25 611 45.5949 611 71C611 96.4051 590.405 117 565 117H263.026C253.618 117 246.521 125.469 246.521 134.877C246.521 195.432 197.431 244.521 136.876 244.521C76.3213 244.521 27.2317 195.432 27.2317 134.877C27.2317 74.3216 76.3213 25.232 136.876 25.232C139.024 25.232 141.157 25.2937 143.274 25.4155C152.468 25.9445 161.791 25 171 25Z" fill="white" fill-opacity="0.1" shape-rendering="crispEdges"/>
<path d="M143.274 25.4155L143.331 24.4172L143.274 25.4155ZM565 26H171V24H565V26ZM263.026 116H565V118H263.026V116ZM136.876 243.521C196.879 243.521 245.521 194.879 245.521 134.877H247.521C247.521 195.984 197.984 245.521 136.876 245.521V243.521ZM28.2317 134.877C28.2317 194.879 76.8736 243.521 136.876 243.521V245.521C75.769 245.521 26.2317 195.984 26.2317 134.877H28.2317ZM136.876 26.232C76.8736 26.232 28.2317 74.8739 28.2317 134.877H26.2317C26.2317 73.7693 75.769 24.232 136.876 24.232V26.232ZM143.216 26.4139C141.118 26.2932 139.005 26.232 136.876 26.232V24.232C139.043 24.232 141.195 24.2943 143.331 24.4172L143.216 26.4139ZM143.331 24.4172C147.879 24.6788 152.469 24.5766 157.095 24.4068C161.706 24.2375 166.371 24 171 24V26C166.42 26 161.818 26.2347 157.168 26.4055C152.531 26.5757 147.863 26.6812 143.216 26.4139L143.331 24.4172ZM263.026 118C254.271 118 247.521 125.915 247.521 134.877H245.521C245.521 125.023 252.965 116 263.026 116V118ZM612 71C612 96.9574 590.957 118 565 118V116C589.853 116 610 95.8528 610 71H612ZM565 24C590.957 24 612 45.0426 612 71H610C610 46.1472 589.853 26 565 26V24Z" fill="url(#paint0_linear_1775_1958)" mask="url(#path-2-inside-1_1775_1958)"/>
</g>
<path d="M323.86 74.3242L325.926 76.5361C326.58 75.7451 327.059 74.9248 327.361 74.0752C327.664 73.2158 327.815 72.2881 327.815 71.292C327.815 70.1982 327.62 69.168 327.229 68.2012C326.849 67.2344 326.287 66.375 325.545 65.623C324.793 64.8613 323.938 64.2754 322.981 63.8652C322.024 63.4551 321.028 63.25 319.993 63.25C318.948 63.25 317.947 63.4551 316.99 63.8652C316.033 64.2754 315.184 64.8613 314.441 65.623C313.699 66.375 313.133 67.2344 312.742 68.2012C312.352 69.168 312.156 70.1982 312.156 71.292C312.156 73.5381 312.913 75.4326 314.427 76.9756C315.95 78.5088 317.835 79.2754 320.081 79.2754C320.687 79.2754 321.263 79.2119 321.81 79.085C322.366 78.9482 322.918 78.7383 323.465 78.4551L319.627 74.3242H323.86ZM328.211 79.085L332.767 84.0068H328.606L325.809 80.9746C324.852 81.4922 323.88 81.8779 322.894 82.1318C321.907 82.3857 320.877 82.5127 319.803 82.5127C318.348 82.5127 316.922 82.2246 315.525 81.6484C314.129 81.0723 312.908 80.2715 311.863 79.2461C310.779 78.1914 309.949 76.9854 309.373 75.6279C308.807 74.2705 308.523 72.8252 308.523 71.292C308.523 69.7588 308.807 68.3135 309.373 66.9561C309.949 65.5986 310.779 64.3926 311.863 63.3379C312.938 62.2832 314.168 61.4775 315.555 60.9209C316.951 60.3545 318.431 60.0713 319.993 60.0713C321.546 60.0713 323.016 60.3545 324.402 60.9209C325.789 61.4775 327.02 62.2832 328.094 63.3379C329.178 64.4023 330.008 65.6133 330.584 66.9707C331.16 68.3281 331.448 69.7686 331.448 71.292C331.448 72.7764 331.17 74.1875 330.613 75.5254C330.066 76.8535 329.266 78.04 328.211 79.085ZM338.26 68.1133V75.9355C338.26 77.2832 338.538 78.25 339.095 78.8359C339.651 79.4219 340.555 79.7148 341.805 79.7148C343.055 79.7148 343.958 79.4219 344.515 78.8359C345.071 78.25 345.35 77.2832 345.35 75.9355V68.1133H348.528V74.9834C348.528 77.6396 347.996 79.5684 346.932 80.7695C345.867 81.9707 344.168 82.5713 341.834 82.5713C339.461 82.5713 337.742 81.9756 336.678 80.7842C335.613 79.5928 335.081 77.6592 335.081 74.9834V68.1133H338.26ZM352.542 62.1074C352.542 61.5703 352.737 61.1064 353.128 60.7158C353.528 60.3252 354.002 60.1299 354.549 60.1299C355.115 60.1299 355.584 60.3203 355.955 60.7012C356.336 61.0723 356.526 61.541 356.526 62.1074C356.526 62.6738 356.336 63.1523 355.955 63.543C355.574 63.9238 355.105 64.1143 354.549 64.1143C354.002 64.1143 353.528 63.9189 353.128 63.5283C352.737 63.1279 352.542 62.6543 352.542 62.1074ZM352.967 82V68.1133H356.146V82H352.967ZM371.072 72.0684C370.584 71.5312 370.013 71.1211 369.358 70.8379C368.714 70.5547 368.016 70.4131 367.264 70.4131C365.965 70.4131 364.925 70.833 364.144 71.6729C363.362 72.5127 362.972 73.626 362.972 75.0127C362.972 76.458 363.362 77.5957 364.144 78.4258C364.935 79.2461 366.023 79.6562 367.41 79.6562C368.182 79.6562 368.87 79.5146 369.476 79.2314C370.081 78.9385 370.613 78.499 371.072 77.9131V81.5752C370.486 81.9072 369.856 82.1562 369.183 82.3223C368.519 82.4883 367.811 82.5713 367.059 82.5713C364.881 82.5713 363.104 81.8779 361.727 80.4912C360.359 79.1045 359.676 77.3076 359.676 75.1006C359.676 72.8643 360.384 71.0625 361.8 69.6953C363.226 68.3184 365.086 67.6299 367.381 67.6299C368.104 67.6299 368.768 67.7031 369.373 67.8496C369.979 67.9863 370.545 68.2012 371.072 68.4941V72.0684ZM374.324 82V59.2949H377.503V73.8701L383.318 68.1133H387.244L380.945 74.2363L387.845 82H383.743L377.503 74.8369V82H374.324ZM403.665 73.5771H409.642L407.444 68.6846C407.317 68.3721 407.186 68.0156 407.049 67.6152C406.912 67.2051 406.775 66.751 406.639 66.2529C406.521 66.7217 406.395 67.1611 406.258 67.5713C406.131 67.9717 405.999 68.3428 405.862 68.6846L403.665 73.5771ZM413.304 82L410.872 76.4775H402.376L399.886 82H396.224L406.609 59.7051L416.98 82H413.304ZM421.814 75.0127C421.814 76.4482 422.171 77.5957 422.884 78.4551C423.606 79.3145 424.554 79.7441 425.726 79.7441C426.927 79.7441 427.854 79.3438 428.509 78.543C429.173 77.7422 429.505 76.6045 429.505 75.1299C429.505 73.665 429.158 72.5225 428.465 71.7021C427.781 70.8721 426.839 70.457 425.638 70.457C424.437 70.457 423.499 70.8574 422.825 71.6582C422.151 72.459 421.814 73.5771 421.814 75.0127ZM418.738 88.5332V68.1133H421.917V70.3838C422.288 69.5049 422.879 68.8262 423.689 68.3477C424.51 67.8691 425.486 67.6299 426.619 67.6299C428.465 67.6299 429.959 68.3135 431.102 69.6807C432.254 71.0381 432.83 72.8252 432.83 75.042C432.83 77.376 432.264 79.2168 431.131 80.5645C430.008 81.9023 428.465 82.5713 426.502 82.5713C425.525 82.5713 424.656 82.376 423.895 81.9854C423.143 81.5947 422.483 80.999 421.917 80.1982V88.5332H418.738ZM439.275 75.0127C439.275 76.4482 439.632 77.5957 440.345 78.4551C441.067 79.3145 442.015 79.7441 443.187 79.7441C444.388 79.7441 445.315 79.3438 445.97 78.543C446.634 77.7422 446.966 76.6045 446.966 75.1299C446.966 73.665 446.619 72.5225 445.926 71.7021C445.242 70.8721 444.3 70.457 443.099 70.457C441.897 70.457 440.96 70.8574 440.286 71.6582C439.612 72.459 439.275 73.5771 439.275 75.0127ZM436.199 88.5332V68.1133H439.378V70.3838C439.749 69.5049 440.34 68.8262 441.15 68.3477C441.971 67.8691 442.947 67.6299 444.08 67.6299C445.926 67.6299 447.42 68.3135 448.562 69.6807C449.715 71.0381 450.291 72.8252 450.291 75.042C450.291 77.376 449.725 79.2168 448.592 80.5645C447.469 81.9023 445.926 82.5713 443.963 82.5713C442.986 82.5713 442.117 82.376 441.355 81.9854C440.604 81.5947 439.944 80.999 439.378 80.1982V88.5332H436.199ZM456.839 70.3252C457.181 69.4072 457.63 68.7285 458.187 68.2891C458.753 67.8496 459.451 67.6299 460.281 67.6299C460.73 67.6299 461.17 67.6836 461.6 67.791C462.039 67.8984 462.469 68.0547 462.889 68.2598L461.746 70.9551C461.473 70.7598 461.175 70.6182 460.853 70.5303C460.54 70.4326 460.188 70.3838 459.798 70.3838C458.743 70.3838 457.986 70.8086 457.527 71.6582C457.068 72.498 456.839 73.9141 456.839 75.9062V82H453.66V68.084H456.839V70.3252ZM475.618 75.1006C475.618 73.8115 475.203 72.7227 474.373 71.834C473.543 70.9355 472.527 70.4863 471.326 70.4863C470.135 70.4863 469.119 70.9355 468.279 71.834C467.449 72.7227 467.034 73.8115 467.034 75.1006C467.034 76.3896 467.449 77.4834 468.279 78.3818C469.119 79.2705 470.135 79.7148 471.326 79.7148C472.518 79.7148 473.528 79.2705 474.358 78.3818C475.198 77.4834 475.618 76.3896 475.618 75.1006ZM463.68 75.0713C463.68 74.0557 463.87 73.0986 464.251 72.2002C464.642 71.292 465.198 70.4863 465.921 69.7832C466.634 69.0898 467.454 68.5576 468.382 68.1865C469.31 67.8154 470.281 67.6299 471.297 67.6299C472.342 67.6299 473.323 67.8154 474.241 68.1865C475.169 68.5576 475.999 69.1045 476.731 69.8271C477.464 70.54 478.021 71.3457 478.401 72.2441C478.782 73.1426 478.973 74.085 478.973 75.0713C478.973 76.0967 478.782 77.0586 478.401 77.957C478.03 78.8555 477.483 79.6514 476.761 80.3447C475.999 81.0771 475.154 81.6289 474.227 82C473.299 82.3809 472.322 82.5713 471.297 82.5713C470.291 82.5713 469.324 82.3809 468.396 82C467.469 81.6289 466.644 81.0869 465.921 80.374C465.188 79.6514 464.632 78.8408 464.251 77.9424C463.87 77.0439 463.68 76.0869 463.68 75.0713ZM487.22 82.835L479.939 68.1133H483.411L486.443 75.1006C486.541 75.3154 486.658 75.6377 486.795 76.0674C486.932 76.4971 487.073 77.0098 487.22 77.6055C487.317 77.1855 487.43 76.7705 487.557 76.3604C487.693 75.9404 487.854 75.5205 488.04 75.1006L491.058 68.1133H494.515L487.22 82.835ZM509.588 82H506.409V80.1982C505.843 80.999 505.179 81.5947 504.417 81.9854C503.665 82.376 502.801 82.5713 501.824 82.5713C499.861 82.5713 498.313 81.9023 497.181 80.5645C496.058 79.2168 495.496 77.376 495.496 75.042C495.496 72.8252 496.072 71.0381 497.225 69.6807C498.377 68.3135 499.881 67.6299 501.736 67.6299C502.869 67.6299 503.836 67.8691 504.637 68.3477C505.447 68.8164 506.038 69.4951 506.409 70.3838V68.1133H509.588V82ZM506.497 75.0127C506.497 73.5771 506.16 72.459 505.486 71.6582C504.822 70.8574 503.89 70.457 502.688 70.457C501.487 70.457 500.54 70.8721 499.847 71.7021C499.163 72.5225 498.821 73.665 498.821 75.1299C498.821 76.6045 499.153 77.7422 499.817 78.543C500.481 79.3438 501.419 79.7441 502.63 79.7441C503.772 79.7441 504.7 79.3096 505.413 78.4404C506.136 77.5713 506.497 76.4287 506.497 75.0127ZM514.129 82V59.2949H517.308V82H514.129Z" fill="#373737"/>
<g filter="url(#filter2_bdi_1775_1958)">
<circle r="94.5685" transform="matrix(-0.492424 -0.870356 -0.870356 0.492424 136.876 134.876)" fill="white" fill-opacity="0.1" shape-rendering="crispEdges"/>
<circle r="94.0685" transform="matrix(-0.492424 -0.870356 -0.870356 0.492424 136.876 134.876)" stroke="url(#paint1_linear_1775_1958)" shape-rendering="crispEdges"/>
</g>
<g filter="url(#filter3_d_1775_1958)">
<path d="M202.155 130.284C202.761 129.044 202.246 127.547 201.005 126.941L180.785 117.073C179.544 116.467 178.047 116.982 177.442 118.223C176.836 119.464 177.351 120.961 178.592 121.566L196.565 130.338L187.794 148.312C187.188 149.553 187.703 151.049 188.944 151.655C190.185 152.261 191.681 151.746 192.287 150.505L202.155 130.284ZM149.92 146.386L150.734 148.75L149.92 146.386ZM150.734 148.75L200.722 131.552L199.095 126.824L149.107 144.022L150.734 148.75ZM138.877 133.359C133.42 141.52 141.45 151.944 150.734 148.75L149.107 144.022C144.352 145.658 140.238 140.318 143.033 136.138L138.877 133.359Z" fill="#373737"/>
</g>
<path d="M139.959 95.0065C142.187 95.0065 144.418 94.9866 146.646 95.0164C147.989 95.033 148.921 95.8403 149.151 97.0811C149.368 98.2492 148.797 99.3312 147.701 99.8242C147.227 100.036 146.723 100.043 146.218 100.043C145.18 100.046 144.138 100.062 143.099 100.039C142.658 100.029 142.481 100.135 142.504 100.615C142.544 101.495 142.578 102.385 142.494 103.262C142.427 103.957 142.741 104.093 143.326 104.136C145.968 104.334 148.567 104.817 151.055 105.701C164.212 110.37 172.445 119.426 175.168 133.039C178.688 150.632 167.789 168.278 150.45 173.457C131.498 179.118 111.678 168.732 105.739 150.027C99.346 129.899 112.353 108.424 133.275 104.572C134.441 104.357 135.623 104.238 136.803 104.113C137.28 104.063 137.461 103.894 137.437 103.398C137.397 102.488 137.397 101.571 137.434 100.661C137.457 100.129 137.237 100.023 136.759 100.036C135.69 100.066 134.618 100.056 133.549 100.046C131.846 100.029 130.73 99.0301 130.73 97.5345C130.73 96.0223 131.842 95.0131 133.532 95.0098C135.677 95.0032 137.818 95.0065 139.959 95.0065ZM139.936 169.936C156.763 169.976 170.565 156.409 170.739 139.875C170.912 123.264 157.515 109.125 140.316 108.996C123.098 108.864 109.226 122.51 109.189 139.375C109.153 156.224 122.911 169.9 139.936 169.936Z" fill="#373737"/>
<path d="M85.7386 141.579C81.8241 141.579 77.9131 141.579 73.9986 141.579C72.2227 141.579 71.0343 140.739 71.0007 139.459C70.9671 138.143 72.1757 137.205 73.9483 137.202C81.5656 137.2 89.1797 137.202 96.797 137.205C97.2738 137.205 97.7572 137.174 98.2238 137.237C99.6909 137.433 100.54 138.405 100.413 139.676C100.302 140.77 99.2511 141.568 97.8378 141.574C93.8025 141.588 89.7705 141.579 85.7386 141.579Z" fill="#373737" stroke="#373737" stroke-width="5" stroke-miterlimit="10"/>
<path d="M90.2463 158.285C87.2243 158.285 84.2023 158.288 81.1837 158.285C79.5496 158.281 78.4113 157.26 78.3581 155.773C78.3048 154.269 79.4564 153.046 81.0839 153.039C87.2742 153.015 93.4646 153.015 99.655 153.043C101.143 153.05 102.278 154.269 102.264 155.712C102.254 157.157 101.099 158.278 99.5784 158.285C96.4666 158.291 93.3581 158.285 90.2463 158.285Z" stroke="#373737" stroke-miterlimit="10"/>
<path d="M90.392 121.377C93.4724 121.377 96.5529 121.371 99.6301 121.379C101.172 121.382 102.254 122.297 102.264 123.567C102.274 124.783 101.112 125.752 99.6001 125.752C93.4092 125.761 87.2182 125.761 81.0273 125.752C79.4821 125.749 78.3698 124.826 78.3564 123.579C78.3431 122.288 79.4421 121.382 81.0639 121.377C84.1711 121.371 87.2815 121.377 90.392 121.377Z" stroke="#373737" stroke-miterlimit="10"/>
<path d="M108.701 108.127C108.748 106.424 109.576 104.698 111.562 103.647C113.653 102.542 115.764 102.749 117.815 103.826C118.446 104.158 118.98 104.612 119.5 105.088C119.865 105.42 119.781 105.587 119.419 105.858C116.551 108.002 113.69 110.162 110.846 112.335C110.424 112.657 110.187 112.692 109.887 112.216C109.171 111.076 108.701 109.871 108.701 108.127Z" fill="#373737"/>
<path d="M169.597 112.576C166.579 110.319 163.561 108.059 160.543 105.799C160.324 105.634 160.004 105.514 160.344 105.157C163.038 102.301 167.867 102.01 170.224 105.21C171.782 107.322 171.498 110.569 169.597 112.576Z" fill="#373737"/>
<defs>
<filter id="filter0_di_1775_1958" x="0.769775" y="0.769287" width="315.213" height="244.213" filterUnits="userSpaceOnUse" color-interpolation-filters="sRGB">
<feFlood flood-opacity="0" result="BackgroundImageFix"/>
<feColorMatrix in="SourceAlpha" type="matrix" values="0 0 0 0 0 0 0 0 0 0 0 0 0 0 0 0 0 0 127 0" result="hardAlpha"/>
<feOffset dx="-14" dy="-12"/>
<feGaussianBlur stdDeviation="10"/>
<feComposite in2="hardAlpha" operator="out"/>
<feColorMatrix type="matrix" values="0 0 0 0 1 0 0 0 0 1 0 0 0 0 1 0 0 0 1 0"/>
<feBlend mode="normal" in2="BackgroundImageFix" result="effect1_dropShadow_1775_1958"/>
<feBlend mode="normal" in="SourceGraphic" in2="effect1_dropShadow_1775_1958" result="shape"/>
<feColorMatrix in="SourceAlpha" type="matrix" values="0 0 0 0 0 0 0 0 0 0 0 0 0 0 0 0 0 0 127 0" result="hardAlpha"/>
<feOffset dx="77" dy="4"/>
<feGaussianBlur stdDeviation="50"/>
<feComposite in2="hardAlpha" operator="arithmetic" k2="-1" k3="1"/>
<feColorMatrix type="matrix" values="0 0 0 0 0 0 0 0 0 0 0 0 0 0 0 0 0 0 0.25 0"/>
<feBlend mode="normal" in2="shape" result="effect2_innerShadow_1775_1958"/>
</filter>
<filter id="filter1_bdd_1775_1958" x="7.23169" y="5" width="623.768" height="263.521" filterUnits="userSpaceOnUse" color-interpolation-filters="sRGB">
<feFlood flood-opacity="0" result="BackgroundImageFix"/>
<feGaussianBlur in="BackgroundImageFix" stdDeviation="10"/>
<feComposite in2="SourceAlpha" operator="in" result="effect1_backgroundBlur_1775_1958"/>
<feColorMatrix in="SourceAlpha" type="matrix" values="0 0 0 0 0 0 0 0 0 0 0 0 0 0 0 0 0 0 127 0" result="hardAlpha"/>
<feOffset dy="2"/>
<feGaussianBlur stdDeviation="2.5"/>
<feComposite in2="hardAlpha" operator="out"/>
<feColorMatrix type="matrix" values="0 0 0 0 0 0 0 0 0 0 0 0 0 0 0 0 0 0 0.1 0"/>
<feBlend mode="normal" in2="effect1_backgroundBlur_1775_1958" result="effect2_dropShadow_1775_1958"/>
<feColorMatrix in="SourceAlpha" type="matrix" values="0 0 0 0 0 0 0 0 0 0 0 0 0 0 0 0 0 0 127 0" result="hardAlpha"/>
<feOffset dy="4"/>
<feGaussianBlur stdDeviation="10"/>
<feComposite in2="hardAlpha" operator="out"/>
<feColorMatrix type="matrix" values="0 0 0 0 0 0 0 0 0 0 0 0 0 0 0 0 0 0 0.15 0"/>
<feBlend mode="normal" in2="effect2_dropShadow_1775_1958" result="effect3_dropShadow_1775_1958"/>
<feBlend mode="normal" in="SourceGraphic" in2="effect3_dropShadow_1775_1958" result="shape"/>
</filter>
<filter id="filter2_bdi_1775_1958" x="37.2909" y="35.2908" width="199.17" height="201.17" filterUnits="userSpaceOnUse" color-interpolation-filters="sRGB">
<feFlood flood-opacity="0" result="BackgroundImageFix"/>
<feGaussianBlur in="BackgroundImageFix" stdDeviation="2.5"/>
<feComposite in2="SourceAlpha" operator="in" result="effect1_backgroundBlur_1775_1958"/>
<feColorMatrix in="SourceAlpha" type="matrix" values="0 0 0 0 0 0 0 0 0 0 0 0 0 0 0 0 0 0 127 0" result="hardAlpha"/>
<feOffset dy="2"/>
<feGaussianBlur stdDeviation="2.5"/>
<feComposite in2="hardAlpha" operator="out"/>
<feColorMatrix type="matrix" values="0 0 0 0 0 0 0 0 0 0 0 0 0 0 0 0 0 0 0.1 0"/>
<feBlend mode="normal" in2="effect1_backgroundBlur_1775_1958" result="effect2_dropShadow_1775_1958"/>
<feBlend mode="normal" in="SourceGraphic" in2="effect2_dropShadow_1775_1958" result="shape"/>
<feColorMatrix in="SourceAlpha" type="matrix" values="0 0 0 0 0 0 0 0 0 0 0 0 0 0 0 0 0 0 127 0" result="hardAlpha"/>
<feOffset dx="5"/>
<feGaussianBlur stdDeviation="2.5"/>
<feComposite in2="hardAlpha" operator="arithmetic" k2="-1" k3="1"/>
<feColorMatrix type="matrix" values="0 0 0 0 0.976471 0 0 0 0 0.572549 0 0 0 0 0.180392 0 0 0 1 0"/>
<feBlend mode="normal" in2="shape" result="effect3_innerShadow_1775_1958"/>
</filter>
<filter id="filter3_d_1775_1958" x="133.103" y="116.819" width="73.3068" height="43.0901" filterUnits="userSpaceOnUse" color-interpolation-filters="sRGB">
<feFlood flood-opacity="0" result="BackgroundImageFix"/>
<feColorMatrix in="SourceAlpha" type="matrix" values="0 0 0 0 0 0 0 0 0 0 0 0 0 0 0 0 0 0 127 0" result="hardAlpha"/>
<feOffset dy="4"/>
<feGaussianBlur stdDeviation="2"/>
<feComposite in2="hardAlpha" operator="out"/>
<feColorMatrix type="matrix" values="0 0 0 0 0 0 0 0 0 0 0 0 0 0 0 0 0 0 0.15 0"/>
<feBlend mode="normal" in2="BackgroundImageFix" result="effect1_dropShadow_1775_1958"/>
<feBlend mode="normal" in="SourceGraphic" in2="effect1_dropShadow_1775_1958" result="shape"/>
</filter>
<linearGradient id="paint0_linear_1775_1958" x1="124.82" y1="20.3162" x2="-393.946" y2="331.874" gradientUnits="userSpaceOnUse">
<stop offset="0.21826" stop-color="white"/>
<stop offset="0.69101" stop-color="white" stop-opacity="0"/>
</linearGradient>
<linearGradient id="paint1_linear_1775_1958" x1="31.0458" y1="-4.23931" x2="205.606" y2="26.7678" gradientUnits="userSpaceOnUse">
<stop offset="0.21826" stop-color="white"/>
<stop offset="0.69101" stop-color="white" stop-opacity="0"/>
</linearGradient>
</defs>
</svg>
