<svg width="631" height="269" viewBox="0 0 631 269" fill="none" xmlns="http://www.w3.org/2000/svg">
<g filter="url(#filter0_di_1775_1127)">
<circle r="102.107" transform="matrix(-1 0 0 1 136.876 134.876)" fill="white"/>
</g>
<g filter="url(#filter1_bdd_1775_1127)">
<mask id="path-2-inside-1_1775_1127" fill="white">
<path fill-rule="evenodd" clip-rule="evenodd" d="M171 25H565C590.405 25 611 45.5949 611 71C611 96.4051 590.405 117 565 117H263.026C253.618 117 246.521 125.469 246.521 134.877C246.521 195.432 197.431 244.521 136.876 244.521C76.3213 244.521 27.2317 195.432 27.2317 134.877C27.2317 74.3216 76.3213 25.232 136.876 25.232C139.024 25.232 141.157 25.2937 143.274 25.4155C152.468 25.9445 161.791 25 171 25Z"/>
</mask>
<path fill-rule="evenodd" clip-rule="evenodd" d="M171 25H565C590.405 25 611 45.5949 611 71C611 96.4051 590.405 117 565 117H263.026C253.618 117 246.521 125.469 246.521 134.877C246.521 195.432 197.431 244.521 136.876 244.521C76.3213 244.521 27.2317 195.432 27.2317 134.877C27.2317 74.3216 76.3213 25.232 136.876 25.232C139.024 25.232 141.157 25.2937 143.274 25.4155C152.468 25.9445 161.791 25 171 25Z" fill="white" fill-opacity="0.1" shape-rendering="crispEdges"/>
<path d="M143.274 25.4155L143.331 24.4172L143.274 25.4155ZM565 26H171V24H565V26ZM263.026 116H565V118H263.026V116ZM136.876 243.521C196.879 243.521 245.521 194.879 245.521 134.877H247.521C247.521 195.984 197.984 245.521 136.876 245.521V243.521ZM28.2317 134.877C28.2317 194.879 76.8736 243.521 136.876 243.521V245.521C75.769 245.521 26.2317 195.984 26.2317 134.877H28.2317ZM136.876 26.232C76.8736 26.232 28.2317 74.8739 28.2317 134.877H26.2317C26.2317 73.7693 75.769 24.232 136.876 24.232V26.232ZM143.216 26.4139C141.118 26.2932 139.005 26.232 136.876 26.232V24.232C139.043 24.232 141.195 24.2943 143.331 24.4172L143.216 26.4139ZM143.331 24.4172C147.879 24.6788 152.469 24.5766 157.095 24.4068C161.706 24.2375 166.371 24 171 24V26C166.42 26 161.818 26.2347 157.168 26.4055C152.531 26.5757 147.863 26.6812 143.216 26.4139L143.331 24.4172ZM263.026 118C254.271 118 247.521 125.915 247.521 134.877H245.521C245.521 125.023 252.965 116 263.026 116V118ZM612 71C612 96.9574 590.957 118 565 118V116C589.853 116 610 95.8528 610 71H612ZM565 24C590.957 24 612 45.0426 612 71H610C610 46.1472 589.853 26 565 26V24Z" fill="url(#paint0_linear_1775_1127)" mask="url(#path-2-inside-1_1775_1127)"/>
</g>
<path d="M334 79.2168V82H319.63L327.643 72.4053C328.639 71.2041 329.366 70.1494 329.825 69.2412C330.284 68.333 330.514 67.5078 330.514 66.7656C330.514 65.7012 330.196 64.8662 329.562 64.2607C328.937 63.6455 328.077 63.3379 326.983 63.3379C326.007 63.3379 325.201 63.6455 324.566 64.2607C323.932 64.8662 323.575 65.667 323.497 66.6631H320.143C320.143 64.7393 320.787 63.2061 322.076 62.0635C323.365 60.9111 325.099 60.335 327.276 60.335C329.347 60.335 330.978 60.8672 332.169 61.9316C333.37 62.9961 333.971 64.4463 333.971 66.2822C333.971 67.5908 333.624 68.9141 332.931 70.252C332.247 71.5801 330.792 73.5137 328.565 76.0527L325.841 79.2168H334ZM347.901 67.5127L342.438 75.2178H347.813V69.6367C347.813 69.3438 347.818 69.0166 347.828 68.6553C347.848 68.2939 347.872 67.9131 347.901 67.5127ZM347.813 82V77.6494H337.53L350.011 60.335H350.992V75.2178H353.6V77.6494H350.992V82H347.813ZM358.419 82H354.903L360.162 74.5293L355.665 68.1133H359.166L361.114 70.9844C361.319 71.2773 361.5 71.5605 361.656 71.834C361.812 72.1074 361.954 72.3857 362.081 72.6689C362.198 72.4346 362.33 72.1904 362.477 71.9365C362.633 71.6729 362.828 71.3457 363.062 70.9551L364.996 68.1133H368.468L363.971 74.5586L369.186 82H365.714L363.136 78.3525L363.019 78.1768C362.521 77.4248 362.198 76.8486 362.052 76.4482C361.856 76.8193 361.666 77.166 361.48 77.4883C361.305 77.8008 361.124 78.0938 360.938 78.3672L358.419 82ZM372.218 81.5459L380.978 63.5137H371.061V60.7598H385.841L375.045 82.8057L372.218 81.5459ZM398.424 60.5547H401.866V73.5771C401.866 75.5107 402.311 76.9658 403.199 77.9424C404.098 78.9092 405.436 79.3926 407.213 79.3926C408.98 79.3926 410.309 78.9092 411.197 77.9424C412.096 76.9658 412.545 75.5107 412.545 73.5771V60.5547H416.031V73.8994C416.031 76.7998 415.299 78.9727 413.834 80.418C412.369 81.8535 410.162 82.5713 407.213 82.5713C404.264 82.5713 402.062 81.8535 400.606 80.418C399.151 78.9824 398.424 76.8096 398.424 73.8994V60.5547ZM421.319 82V70.8965H418.888V68.1133H421.319V62.8545H424.498V68.1133H426.93V70.8965H424.498V82H421.319ZM429.405 62.1074C429.405 61.5703 429.601 61.1064 429.991 60.7158C430.392 60.3252 430.865 60.1299 431.412 60.1299C431.979 60.1299 432.447 60.3203 432.818 60.7012C433.199 61.0723 433.39 61.541 433.39 62.1074C433.39 62.6738 433.199 63.1523 432.818 63.543C432.438 63.9238 431.969 64.1143 431.412 64.1143C430.865 64.1143 430.392 63.9189 429.991 63.5283C429.601 63.1279 429.405 62.6543 429.405 62.1074ZM429.83 82V68.1133H433.009V82H429.83ZM437.711 82V59.2949H440.89V82H437.711ZM445.167 62.1074C445.167 61.5703 445.362 61.1064 445.753 60.7158C446.153 60.3252 446.627 60.1299 447.174 60.1299C447.74 60.1299 448.209 60.3203 448.58 60.7012C448.961 61.0723 449.151 61.541 449.151 62.1074C449.151 62.6738 448.961 63.1523 448.58 63.543C448.199 63.9238 447.73 64.1143 447.174 64.1143C446.627 64.1143 446.153 63.9189 445.753 63.5283C445.362 63.1279 445.167 62.6543 445.167 62.1074ZM445.592 82V68.1133H448.771V82H445.592ZM451.729 79.4805L454.366 78.0449C454.562 78.7383 454.923 79.2656 455.45 79.627C455.978 79.9883 456.656 80.1689 457.486 80.1689C458.199 80.1689 458.756 80.0078 459.156 79.6855C459.566 79.3535 459.771 78.9043 459.771 78.3379C459.771 77.5859 459.049 76.9414 457.604 76.4043C457.115 76.2285 456.739 76.082 456.476 75.9648C454.991 75.3496 453.951 74.7246 453.355 74.0898C452.77 73.4551 452.477 72.6836 452.477 71.7754C452.477 70.5352 452.96 69.5293 453.927 68.7578C454.903 67.9863 456.192 67.6006 457.794 67.6006C458.868 67.6006 459.786 67.8008 460.548 68.2012C461.319 68.5918 461.881 69.1533 462.232 69.8857L459.977 71.4385C459.811 70.999 459.518 70.6523 459.098 70.3984C458.688 70.1348 458.209 70.0029 457.662 70.0029C457.057 70.0029 456.568 70.1494 456.197 70.4424C455.836 70.7256 455.655 71.1064 455.655 71.585C455.655 72.3076 456.476 72.9668 458.116 73.5625C458.634 73.748 459.034 73.8994 459.317 74.0166C460.597 74.5244 461.51 75.1006 462.057 75.7451C462.613 76.3799 462.892 77.1758 462.892 78.1328C462.892 79.5195 462.389 80.6084 461.383 81.3994C460.377 82.1807 458.99 82.5713 457.223 82.5713C455.865 82.5713 454.737 82.3174 453.839 81.8096C452.94 81.3018 452.237 80.5254 451.729 79.4805ZM479.166 82H475.987V80.1982C475.421 80.999 474.757 81.5947 473.995 81.9854C473.243 82.376 472.379 82.5713 471.402 82.5713C469.439 82.5713 467.892 81.9023 466.759 80.5645C465.636 79.2168 465.074 77.376 465.074 75.042C465.074 72.8252 465.65 71.0381 466.803 69.6807C467.955 68.3135 469.459 67.6299 471.314 67.6299C472.447 67.6299 473.414 67.8691 474.215 68.3477C475.025 68.8164 475.616 69.4951 475.987 70.3838V68.1133H479.166V82ZM476.075 75.0127C476.075 73.5771 475.738 72.459 475.064 71.6582C474.4 70.8574 473.468 70.457 472.267 70.457C471.065 70.457 470.118 70.8721 469.425 71.7021C468.741 72.5225 468.399 73.665 468.399 75.1299C468.399 76.6045 468.731 77.7422 469.396 78.543C470.06 79.3438 470.997 79.7441 472.208 79.7441C473.351 79.7441 474.278 79.3096 474.991 78.4404C475.714 77.5713 476.075 76.4287 476.075 75.0127ZM484.308 82V70.8965H481.876V68.1133H484.308V62.8545H487.486V68.1133H489.918V70.8965H487.486V82H484.308ZM492.394 62.1074C492.394 61.5703 492.589 61.1064 492.979 60.7158C493.38 60.3252 493.854 60.1299 494.4 60.1299C494.967 60.1299 495.436 60.3203 495.807 60.7012C496.188 61.0723 496.378 61.541 496.378 62.1074C496.378 62.6738 496.188 63.1523 495.807 63.543C495.426 63.9238 494.957 64.1143 494.4 64.1143C493.854 64.1143 493.38 63.9189 492.979 63.5283C492.589 63.1279 492.394 62.6543 492.394 62.1074ZM492.818 82V68.1133H495.997V82H492.818ZM511.466 75.1006C511.466 73.8115 511.051 72.7227 510.221 71.834C509.391 70.9355 508.375 70.4863 507.174 70.4863C505.982 70.4863 504.967 70.9355 504.127 71.834C503.297 72.7227 502.882 73.8115 502.882 75.1006C502.882 76.3896 503.297 77.4834 504.127 78.3818C504.967 79.2705 505.982 79.7148 507.174 79.7148C508.365 79.7148 509.376 79.2705 510.206 78.3818C511.046 77.4834 511.466 76.3896 511.466 75.1006ZM499.527 75.0713C499.527 74.0557 499.718 73.0986 500.099 72.2002C500.489 71.292 501.046 70.4863 501.769 69.7832C502.481 69.0898 503.302 68.5576 504.229 68.1865C505.157 67.8154 506.129 67.6299 507.145 67.6299C508.189 67.6299 509.171 67.8154 510.089 68.1865C511.017 68.5576 511.847 69.1045 512.579 69.8271C513.312 70.54 513.868 71.3457 514.249 72.2441C514.63 73.1426 514.82 74.085 514.82 75.0713C514.82 76.0967 514.63 77.0586 514.249 77.957C513.878 78.8555 513.331 79.6514 512.608 80.3447C511.847 81.0771 511.002 81.6289 510.074 82C509.146 82.3809 508.17 82.5713 507.145 82.5713C506.139 82.5713 505.172 82.3809 504.244 82C503.316 81.6289 502.491 81.0869 501.769 80.374C501.036 79.6514 500.479 78.8408 500.099 77.9424C499.718 77.0439 499.527 76.0869 499.527 75.0713ZM518.189 82V68.1133H521.178V70.3838C521.812 69.4268 522.56 68.7285 523.419 68.2891C524.278 67.8496 525.323 67.6299 526.554 67.6299C527.589 67.6299 528.468 67.7959 529.19 68.1279C529.923 68.4502 530.494 68.9336 530.904 69.5781C531.148 69.959 531.324 70.4033 531.432 70.9111C531.539 71.4189 531.593 72.3076 531.593 73.5771V82H528.385V74.8662C528.385 73.04 528.16 71.8291 527.711 71.2334C527.271 70.6279 526.485 70.3252 525.353 70.3252C524.61 70.3252 523.946 70.4619 523.36 70.7354C522.784 71.0088 522.33 71.3945 521.998 71.8926C521.764 72.2246 521.598 72.6543 521.5 73.1816C521.412 73.6992 521.368 74.5293 521.368 75.6719V82H518.189Z" fill="#373737"/>
<g filter="url(#filter2_bdi_1775_1127)">
<circle r="94.5685" transform="matrix(-0.492424 -0.870356 -0.870356 0.492424 136.876 134.876)" fill="white" fill-opacity="0.1" shape-rendering="crispEdges"/>
<circle r="94.0685" transform="matrix(-0.492424 -0.870356 -0.870356 0.492424 136.876 134.876)" stroke="url(#paint1_linear_1775_1127)" shape-rendering="crispEdges"/>
</g>
<g clip-path="url(#clip0_1775_1127)">
<g filter="url(#filter3_d_1775_1127)">
<path d="M171.179 153.569C166.775 142.553 162.571 132.039 158.23 121.185C161.151 121.457 163.767 121.7 166.424 121.942C162.548 108.601 146.333 94.8322 129.059 94.8206C128.962 95.8269 128.858 96.8504 128.732 98.0937C127.553 98.0937 126.363 98.0937 124.942 98.0937C124.81 97.0991 124.66 96.0119 124.517 94.9536C109.733 94.2713 90.3033 106.531 85.5767 125.476C86.6059 125.603 87.6237 125.724 88.8083 125.869C88.8083 127.222 88.8083 128.5 88.8083 129.905C87.204 130.01 85.8124 130.102 83.9724 130.229C83.9724 135.324 83.9724 140.274 83.9724 145.23C81.9656 139.424 81.6551 133.445 82.3048 127.453C84.0011 111.724 90.6943 98.6547 103.747 89.5119C117.507 79.8719 132.481 80.4444 147.425 85.9728C163.877 92.0564 174.411 104.096 179.529 120.901C180.132 122.891 180.874 123.943 183.157 123.949C185.606 123.955 188.05 124.516 190.994 124.903C184.318 134.561 177.907 143.842 171.179 153.569Z" fill="#373737"/>
</g>
<g filter="url(#filter4_d_1775_1127)">
<path d="M129.922 174.931C131.371 175.093 132.297 175.191 133.36 175.313C133.36 176.805 133.36 178.21 133.36 179.829C132.331 179.927 131.325 180.026 130.054 180.147C130.054 182.09 130.054 183.97 130.054 186.069C127.921 186.069 126.064 186.069 123.832 186.069C123.832 184.224 123.832 182.275 123.832 180.014C119.411 180.014 115.351 180.014 111.28 180.014C110.653 177.256 111.102 175.133 112.62 173.023C115.696 168.743 118.548 164.302 121.509 159.936C124.373 155.714 124.384 155.72 129.928 156.472C129.922 162.533 129.922 168.639 129.922 174.931ZM117.019 174.862C119.342 174.862 121.469 174.862 123.533 174.862C123.533 171.323 123.533 168.061 123.533 164.406C121.233 167.934 119.186 171.062 117.151 174.197C117.053 174.335 117.076 174.549 117.019 174.862Z" stroke="#373737" stroke-width="2" stroke-miterlimit="10" shape-rendering="crispEdges"/>
</g>
<g filter="url(#filter5_d_1775_1127)">
<path d="M94.0006 180.951C98.7848 180.951 102.833 180.951 107.053 180.951C107.053 182.836 107.053 184.409 107.053 186.138C100.159 186.138 93.4141 186.138 86.6059 186.138C85.8469 183.409 86.5024 181.391 88.6012 179.471C91.6373 176.689 94.3571 173.56 97.2092 170.582C97.3415 170.443 97.4737 170.305 97.5945 170.154C100.211 167.072 100.889 163.863 99.3023 162.116C97.7497 160.41 94.8459 160.699 91.3958 162.897C90.9186 163.203 90.447 163.516 89.7053 163.996C88.5897 162.7 87.4915 161.434 86.3414 160.104C89.5845 156.94 93.2819 155.477 97.606 155.703C105.127 156.09 108.825 162.694 104.92 169.183C103.368 171.768 101.039 173.896 98.9688 176.145C97.5715 177.655 96.0132 179.014 94.0006 180.951Z" stroke="#373737" stroke-width="2" stroke-miterlimit="10" shape-rendering="crispEdges"/>
</g>
<g filter="url(#filter6_d_1775_1127)">
<path d="M170.535 161.434C165.435 161.434 160.846 161.434 156.062 161.434C156.062 159.705 156.062 158.132 156.062 156.368C163.02 156.368 169.966 156.368 177.522 156.368C177.113 158.427 177.027 160.439 176.308 162.191C173.491 169.032 170.282 175.717 167.614 182.616C166.487 185.525 165.044 186.832 161.996 186.312C161.266 186.185 160.496 186.294 159.345 186.294C163.112 177.915 166.752 169.836 170.535 161.434Z" stroke="#373737" stroke-width="2" stroke-miterlimit="10" shape-rendering="crispEdges"/>
</g>
<g filter="url(#filter7_d_1775_1127)">
<path d="M131.848 132.062C130.595 130.86 129.307 129.616 127.76 128.13C131.032 124.897 134.183 121.942 137.121 118.785C137.869 117.981 138.409 116.454 138.231 115.402C137.414 110.55 142.026 104.75 148.248 106.705C146.436 108.139 144.757 109.469 142.802 111.013C145.211 113.233 146.856 114.749 149.093 116.807C150.249 115.101 151.485 113.274 153.037 110.99C155.079 117.49 150.525 122.902 144.999 121.85C143.302 121.526 142.354 121.919 141.267 123.035C138.392 126.002 135.43 128.888 132.498 131.791C132.377 131.918 132.159 131.941 131.848 132.062Z" fill="#373737"/>
</g>
<g filter="url(#filter8_d_1775_1127)">
<path d="M123.355 128.945C122.579 129.269 121.808 129.593 121.032 129.917C121.095 129.703 121.153 129.483 121.216 129.269C119.543 128.61 117.841 128.003 116.202 127.268C115.535 126.968 114.925 126.459 114.396 125.933C110.734 122.284 107.077 118.623 103.46 114.928C101.108 112.528 100.901 110.059 102.781 108.081C104.771 105.982 107.261 106.144 109.785 108.642C113.459 112.279 117.099 115.957 120.727 119.641C121.245 120.167 121.722 120.803 122.004 121.48C122.671 123.053 123.211 124.678 123.804 126.285C124.097 126.228 124.385 126.175 124.678 126.118C124.327 126.968 123.982 127.818 123.631 128.668C123.545 128.766 123.453 128.859 123.355 128.945ZM105.052 112.574C105.093 114.824 115.518 125.268 117.622 125.273C113.471 121.075 109.25 116.819 105.052 112.574ZM120.75 122.208C120.503 122.451 120.256 122.7 120.009 122.943C115.828 118.681 111.642 114.419 107.462 110.157C107.675 109.943 107.882 109.729 108.094 109.515C112.309 113.742 116.53 117.975 120.75 122.208Z" fill="#373737"/>
</g>
<g filter="url(#filter9_d_1775_1127)">
<path d="M136.236 185.936C138.777 179.06 141.301 172.236 143.82 165.407C144.453 163.695 145.068 161.977 145.706 160.266C147.443 155.639 147.448 155.639 152.744 156.53C149.915 164.221 147.103 171.872 144.286 179.517C143.952 180.419 143.596 181.31 143.262 182.212C141.554 186.861 141.554 186.861 136.236 185.936Z" fill="#373737"/>
</g>
<g filter="url(#filter10_d_1775_1127)">
<path d="M122.728 132.826C124.298 134.561 125.5 135.891 127.127 137.689C125.247 139.441 123.28 141.211 121.394 143.062C119.721 144.698 118.031 146.196 117.525 148.827C117.093 151.077 115.075 152.268 112.717 152.06C110.377 151.857 108.83 150.365 108.37 148.093C107.893 145.756 108.888 143.466 111.073 142.992C114.926 142.159 116.777 139.077 119.319 136.758C120.515 135.671 121.458 134.312 122.728 132.826ZM112.413 150.654C112.844 150.66 113.269 150.666 113.701 150.678C114.506 149.585 115.759 148.584 116.007 147.376C116.386 145.496 115.052 144.299 113.172 144.23C111.211 144.154 109.952 145.438 110.228 147.277C110.412 148.486 111.654 149.533 112.413 150.654Z" fill="#373737"/>
</g>
<g filter="url(#filter11_d_1775_1127)">
<path d="M123.355 128.945C123.453 128.864 123.545 128.772 123.631 128.668C124.494 129.119 125.523 129.402 126.184 130.056C131.181 134.977 136.069 140.014 141.071 144.924C142.17 145.999 143.751 146.577 144.849 147.653C145.683 148.468 146.206 149.666 146.632 150.787C146.73 151.042 145.614 152.141 145.43 152.054C144.28 151.516 143.113 150.886 142.198 150.024C141.428 149.295 141.14 148.069 140.393 147.306C135.224 142.015 129.962 136.81 124.799 131.519C124.131 130.831 123.827 129.807 123.355 128.945Z" fill="#373737"/>
</g>
<path d="M105.052 112.574C109.256 116.819 113.471 121.075 117.622 125.273C115.512 125.268 105.093 114.818 105.052 112.574Z" fill="white"/>
<g filter="url(#filter12_d_1775_1127)">
<path d="M120.75 122.208C116.53 117.975 112.309 113.748 108.089 109.515C107.876 109.729 107.669 109.943 107.456 110.157C111.636 114.419 115.823 118.681 120.003 122.943C120.25 122.694 120.503 122.451 120.75 122.208Z" fill="white"/>
</g>
<path d="M112.413 150.654C111.648 149.533 110.412 148.486 110.228 147.277C109.952 145.438 111.205 144.155 113.172 144.23C115.052 144.299 116.386 145.496 116.006 147.376C115.759 148.584 114.506 149.585 113.701 150.678C113.275 150.666 112.844 150.66 112.413 150.654Z" fill="white"/>
</g>
<defs>
<filter id="filter0_di_1775_1127" x="0.769775" y="0.769287" width="315.213" height="244.213" filterUnits="userSpaceOnUse" color-interpolation-filters="sRGB">
<feFlood flood-opacity="0" result="BackgroundImageFix"/>
<feColorMatrix in="SourceAlpha" type="matrix" values="0 0 0 0 0 0 0 0 0 0 0 0 0 0 0 0 0 0 127 0" result="hardAlpha"/>
<feOffset dx="-14" dy="-12"/>
<feGaussianBlur stdDeviation="10"/>
<feComposite in2="hardAlpha" operator="out"/>
<feColorMatrix type="matrix" values="0 0 0 0 1 0 0 0 0 1 0 0 0 0 1 0 0 0 1 0"/>
<feBlend mode="normal" in2="BackgroundImageFix" result="effect1_dropShadow_1775_1127"/>
<feBlend mode="normal" in="SourceGraphic" in2="effect1_dropShadow_1775_1127" result="shape"/>
<feColorMatrix in="SourceAlpha" type="matrix" values="0 0 0 0 0 0 0 0 0 0 0 0 0 0 0 0 0 0 127 0" result="hardAlpha"/>
<feOffset dx="77" dy="4"/>
<feGaussianBlur stdDeviation="50"/>
<feComposite in2="hardAlpha" operator="arithmetic" k2="-1" k3="1"/>
<feColorMatrix type="matrix" values="0 0 0 0 0 0 0 0 0 0 0 0 0 0 0 0 0 0 0.25 0"/>
<feBlend mode="normal" in2="shape" result="effect2_innerShadow_1775_1127"/>
</filter>
<filter id="filter1_bdd_1775_1127" x="7.23169" y="5" width="623.768" height="263.521" filterUnits="userSpaceOnUse" color-interpolation-filters="sRGB">
<feFlood flood-opacity="0" result="BackgroundImageFix"/>
<feGaussianBlur in="BackgroundImageFix" stdDeviation="10"/>
<feComposite in2="SourceAlpha" operator="in" result="effect1_backgroundBlur_1775_1127"/>
<feColorMatrix in="SourceAlpha" type="matrix" values="0 0 0 0 0 0 0 0 0 0 0 0 0 0 0 0 0 0 127 0" result="hardAlpha"/>
<feOffset dy="2"/>
<feGaussianBlur stdDeviation="2.5"/>
<feComposite in2="hardAlpha" operator="out"/>
<feColorMatrix type="matrix" values="0 0 0 0 0 0 0 0 0 0 0 0 0 0 0 0 0 0 0.1 0"/>
<feBlend mode="normal" in2="effect1_backgroundBlur_1775_1127" result="effect2_dropShadow_1775_1127"/>
<feColorMatrix in="SourceAlpha" type="matrix" values="0 0 0 0 0 0 0 0 0 0 0 0 0 0 0 0 0 0 127 0" result="hardAlpha"/>
<feOffset dy="4"/>
<feGaussianBlur stdDeviation="10"/>
<feComposite in2="hardAlpha" operator="out"/>
<feColorMatrix type="matrix" values="0 0 0 0 0 0 0 0 0 0 0 0 0 0 0 0 0 0 0.15 0"/>
<feBlend mode="normal" in2="effect2_dropShadow_1775_1127" result="effect3_dropShadow_1775_1127"/>
<feBlend mode="normal" in="SourceGraphic" in2="effect3_dropShadow_1775_1127" result="shape"/>
</filter>
<filter id="filter2_bdi_1775_1127" x="37.2909" y="35.2909" width="199.17" height="201.17" filterUnits="userSpaceOnUse" color-interpolation-filters="sRGB">
<feFlood flood-opacity="0" result="BackgroundImageFix"/>
<feGaussianBlur in="BackgroundImageFix" stdDeviation="2.5"/>
<feComposite in2="SourceAlpha" operator="in" result="effect1_backgroundBlur_1775_1127"/>
<feColorMatrix in="SourceAlpha" type="matrix" values="0 0 0 0 0 0 0 0 0 0 0 0 0 0 0 0 0 0 127 0" result="hardAlpha"/>
<feOffset dy="2"/>
<feGaussianBlur stdDeviation="2.5"/>
<feComposite in2="hardAlpha" operator="out"/>
<feColorMatrix type="matrix" values="0 0 0 0 0 0 0 0 0 0 0 0 0 0 0 0 0 0 0.1 0"/>
<feBlend mode="normal" in2="effect1_backgroundBlur_1775_1127" result="effect2_dropShadow_1775_1127"/>
<feBlend mode="normal" in="SourceGraphic" in2="effect2_dropShadow_1775_1127" result="shape"/>
<feColorMatrix in="SourceAlpha" type="matrix" values="0 0 0 0 0 0 0 0 0 0 0 0 0 0 0 0 0 0 127 0" result="hardAlpha"/>
<feOffset dx="5"/>
<feGaussianBlur stdDeviation="2.5"/>
<feComposite in2="hardAlpha" operator="arithmetic" k2="-1" k3="1"/>
<feColorMatrix type="matrix" values="0 0 0 0 0.976471 0 0 0 0 0.572549 0 0 0 0 0.180392 0 0 0 1 0"/>
<feBlend mode="normal" in2="shape" result="effect3_innerShadow_1775_1127"/>
</filter>
<filter id="filter3_d_1775_1127" x="77.9991" y="81.9991" width="116.995" height="79.5699" filterUnits="userSpaceOnUse" color-interpolation-filters="sRGB">
<feFlood flood-opacity="0" result="BackgroundImageFix"/>
<feColorMatrix in="SourceAlpha" type="matrix" values="0 0 0 0 0 0 0 0 0 0 0 0 0 0 0 0 0 0 127 0" result="hardAlpha"/>
<feOffset dy="4"/>
<feGaussianBlur stdDeviation="2"/>
<feComposite in2="hardAlpha" operator="out"/>
<feColorMatrix type="matrix" values="0 0 0 0 0 0 0 0 0 0 0 0 0 0 0 0 0 0 0.25 0"/>
<feBlend mode="normal" in2="BackgroundImageFix" result="effect1_dropShadow_1775_1127"/>
<feBlend mode="normal" in="SourceGraphic" in2="effect1_dropShadow_1775_1127" result="shape"/>
</filter>
<filter id="filter4_d_1775_1127" x="106.006" y="155.091" width="32.3545" height="39.978" filterUnits="userSpaceOnUse" color-interpolation-filters="sRGB">
<feFlood flood-opacity="0" result="BackgroundImageFix"/>
<feColorMatrix in="SourceAlpha" type="matrix" values="0 0 0 0 0 0 0 0 0 0 0 0 0 0 0 0 0 0 127 0" result="hardAlpha"/>
<feOffset dy="4"/>
<feGaussianBlur stdDeviation="2"/>
<feComposite in2="hardAlpha" operator="out"/>
<feColorMatrix type="matrix" values="0 0 0 0 0 0 0 0 0 0 0 0 0 0 0 0 0 0 0.25 0"/>
<feBlend mode="normal" in2="BackgroundImageFix" result="effect1_dropShadow_1775_1127"/>
<feBlend mode="normal" in="SourceGraphic" in2="effect1_dropShadow_1775_1127" result="shape"/>
</filter>
<filter id="filter5_d_1775_1127" x="80.969" y="154.68" width="31.0845" height="40.458" filterUnits="userSpaceOnUse" color-interpolation-filters="sRGB">
<feFlood flood-opacity="0" result="BackgroundImageFix"/>
<feColorMatrix in="SourceAlpha" type="matrix" values="0 0 0 0 0 0 0 0 0 0 0 0 0 0 0 0 0 0 127 0" result="hardAlpha"/>
<feOffset dy="4"/>
<feGaussianBlur stdDeviation="2"/>
<feComposite in2="hardAlpha" operator="out"/>
<feColorMatrix type="matrix" values="0 0 0 0 0 0 0 0 0 0 0 0 0 0 0 0 0 0 0.25 0"/>
<feBlend mode="normal" in2="BackgroundImageFix" result="effect1_dropShadow_1775_1127"/>
<feBlend mode="normal" in="SourceGraphic" in2="effect1_dropShadow_1775_1127" result="shape"/>
</filter>
<filter id="filter6_d_1775_1127" x="151.062" y="155.368" width="31.6774" height="40.0554" filterUnits="userSpaceOnUse" color-interpolation-filters="sRGB">
<feFlood flood-opacity="0" result="BackgroundImageFix"/>
<feColorMatrix in="SourceAlpha" type="matrix" values="0 0 0 0 0 0 0 0 0 0 0 0 0 0 0 0 0 0 127 0" result="hardAlpha"/>
<feOffset dy="4"/>
<feGaussianBlur stdDeviation="2"/>
<feComposite in2="hardAlpha" operator="out"/>
<feColorMatrix type="matrix" values="0 0 0 0 0 0 0 0 0 0 0 0 0 0 0 0 0 0 0.25 0"/>
<feBlend mode="normal" in2="BackgroundImageFix" result="effect1_dropShadow_1775_1127"/>
<feBlend mode="normal" in="SourceGraphic" in2="effect1_dropShadow_1775_1127" result="shape"/>
</filter>
<filter id="filter7_d_1775_1127" x="123.76" y="106.315" width="33.7748" height="33.7471" filterUnits="userSpaceOnUse" color-interpolation-filters="sRGB">
<feFlood flood-opacity="0" result="BackgroundImageFix"/>
<feColorMatrix in="SourceAlpha" type="matrix" values="0 0 0 0 0 0 0 0 0 0 0 0 0 0 0 0 0 0 127 0" result="hardAlpha"/>
<feOffset dy="4"/>
<feGaussianBlur stdDeviation="2"/>
<feComposite in2="hardAlpha" operator="out"/>
<feColorMatrix type="matrix" values="0 0 0 0 0 0 0 0 0 0 0 0 0 0 0 0 0 0 0.25 0"/>
<feBlend mode="normal" in2="BackgroundImageFix" result="effect1_dropShadow_1775_1127"/>
<feBlend mode="normal" in="SourceGraphic" in2="effect1_dropShadow_1775_1127" result="shape"/>
</filter>
<filter id="filter8_d_1775_1127" x="97.516" y="106.627" width="31.1617" height="31.2904" filterUnits="userSpaceOnUse" color-interpolation-filters="sRGB">
<feFlood flood-opacity="0" result="BackgroundImageFix"/>
<feColorMatrix in="SourceAlpha" type="matrix" values="0 0 0 0 0 0 0 0 0 0 0 0 0 0 0 0 0 0 127 0" result="hardAlpha"/>
<feOffset dy="4"/>
<feGaussianBlur stdDeviation="2"/>
<feComposite in2="hardAlpha" operator="out"/>
<feColorMatrix type="matrix" values="0 0 0 0 0 0 0 0 0 0 0 0 0 0 0 0 0 0 0.25 0"/>
<feBlend mode="normal" in2="BackgroundImageFix" result="effect1_dropShadow_1775_1127"/>
<feBlend mode="normal" in="SourceGraphic" in2="effect1_dropShadow_1775_1127" result="shape"/>
</filter>
<filter id="filter9_d_1775_1127" x="132.236" y="156.07" width="24.5087" height="38.3491" filterUnits="userSpaceOnUse" color-interpolation-filters="sRGB">
<feFlood flood-opacity="0" result="BackgroundImageFix"/>
<feColorMatrix in="SourceAlpha" type="matrix" values="0 0 0 0 0 0 0 0 0 0 0 0 0 0 0 0 0 0 127 0" result="hardAlpha"/>
<feOffset dy="4"/>
<feGaussianBlur stdDeviation="2"/>
<feComposite in2="hardAlpha" operator="out"/>
<feColorMatrix type="matrix" values="0 0 0 0 0 0 0 0 0 0 0 0 0 0 0 0 0 0 0.25 0"/>
<feBlend mode="normal" in2="BackgroundImageFix" result="effect1_dropShadow_1775_1127"/>
<feBlend mode="normal" in="SourceGraphic" in2="effect1_dropShadow_1775_1127" result="shape"/>
</filter>
<filter id="filter10_d_1775_1127" x="104.253" y="132.826" width="26.8743" height="27.2573" filterUnits="userSpaceOnUse" color-interpolation-filters="sRGB">
<feFlood flood-opacity="0" result="BackgroundImageFix"/>
<feColorMatrix in="SourceAlpha" type="matrix" values="0 0 0 0 0 0 0 0 0 0 0 0 0 0 0 0 0 0 127 0" result="hardAlpha"/>
<feOffset dy="4"/>
<feGaussianBlur stdDeviation="2"/>
<feComposite in2="hardAlpha" operator="out"/>
<feColorMatrix type="matrix" values="0 0 0 0 0 0 0 0 0 0 0 0 0 0 0 0 0 0 0.25 0"/>
<feBlend mode="normal" in2="BackgroundImageFix" result="effect1_dropShadow_1775_1127"/>
<feBlend mode="normal" in="SourceGraphic" in2="effect1_dropShadow_1775_1127" result="shape"/>
</filter>
<filter id="filter11_d_1775_1127" x="119.355" y="128.668" width="31.2827" height="31.3909" filterUnits="userSpaceOnUse" color-interpolation-filters="sRGB">
<feFlood flood-opacity="0" result="BackgroundImageFix"/>
<feColorMatrix in="SourceAlpha" type="matrix" values="0 0 0 0 0 0 0 0 0 0 0 0 0 0 0 0 0 0 127 0" result="hardAlpha"/>
<feOffset dy="4"/>
<feGaussianBlur stdDeviation="2"/>
<feComposite in2="hardAlpha" operator="out"/>
<feColorMatrix type="matrix" values="0 0 0 0 0 0 0 0 0 0 0 0 0 0 0 0 0 0 0.25 0"/>
<feBlend mode="normal" in2="BackgroundImageFix" result="effect1_dropShadow_1775_1127"/>
<feBlend mode="normal" in="SourceGraphic" in2="effect1_dropShadow_1775_1127" result="shape"/>
</filter>
<filter id="filter12_d_1775_1127" x="103.456" y="109.515" width="21.2943" height="21.4279" filterUnits="userSpaceOnUse" color-interpolation-filters="sRGB">
<feFlood flood-opacity="0" result="BackgroundImageFix"/>
<feColorMatrix in="SourceAlpha" type="matrix" values="0 0 0 0 0 0 0 0 0 0 0 0 0 0 0 0 0 0 127 0" result="hardAlpha"/>
<feOffset dy="4"/>
<feGaussianBlur stdDeviation="2"/>
<feComposite in2="hardAlpha" operator="out"/>
<feColorMatrix type="matrix" values="0 0 0 0 0 0 0 0 0 0 0 0 0 0 0 0 0 0 0.25 0"/>
<feBlend mode="normal" in2="BackgroundImageFix" result="effect1_dropShadow_1775_1127"/>
<feBlend mode="normal" in="SourceGraphic" in2="effect1_dropShadow_1775_1127" result="shape"/>
</filter>
<linearGradient id="paint0_linear_1775_1127" x1="124.82" y1="20.3162" x2="-393.946" y2="331.874" gradientUnits="userSpaceOnUse">
<stop offset="0.21826" stop-color="white"/>
<stop offset="0.69101" stop-color="white" stop-opacity="0"/>
</linearGradient>
<linearGradient id="paint1_linear_1775_1127" x1="31.0458" y1="-4.23931" x2="205.606" y2="26.7678" gradientUnits="userSpaceOnUse">
<stop offset="0.21826" stop-color="white"/>
<stop offset="0.69101" stop-color="white" stop-opacity="0"/>
</linearGradient>
<clipPath id="clip0_1775_1127">
<rect width="109" height="105" fill="white" transform="translate(82 82)"/>
</clipPath>
</defs>
</svg>
