<svg width="631" height="269" viewBox="0 0 631 269" fill="none" xmlns="http://www.w3.org/2000/svg">
<g filter="url(#filter0_di_1775_850)">
<circle r="102.107" transform="matrix(-1 0 0 1 136.876 134.876)" fill="white"/>
</g>
<g filter="url(#filter1_bdd_1775_850)">
<mask id="path-2-inside-1_1775_850" fill="white">
<path fill-rule="evenodd" clip-rule="evenodd" d="M171 25H565C590.405 25 611 45.5949 611 71C611 96.4051 590.405 117 565 117H263.026C253.618 117 246.521 125.469 246.521 134.877C246.521 195.432 197.431 244.521 136.876 244.521C76.3213 244.521 27.2317 195.432 27.2317 134.877C27.2317 74.3216 76.3213 25.232 136.876 25.232C139.024 25.232 141.157 25.2937 143.274 25.4155C152.468 25.9445 161.791 25 171 25Z"/>
</mask>
<path fill-rule="evenodd" clip-rule="evenodd" d="M171 25H565C590.405 25 611 45.5949 611 71C611 96.4051 590.405 117 565 117H263.026C253.618 117 246.521 125.469 246.521 134.877C246.521 195.432 197.431 244.521 136.876 244.521C76.3213 244.521 27.2317 195.432 27.2317 134.877C27.2317 74.3216 76.3213 25.232 136.876 25.232C139.024 25.232 141.157 25.2937 143.274 25.4155C152.468 25.9445 161.791 25 171 25Z" fill="white" fill-opacity="0.1" shape-rendering="crispEdges"/>
<path d="M143.274 25.4155L143.331 24.4172L143.274 25.4155ZM565 26H171V24H565V26ZM263.026 116H565V118H263.026V116ZM136.876 243.521C196.879 243.521 245.521 194.879 245.521 134.877H247.521C247.521 195.984 197.984 245.521 136.876 245.521V243.521ZM28.2317 134.877C28.2317 194.879 76.8736 243.521 136.876 243.521V245.521C75.769 245.521 26.2317 195.984 26.2317 134.877H28.2317ZM136.876 26.232C76.8736 26.232 28.2317 74.8739 28.2317 134.877H26.2317C26.2317 73.7693 75.769 24.232 136.876 24.232V26.232ZM143.216 26.4139C141.118 26.2932 139.005 26.232 136.876 26.232V24.232C139.043 24.232 141.195 24.2943 143.331 24.4172L143.216 26.4139ZM143.331 24.4172C147.879 24.6788 152.469 24.5766 157.095 24.4068C161.706 24.2375 166.371 24 171 24V26C166.42 26 161.818 26.2347 157.168 26.4055C152.531 26.5757 147.863 26.6812 143.216 26.4139L143.331 24.4172ZM263.026 118C254.271 118 247.521 125.915 247.521 134.877H245.521C245.521 125.023 252.965 116 263.026 116V118ZM612 71C612 96.9574 590.957 118 565 118V116C589.853 116 610 95.8528 610 71H612ZM565 24C590.957 24 612 45.0426 612 71H610C610 46.1472 589.853 26 565 26V24Z" fill="url(#paint0_linear_1775_850)" mask="url(#path-2-inside-1_1775_850)"/>
</g>
<path d="M320.23 77.708L323.014 76.4189C323.277 77.376 323.761 78.1084 324.464 78.6162C325.167 79.1143 326.065 79.3633 327.159 79.3633C328.194 79.3633 329.015 79.0752 329.62 78.499C330.235 77.9229 330.543 77.1514 330.543 76.1846C330.543 74.9248 329.498 73.8018 327.408 72.8154C327.115 72.6689 326.891 72.5615 326.734 72.4932C324.371 71.3408 322.794 70.3008 322.003 69.373C321.222 68.4355 320.831 67.293 320.831 65.9453C320.831 64.1973 321.422 62.7812 322.604 61.6973C323.795 60.6133 325.353 60.0713 327.276 60.0713C328.858 60.0713 330.182 60.3789 331.246 60.9941C332.311 61.5996 333.048 62.4736 333.458 63.6162L330.733 65.0225C330.304 64.3486 329.83 63.8555 329.312 63.543C328.805 63.2305 328.219 63.0742 327.555 63.0742C326.617 63.0742 325.87 63.3184 325.313 63.8066C324.767 64.2949 324.493 64.9492 324.493 65.7695C324.493 67.0586 325.704 68.2598 328.126 69.373C328.312 69.4609 328.458 69.5293 328.565 69.5781C330.685 70.5547 332.14 71.5117 332.931 72.4492C333.722 73.377 334.117 74.5391 334.117 75.9355C334.117 77.9668 333.478 79.583 332.198 80.7842C330.919 81.9756 329.19 82.5713 327.013 82.5713C325.187 82.5713 323.688 82.1514 322.516 81.3115C321.354 80.4717 320.592 79.2705 320.23 77.708ZM340.738 75.0127C340.738 76.4482 341.095 77.5957 341.808 78.4551C342.53 79.3145 343.478 79.7441 344.649 79.7441C345.851 79.7441 346.778 79.3438 347.433 78.543C348.097 77.7422 348.429 76.6045 348.429 75.1299C348.429 73.665 348.082 72.5225 347.389 71.7021C346.705 70.8721 345.763 70.457 344.562 70.457C343.36 70.457 342.423 70.8574 341.749 71.6582C341.075 72.459 340.738 73.5771 340.738 75.0127ZM337.662 88.5332V68.1133H340.841V70.3838C341.212 69.5049 341.803 68.8262 342.613 68.3477C343.434 67.8691 344.41 67.6299 345.543 67.6299C347.389 67.6299 348.883 68.3135 350.025 69.6807C351.178 71.0381 351.754 72.8252 351.754 75.042C351.754 77.376 351.188 79.2168 350.055 80.5645C348.932 81.9023 347.389 82.5713 345.426 82.5713C344.449 82.5713 343.58 82.376 342.818 81.9854C342.066 81.5947 341.407 80.999 340.841 80.1982V88.5332H337.662ZM358.199 75.0127C358.199 76.4482 358.556 77.5957 359.269 78.4551C359.991 79.3145 360.938 79.7441 362.11 79.7441C363.312 79.7441 364.239 79.3438 364.894 78.543C365.558 77.7422 365.89 76.6045 365.89 75.1299C365.89 73.665 365.543 72.5225 364.85 71.7021C364.166 70.8721 363.224 70.457 362.022 70.457C360.821 70.457 359.884 70.8574 359.21 71.6582C358.536 72.459 358.199 73.5771 358.199 75.0127ZM355.123 88.5332V68.1133H358.302V70.3838C358.673 69.5049 359.264 68.8262 360.074 68.3477C360.895 67.8691 361.871 67.6299 363.004 67.6299C364.85 67.6299 366.344 68.3135 367.486 69.6807C368.639 71.0381 369.215 72.8252 369.215 75.042C369.215 77.376 368.648 79.2168 367.516 80.5645C366.393 81.9023 364.85 82.5713 362.887 82.5713C361.91 82.5713 361.041 82.376 360.279 81.9854C359.527 81.5947 358.868 80.999 358.302 80.1982V88.5332H355.123ZM385.958 75.5254H374.854C374.933 76.8242 375.318 77.8398 376.012 78.5723C376.705 79.2949 377.628 79.6562 378.78 79.6562C379.806 79.6562 380.66 79.4414 381.344 79.0117C382.027 78.582 382.623 77.8887 383.131 76.9316L385.812 78.4258C385.03 79.8223 384.063 80.8623 382.911 81.5459C381.759 82.2295 380.406 82.5713 378.854 82.5713C376.627 82.5713 374.854 81.8926 373.536 80.5352C372.218 79.1777 371.559 77.3662 371.559 75.1006C371.559 72.9229 372.237 71.1357 373.595 69.7393C374.962 68.333 376.715 67.6299 378.854 67.6299C381.09 67.6299 382.833 68.2695 384.083 69.5488C385.333 70.8281 385.958 72.6201 385.958 74.9248V75.5254ZM382.662 73.3867C382.535 72.3906 382.154 71.6338 381.52 71.1162C380.885 70.5889 380.016 70.3252 378.912 70.3252C377.867 70.3252 377.027 70.5791 376.393 71.0869C375.758 71.5947 375.313 72.3613 375.06 73.3867H382.662ZM399.259 75.0127C399.259 73.5771 398.922 72.459 398.248 71.6582C397.584 70.8574 396.651 70.457 395.45 70.457C394.249 70.457 393.302 70.8721 392.608 71.7021C391.925 72.5225 391.583 73.665 391.583 75.1299C391.583 76.6045 391.915 77.7422 392.579 78.543C393.243 79.3438 394.181 79.7441 395.392 79.7441C396.544 79.7441 397.477 79.3145 398.189 78.4551C398.902 77.5859 399.259 76.4385 399.259 75.0127ZM399.171 59.2949H402.35V82H399.171V80.1982C398.604 80.999 397.94 81.5947 397.179 81.9854C396.427 82.376 395.562 82.5713 394.586 82.5713C392.623 82.5713 391.075 81.9023 389.942 80.5645C388.819 79.2168 388.258 77.376 388.258 75.042C388.258 72.8252 388.834 71.0381 389.986 69.6807C391.139 68.3135 392.643 67.6299 394.498 67.6299C395.631 67.6299 396.598 67.8691 397.398 68.3477C398.209 68.8164 398.8 69.4951 399.171 70.3838V59.2949ZM421.964 68.3184L422.755 67.8643C423.302 67.542 423.712 67.1709 423.985 66.751C424.259 66.3213 424.396 65.8428 424.396 65.3154C424.396 64.71 424.21 64.2168 423.839 63.8359C423.468 63.4453 422.984 63.25 422.389 63.25C421.734 63.25 421.207 63.4453 420.807 63.8359C420.406 64.2266 420.206 64.7295 420.206 65.3447C420.206 65.6475 420.26 65.9404 420.367 66.2236C420.484 66.5068 420.66 66.7754 420.895 67.0293L421.964 68.3184ZM425.816 77.6787L421.129 72.2734L420.587 72.6396C419.562 73.3037 418.844 73.9141 418.434 74.4707C418.033 75.0176 417.833 75.6279 417.833 76.3018C417.833 77.249 418.165 78.0498 418.829 78.7041C419.493 79.3584 420.318 79.6855 421.305 79.6855C422.037 79.6855 422.774 79.5195 423.517 79.1875C424.269 78.8555 425.035 78.3525 425.816 77.6787ZM429.522 82L427.794 79.9639C426.778 80.833 425.733 81.4775 424.659 81.8975C423.595 82.3076 422.428 82.5127 421.158 82.5127C419.186 82.5127 417.579 81.9414 416.339 80.7988C415.108 79.6562 414.493 78.1865 414.493 76.3896C414.493 75.1689 414.874 74.0459 415.636 73.0205C416.397 71.9854 417.608 70.9502 419.269 69.915L418.404 68.9775C417.926 68.46 417.56 67.8936 417.306 67.2783C417.052 66.6631 416.925 66.0381 416.925 65.4033C416.925 63.9971 417.438 62.8447 418.463 61.9463C419.498 61.0381 420.826 60.584 422.447 60.584C424.059 60.584 425.338 60.9941 426.285 61.8145C427.232 62.625 427.706 63.7236 427.706 65.1104C427.706 66.1553 427.374 67.1123 426.71 67.9814C426.046 68.8408 424.986 69.6953 423.531 70.5449L427.999 75.7305C428.429 75.3008 428.868 74.8125 429.317 74.2656C429.767 73.7188 430.245 73.0889 430.753 72.376L432.804 74.5586C432.413 75.1836 431.979 75.7793 431.5 76.3457C431.021 76.9023 430.504 77.4248 429.947 77.9131L433.551 82H429.522ZM445.24 82V60.5547H457.208V63.5137H448.727V68.8896H457.208V71.9512H448.727V78.8799H457.208V82H445.24ZM474.01 82H470.831V80.1982C470.265 80.999 469.601 81.5947 468.839 81.9854C468.087 82.376 467.223 82.5713 466.246 82.5713C464.283 82.5713 462.735 81.9023 461.603 80.5645C460.479 79.2168 459.918 77.376 459.918 75.042C459.918 72.8252 460.494 71.0381 461.646 69.6807C462.799 68.3135 464.303 67.6299 466.158 67.6299C467.291 67.6299 468.258 67.8691 469.059 68.3477C469.869 68.8164 470.46 69.4951 470.831 70.3838V68.1133H474.01V82ZM470.919 75.0127C470.919 73.5771 470.582 72.459 469.908 71.6582C469.244 70.8574 468.312 70.457 467.11 70.457C465.909 70.457 464.962 70.8721 464.269 71.7021C463.585 72.5225 463.243 73.665 463.243 75.1299C463.243 76.6045 463.575 77.7422 464.239 78.543C464.903 79.3438 465.841 79.7441 467.052 79.7441C468.194 79.7441 469.122 79.3096 469.835 78.4404C470.558 77.5713 470.919 76.4287 470.919 75.0127ZM476.808 79.4805L479.444 78.0449C479.64 78.7383 480.001 79.2656 480.528 79.627C481.056 79.9883 481.734 80.1689 482.564 80.1689C483.277 80.1689 483.834 80.0078 484.234 79.6855C484.645 79.3535 484.85 78.9043 484.85 78.3379C484.85 77.5859 484.127 76.9414 482.682 76.4043C482.193 76.2285 481.817 76.082 481.554 75.9648C480.069 75.3496 479.029 74.7246 478.434 74.0898C477.848 73.4551 477.555 72.6836 477.555 71.7754C477.555 70.5352 478.038 69.5293 479.005 68.7578C479.981 67.9863 481.271 67.6006 482.872 67.6006C483.946 67.6006 484.864 67.8008 485.626 68.2012C486.397 68.5918 486.959 69.1533 487.311 69.8857L485.055 71.4385C484.889 70.999 484.596 70.6523 484.176 70.3984C483.766 70.1348 483.287 70.0029 482.74 70.0029C482.135 70.0029 481.646 70.1494 481.275 70.4424C480.914 70.7256 480.733 71.1064 480.733 71.585C480.733 72.3076 481.554 72.9668 483.194 73.5625C483.712 73.748 484.112 73.8994 484.396 74.0166C485.675 74.5244 486.588 75.1006 487.135 75.7451C487.691 76.3799 487.97 77.1758 487.97 78.1328C487.97 79.5195 487.467 80.6084 486.461 81.3994C485.455 82.1807 484.068 82.5713 482.301 82.5713C480.943 82.5713 479.815 82.3174 478.917 81.8096C478.019 81.3018 477.315 80.5254 476.808 79.4805ZM504.552 75.5254H493.448C493.526 76.8242 493.912 77.8398 494.605 78.5723C495.299 79.2949 496.222 79.6562 497.374 79.6562C498.399 79.6562 499.254 79.4414 499.938 79.0117C500.621 78.582 501.217 77.8887 501.725 76.9316L504.405 78.4258C503.624 79.8223 502.657 80.8623 501.505 81.5459C500.353 82.2295 499 82.5713 497.447 82.5713C495.221 82.5713 493.448 81.8926 492.13 80.5352C490.812 79.1777 490.152 77.3662 490.152 75.1006C490.152 72.9229 490.831 71.1357 492.188 69.7393C493.556 68.333 495.309 67.6299 497.447 67.6299C499.684 67.6299 501.427 68.2695 502.677 69.5488C503.927 70.8281 504.552 72.6201 504.552 74.9248V75.5254ZM501.256 73.3867C501.129 72.3906 500.748 71.6338 500.113 71.1162C499.479 70.5889 498.609 70.3252 497.506 70.3252C496.461 70.3252 495.621 70.5791 494.986 71.0869C494.352 71.5947 493.907 72.3613 493.653 73.3867H501.256Z" fill="#373737"/>
<g filter="url(#filter2_bdi_1775_850)">
<circle r="94.5685" transform="matrix(-0.492424 -0.870356 -0.870356 0.492424 136.876 134.876)" fill="white" fill-opacity="0.1" shape-rendering="crispEdges"/>
<circle r="94.0685" transform="matrix(-0.492424 -0.870356 -0.870356 0.492424 136.876 134.876)" stroke="url(#paint1_linear_1775_850)" shape-rendering="crispEdges"/>
</g>
<g clip-path="url(#clip0_1775_850)">
<g filter="url(#filter3_d_1775_850)">
<path d="M127.464 141.819C128.98 142.746 130.496 143.673 132.013 144.592C139.378 149.07 146.747 153.548 154.116 158.025C155.904 159.114 155.955 160.377 154.261 161.643C149.988 164.831 145.719 168.018 141.446 171.206C141.319 171.297 141.197 171.392 140.953 171.577C141.272 171.609 141.461 171.648 141.65 171.648C147.401 171.64 153.151 171.636 158.901 171.609C159.263 171.609 159.685 171.471 159.976 171.254C163.816 168.413 167.645 165.561 171.461 162.689C173.391 161.237 173.332 159.568 171.268 158.278C170.405 157.737 169.437 157.355 168.48 156.996C155.049 151.962 141.611 146.943 128.173 141.925C127.96 141.846 127.736 141.783 127.519 141.712C127.499 141.744 127.483 141.783 127.464 141.819Z" fill="url(#paint2_linear_1775_850)"/>
<path d="M175.014 159.489C175.277 159.741 175.573 159.974 175.801 160.258C176.656 161.323 176.522 162.286 175.431 163.099C171.961 165.691 168.491 168.279 165.025 170.871C164.762 171.068 164.498 171.273 164.037 171.624C164.533 171.624 164.781 171.624 165.033 171.624C169.89 171.624 174.746 171.628 179.602 171.62C180.524 171.62 181.449 171.589 182.367 171.538C182.615 171.526 182.895 171.435 183.091 171.293C184.497 170.263 185.907 169.238 187.274 168.16C188.909 166.874 188.865 165.442 187.176 164.219C186.687 163.868 186.152 163.553 185.592 163.339C182.103 162.006 178.598 160.704 175.096 159.394C175.069 159.422 175.041 159.453 175.014 159.489Z" fill="url(#paint3_linear_1775_850)"/>
<path d="M190.185 165.344C190.484 165.6 190.819 165.821 191.075 166.113C191.847 167.012 191.772 167.833 190.839 168.563C189.618 169.514 188.369 170.425 187.172 171.514C193.867 171.514 200.567 171.514 207.325 171.514C201.642 169.387 195.982 167.273 190.323 165.158C190.275 165.221 190.228 165.284 190.185 165.344Z" fill="url(#paint4_linear_1775_850)"/>
</g>
<g filter="url(#filter4_d_1775_850)">
<path d="M121.769 140.836C122.225 141.053 122.686 141.27 123.143 141.487C123.911 141.688 124.73 141.811 125.12 142.6C128.452 143.681 134.915 146.766 147.684 150.281C146.262 148.679 134.864 145.646 129.862 142.88C127.003 141.298 124.821 139.862 125.037 136.733C125.081 136.086 124.943 135.412 124.9 134.749C124.774 132.883 124.069 130.922 122.296 130.023C120.5 129.111 120.445 131.865 118.279 131.995C120.489 127.581 116.511 125.643 113.395 123.316C111.855 123.375 114.029 125.426 112.174 125.355C110.41 119.087 103.738 115.958 99.9058 110.987C98.673 109.389 97.3339 108.008 95.3095 110.135C94.2186 101.239 86.6448 96.1493 81.1899 89.9948C79.2482 87.8013 78.4566 89.7462 77.9997 90.9535C75.3176 98.0114 73.6555 105.105 80.5283 112.029C80.3116 112.751 79.8193 112.364 79.4373 112.234C78.9804 112.076 78.5432 111.863 77.8186 111.555C78.3384 114.684 80.2683 117.185 81.2608 119.903C82.4503 123.154 86.2549 123.675 88.4526 125.864C87.6964 126.886 86.6369 125.407 85.5893 126.354C90.2603 130.413 91.7964 138.09 101.245 136.962C100.323 137.578 99.3977 138.189 98.3658 138.876C100.953 140.757 103.344 142.481 106.57 142.383C107.684 142.347 107.377 143.121 107.72 143.582C109.512 146.008 111.28 143.44 113.439 143.637C112.162 146.648 114.214 147.121 116.786 147.058C118.003 147.026 119.24 146.936 120.386 146.663C122.143 146.245 124.36 145.602 124.482 144.028C124.592 142.564 121.969 142.517 120.713 141.617C108.701 136.007 99.1338 128.046 92.009 117.722C100.252 127.198 110.296 134.769 121.769 140.836Z" fill="url(#paint5_linear_1775_850)"/>
</g>
<g filter="url(#filter5_d_1775_850)">
<path d="M128.381 160.901C123.068 159.765 117.988 157.71 113.131 155.28C110.701 154.06 108.346 152.691 106.054 151.236C103.766 149.768 101.521 148.226 99.3782 146.549C97.2395 144.868 95.1482 143.124 93.1711 141.258L92.4227 140.568L91.6941 139.854L90.2369 138.426C89.3034 137.439 88.3385 136.481 87.4444 135.455L86.0896 133.932C85.6406 133.423 85.2152 132.891 84.7781 132.37C83.8958 131.336 83.0648 130.259 82.2338 129.186L81.6154 128.377L81.0207 127.549L79.8313 125.892C79.0514 124.779 78.3149 123.639 77.5548 122.511C78.3425 123.619 79.1066 124.74 79.91 125.833L81.1349 127.458L81.7493 128.271L82.3874 129.064L83.6595 130.654C84.077 131.186 84.5339 131.691 84.971 132.208C85.4161 132.721 85.8454 133.246 86.2983 133.747L87.6689 135.25C88.1219 135.755 88.5905 136.244 89.0671 136.725L90.481 138.185L91.9383 139.601L92.6669 140.308L93.4192 140.994C95.3963 142.844 97.4916 144.568 99.6263 146.237C103.9 149.567 108.476 152.506 113.277 155.011C115.68 156.266 118.145 157.394 120.662 158.396C123.167 159.398 125.735 160.298 128.381 160.901Z" fill="#373737"/>
</g>
<g filter="url(#filter6_d_1775_850)">
<path d="M134.911 165.442C132.714 165.45 130.524 165.154 128.358 164.772C126.196 164.369 124.049 163.848 121.942 163.194C117.724 161.9 113.655 160.136 109.784 158.017C105.928 155.871 102.249 153.394 98.874 150.557C95.4908 147.732 92.3597 144.616 89.583 141.215C92.722 144.28 95.9989 147.176 99.449 149.835C99.8744 150.174 100.315 150.494 100.757 150.814L102.072 151.78C102.974 152.392 103.848 153.035 104.77 153.611C106.578 154.822 108.449 155.927 110.351 156.976C112.241 158.045 114.199 158.992 116.18 159.887C118.157 160.791 120.181 161.584 122.229 162.318C124.281 163.036 126.365 163.675 128.48 164.204C130.595 164.74 132.733 165.186 134.911 165.442Z" fill="#373737"/>
</g>
<g filter="url(#filter7_d_1775_850)">
<path d="M130.78 168.314C130.78 168.314 121.016 170.571 109.796 163.328" stroke="#373737" stroke-width="0.5" stroke-miterlimit="10" shape-rendering="crispEdges"/>
</g>
</g>
<defs>
<filter id="filter0_di_1775_850" x="0.769775" y="0.769287" width="315.213" height="244.213" filterUnits="userSpaceOnUse" color-interpolation-filters="sRGB">
<feFlood flood-opacity="0" result="BackgroundImageFix"/>
<feColorMatrix in="SourceAlpha" type="matrix" values="0 0 0 0 0 0 0 0 0 0 0 0 0 0 0 0 0 0 127 0" result="hardAlpha"/>
<feOffset dx="-14" dy="-12"/>
<feGaussianBlur stdDeviation="10"/>
<feComposite in2="hardAlpha" operator="out"/>
<feColorMatrix type="matrix" values="0 0 0 0 1 0 0 0 0 1 0 0 0 0 1 0 0 0 1 0"/>
<feBlend mode="normal" in2="BackgroundImageFix" result="effect1_dropShadow_1775_850"/>
<feBlend mode="normal" in="SourceGraphic" in2="effect1_dropShadow_1775_850" result="shape"/>
<feColorMatrix in="SourceAlpha" type="matrix" values="0 0 0 0 0 0 0 0 0 0 0 0 0 0 0 0 0 0 127 0" result="hardAlpha"/>
<feOffset dx="77" dy="4"/>
<feGaussianBlur stdDeviation="50"/>
<feComposite in2="hardAlpha" operator="arithmetic" k2="-1" k3="1"/>
<feColorMatrix type="matrix" values="0 0 0 0 0 0 0 0 0 0 0 0 0 0 0 0 0 0 0.25 0"/>
<feBlend mode="normal" in2="shape" result="effect2_innerShadow_1775_850"/>
</filter>
<filter id="filter1_bdd_1775_850" x="7.23169" y="5" width="623.768" height="263.521" filterUnits="userSpaceOnUse" color-interpolation-filters="sRGB">
<feFlood flood-opacity="0" result="BackgroundImageFix"/>
<feGaussianBlur in="BackgroundImageFix" stdDeviation="10"/>
<feComposite in2="SourceAlpha" operator="in" result="effect1_backgroundBlur_1775_850"/>
<feColorMatrix in="SourceAlpha" type="matrix" values="0 0 0 0 0 0 0 0 0 0 0 0 0 0 0 0 0 0 127 0" result="hardAlpha"/>
<feOffset dy="2"/>
<feGaussianBlur stdDeviation="2.5"/>
<feComposite in2="hardAlpha" operator="out"/>
<feColorMatrix type="matrix" values="0 0 0 0 0 0 0 0 0 0 0 0 0 0 0 0 0 0 0.1 0"/>
<feBlend mode="normal" in2="effect1_backgroundBlur_1775_850" result="effect2_dropShadow_1775_850"/>
<feColorMatrix in="SourceAlpha" type="matrix" values="0 0 0 0 0 0 0 0 0 0 0 0 0 0 0 0 0 0 127 0" result="hardAlpha"/>
<feOffset dy="4"/>
<feGaussianBlur stdDeviation="10"/>
<feComposite in2="hardAlpha" operator="out"/>
<feColorMatrix type="matrix" values="0 0 0 0 0 0 0 0 0 0 0 0 0 0 0 0 0 0 0.15 0"/>
<feBlend mode="normal" in2="effect2_dropShadow_1775_850" result="effect3_dropShadow_1775_850"/>
<feBlend mode="normal" in="SourceGraphic" in2="effect3_dropShadow_1775_850" result="shape"/>
</filter>
<filter id="filter2_bdi_1775_850" x="37.2909" y="35.2909" width="199.17" height="201.17" filterUnits="userSpaceOnUse" color-interpolation-filters="sRGB">
<feFlood flood-opacity="0" result="BackgroundImageFix"/>
<feGaussianBlur in="BackgroundImageFix" stdDeviation="2.5"/>
<feComposite in2="SourceAlpha" operator="in" result="effect1_backgroundBlur_1775_850"/>
<feColorMatrix in="SourceAlpha" type="matrix" values="0 0 0 0 0 0 0 0 0 0 0 0 0 0 0 0 0 0 127 0" result="hardAlpha"/>
<feOffset dy="2"/>
<feGaussianBlur stdDeviation="2.5"/>
<feComposite in2="hardAlpha" operator="out"/>
<feColorMatrix type="matrix" values="0 0 0 0 0 0 0 0 0 0 0 0 0 0 0 0 0 0 0.1 0"/>
<feBlend mode="normal" in2="effect1_backgroundBlur_1775_850" result="effect2_dropShadow_1775_850"/>
<feBlend mode="normal" in="SourceGraphic" in2="effect2_dropShadow_1775_850" result="shape"/>
<feColorMatrix in="SourceAlpha" type="matrix" values="0 0 0 0 0 0 0 0 0 0 0 0 0 0 0 0 0 0 127 0" result="hardAlpha"/>
<feOffset dx="5"/>
<feGaussianBlur stdDeviation="2.5"/>
<feComposite in2="hardAlpha" operator="arithmetic" k2="-1" k3="1"/>
<feColorMatrix type="matrix" values="0 0 0 0 0.976471 0 0 0 0 0.572549 0 0 0 0 0.180392 0 0 0 1 0"/>
<feBlend mode="normal" in2="shape" result="effect3_innerShadow_1775_850"/>
</filter>
<filter id="filter3_d_1775_850" x="123.464" y="141.712" width="87.8615" height="37.936" filterUnits="userSpaceOnUse" color-interpolation-filters="sRGB">
<feFlood flood-opacity="0" result="BackgroundImageFix"/>
<feColorMatrix in="SourceAlpha" type="matrix" values="0 0 0 0 0 0 0 0 0 0 0 0 0 0 0 0 0 0 127 0" result="hardAlpha"/>
<feOffset dy="4"/>
<feGaussianBlur stdDeviation="2"/>
<feComposite in2="hardAlpha" operator="out"/>
<feColorMatrix type="matrix" values="0 0 0 0 0 0 0 0 0 0 0 0 0 0 0 0 0 0 0.25 0"/>
<feBlend mode="normal" in2="BackgroundImageFix" result="effect1_dropShadow_1775_850"/>
<feBlend mode="normal" in="SourceGraphic" in2="effect1_dropShadow_1775_850" result="shape"/>
</filter>
<filter id="filter4_d_1775_850" x="71.6735" y="89" width="80.0105" height="69.2811" filterUnits="userSpaceOnUse" color-interpolation-filters="sRGB">
<feFlood flood-opacity="0" result="BackgroundImageFix"/>
<feColorMatrix in="SourceAlpha" type="matrix" values="0 0 0 0 0 0 0 0 0 0 0 0 0 0 0 0 0 0 127 0" result="hardAlpha"/>
<feOffset dy="4"/>
<feGaussianBlur stdDeviation="2"/>
<feComposite in2="hardAlpha" operator="out"/>
<feColorMatrix type="matrix" values="0 0 0 0 0 0 0 0 0 0 0 0 0 0 0 0 0 0 0.25 0"/>
<feBlend mode="normal" in2="BackgroundImageFix" result="effect1_dropShadow_1775_850"/>
<feBlend mode="normal" in="SourceGraphic" in2="effect1_dropShadow_1775_850" result="shape"/>
</filter>
<filter id="filter5_d_1775_850" x="73.5548" y="122.511" width="58.8267" height="46.3905" filterUnits="userSpaceOnUse" color-interpolation-filters="sRGB">
<feFlood flood-opacity="0" result="BackgroundImageFix"/>
<feColorMatrix in="SourceAlpha" type="matrix" values="0 0 0 0 0 0 0 0 0 0 0 0 0 0 0 0 0 0 127 0" result="hardAlpha"/>
<feOffset dy="4"/>
<feGaussianBlur stdDeviation="2"/>
<feComposite in2="hardAlpha" operator="out"/>
<feColorMatrix type="matrix" values="0 0 0 0 0 0 0 0 0 0 0 0 0 0 0 0 0 0 0.25 0"/>
<feBlend mode="normal" in2="BackgroundImageFix" result="effect1_dropShadow_1775_850"/>
<feBlend mode="normal" in="SourceGraphic" in2="effect1_dropShadow_1775_850" result="shape"/>
</filter>
<filter id="filter6_d_1775_850" x="85.583" y="141.215" width="53.3285" height="32.2275" filterUnits="userSpaceOnUse" color-interpolation-filters="sRGB">
<feFlood flood-opacity="0" result="BackgroundImageFix"/>
<feColorMatrix in="SourceAlpha" type="matrix" values="0 0 0 0 0 0 0 0 0 0 0 0 0 0 0 0 0 0 127 0" result="hardAlpha"/>
<feOffset dy="4"/>
<feGaussianBlur stdDeviation="2"/>
<feComposite in2="hardAlpha" operator="out"/>
<feColorMatrix type="matrix" values="0 0 0 0 0 0 0 0 0 0 0 0 0 0 0 0 0 0 0.25 0"/>
<feBlend mode="normal" in2="BackgroundImageFix" result="effect1_dropShadow_1775_850"/>
<feBlend mode="normal" in="SourceGraphic" in2="effect1_dropShadow_1775_850" result="shape"/>
</filter>
<filter id="filter7_d_1775_850" x="105.66" y="163.118" width="29.176" height="13.7794" filterUnits="userSpaceOnUse" color-interpolation-filters="sRGB">
<feFlood flood-opacity="0" result="BackgroundImageFix"/>
<feColorMatrix in="SourceAlpha" type="matrix" values="0 0 0 0 0 0 0 0 0 0 0 0 0 0 0 0 0 0 127 0" result="hardAlpha"/>
<feOffset dy="4"/>
<feGaussianBlur stdDeviation="2"/>
<feComposite in2="hardAlpha" operator="out"/>
<feColorMatrix type="matrix" values="0 0 0 0 0 0 0 0 0 0 0 0 0 0 0 0 0 0 0.25 0"/>
<feBlend mode="normal" in2="BackgroundImageFix" result="effect1_dropShadow_1775_850"/>
<feBlend mode="normal" in="SourceGraphic" in2="effect1_dropShadow_1775_850" result="shape"/>
</filter>
<linearGradient id="paint0_linear_1775_850" x1="124.82" y1="20.3162" x2="-393.946" y2="331.874" gradientUnits="userSpaceOnUse">
<stop offset="0.21826" stop-color="white"/>
<stop offset="0.69101" stop-color="white" stop-opacity="0"/>
</linearGradient>
<linearGradient id="paint1_linear_1775_850" x1="31.0458" y1="-4.23931" x2="205.606" y2="26.7678" gradientUnits="userSpaceOnUse">
<stop offset="0.21826" stop-color="white"/>
<stop offset="0.69101" stop-color="white" stop-opacity="0"/>
</linearGradient>
<linearGradient id="paint2_linear_1775_850" x1="150.607" y1="150.098" x2="142.562" y2="172.162" gradientUnits="userSpaceOnUse">
<stop stop-color="white"/>
<stop offset="0.0811393" stop-color="#373737"/>
<stop offset="0.237116" stop-color="#373737"/>
</linearGradient>
<linearGradient id="paint3_linear_1775_850" x1="179.22" y1="160.893" x2="173.986" y2="175.249" gradientUnits="userSpaceOnUse">
<stop stop-color="white"/>
<stop offset="0.121133" stop-color="#373737"/>
<stop offset="0.2015" stop-color="#373737"/>
</linearGradient>
<linearGradient id="paint4_linear_1775_850" x1="198.475" y1="168.134" x2="196.06" y2="174.757" gradientUnits="userSpaceOnUse">
<stop stop-color="white"/>
<stop offset="0.0825807" stop-color="#373737"/>
<stop offset="0.2015" stop-color="#373737"/>
</linearGradient>
<linearGradient id="paint5_linear_1775_850" x1="135.088" y1="146.142" x2="81.9384" y2="108.989" gradientUnits="userSpaceOnUse">
<stop offset="0.0442" stop-color="white"/>
<stop offset="0.5285" stop-color="#373737"/>
</linearGradient>
<clipPath id="clip0_1775_850">
<rect width="129" height="81" fill="white" transform="translate(77 89)"/>
</clipPath>
</defs>
</svg>
