<svg width="139" height="88" viewBox="0 0 139 88" fill="none" xmlns="http://www.w3.org/2000/svg">
<path d="M31.1479 67.0471C33.3669 67.0471 35.2769 67.0471 37.6937 67.0471C37.6937 73.5611 37.6937 65.4218 37.6937 68.8827C37.6937 71.2497 37.6628 67.3809 37.7061 69.7479C37.8235 76.7624 42.3233 81.3358 49.3821 81.3852C60.3041 81.4656 71.226 81.41 82.148 81.41C94.5101 81.41 106.878 81.4161 119.241 81.41C127.431 81.4038 131.887 76.9726 131.887 68.8641C131.893 52.4804 131.899 36.0967 131.881 19.7129C131.875 11.932 127.381 7.38959 119.655 7.38341C96.3706 7.36487 73.0803 7.36487 49.7962 7.38959C42.2182 7.38341 37.7617 11.8764 37.6999 19.5152C37.6566 25.0526 37.6937 27.3764 37.6937 33.0622C35.4191 33.0622 33.4967 33.0622 30.8574 33.0622C31.1788 25.5285 30.8574 21.1838 32.0009 13.8541C33.1691 6.41311 40.5679 1.07341 48.1768 1.05487C72.5982 0.98689 97.0196 0.97453 121.441 1.06105C130.113 1.09195 137.32 7.94581 138.192 16.6166C138.315 17.8465 138.359 19.0825 138.359 20.3186C138.371 36.4984 138.39 52.6782 138.371 68.8518C138.352 80.5262 131.158 87.7323 119.488 87.7447C96.2037 87.7694 72.9134 87.7694 49.6293 87.7447C38.6456 87.7323 31.2345 80.3099 31.1665 69.3276C31.1232 63.6913 31.1479 72.8751 31.1479 67.0471Z" stroke="#373737" stroke-width="2" stroke-miterlimit="10"/>
<path d="M99.4488 44.1433C97.9777 43.1236 96.5066 42.1162 95.0479 41.0841C94.677 40.8184 94.1516 40.5341 94.0589 40.1694C93.9353 39.6812 94.028 39.0138 94.2938 38.5935C94.4236 38.3834 95.2766 38.371 95.598 38.5873C98.4784 40.497 101.322 42.4499 104.146 44.44C105.142 45.1445 105.148 46.1334 104.159 46.8379C101.34 48.8279 98.497 50.7932 95.6104 52.6844C95.2766 52.9069 94.3989 52.8018 94.1269 52.5113C93.5583 51.9118 93.7499 51.1517 94.4236 50.6511C95.4064 49.9218 96.4263 49.2544 97.4276 48.556C98.1137 48.0801 98.7998 47.6042 99.8012 46.9059C98.9853 46.8688 98.5155 46.8255 98.0457 46.8255C88.7741 46.8194 79.5025 46.8194 70.2309 46.8194C69.8538 46.8194 69.3779 46.9491 69.1121 46.7699C68.6609 46.4609 68.1046 45.9912 68.0428 45.5277C67.9995 45.2063 68.6609 44.6995 69.1059 44.4338C69.3903 44.2669 69.8477 44.3967 70.2247 44.3967C79.4963 44.3967 88.7679 44.3967 98.0395 44.3967C98.4846 44.3967 98.9234 44.3967 99.3685 44.3967C99.3994 44.3102 99.4241 44.2298 99.4488 44.1433Z" fill="#373737"/>
<path d="M23.3227 59.6495C21.4313 61.6333 19.6574 63.5677 17.7845 65.4032C17.3147 65.8606 16.5421 66.2376 15.9055 66.2437C14.3478 66.2623 13.5072 64.8408 13.977 63.1969C14.9165 59.8843 15.8436 56.5655 16.8264 53.2653C17.0304 52.5731 16.9439 52.227 16.301 51.8253C11.3006 48.6858 6.33097 45.4906 1.34285 42.3263C0.458953 41.7639 -0.134431 41.0717 0.0262773 39.9593C0.199347 38.7727 1.00907 38.2721 2.11548 38.0187C18.551 34.2364 34.9864 30.4294 51.4219 26.641C51.8299 26.5483 52.2564 26.437 52.6643 26.4679C54.191 26.5977 55.0626 28.0191 54.4692 29.5209C53.3195 32.4442 52.1018 35.3365 50.9089 38.2412C49.1473 42.5426 47.3857 46.8441 45.6241 51.1455C43.881 55.3851 42.1318 59.6247 40.3825 63.8644C39.3008 66.4848 38.2377 69.1175 37.1374 71.7318C36.3957 73.4993 34.4301 73.7651 33.231 72.2509C30.1219 68.3141 27.0438 64.365 23.947 60.422C23.7616 60.1871 23.57 59.9585 23.3227 59.6495ZM34.4549 66.7258C39.0907 55.4284 43.6585 44.3102 48.2201 33.1858C48.1521 33.1425 48.0779 33.0993 48.01 33.056C39.3997 39.0261 30.7833 45.0024 22.136 50.9972C26.2402 56.238 30.2765 61.3861 34.4549 66.7258ZM44.2148 32.9695C44.1962 32.9139 44.1715 32.8582 44.153 32.8026C32.0875 35.5961 20.0221 38.3834 7.7588 41.2201C12.0423 43.9455 16.1032 46.5474 20.1889 49.0998C20.4176 49.242 20.9368 49.1431 21.1903 48.9701C28.6756 43.8096 36.1423 38.6306 43.609 33.4515C43.813 33.297 44.0108 33.124 44.2148 32.9695Z" fill="#373737"/>
<path d="M62.9062 47.1036C63.6572 47.1036 64.2661 46.4948 64.2661 45.7439C64.2661 44.993 63.6572 44.3843 62.9062 44.3843C62.1552 44.3843 61.5464 44.993 61.5464 45.7439C61.5464 46.4948 62.1552 47.1036 62.9062 47.1036Z" fill="#373737"/>
<path d="M57.4979 46.7019C58.027 46.7019 58.4559 46.273 58.4559 45.7439C58.4559 45.2149 58.027 44.786 57.4979 44.786C56.9687 44.786 56.5398 45.2149 56.5398 45.7439C56.5398 46.273 56.9687 46.7019 57.4979 46.7019Z" fill="#373737"/>
<path d="M53.3072 46.3558C53.6452 46.3558 53.9192 46.0818 53.9192 45.7439C53.9192 45.406 53.6452 45.1321 53.3072 45.1321C52.9693 45.1321 52.6953 45.406 52.6953 45.7439C52.6953 46.0818 52.9693 46.3558 53.3072 46.3558Z" fill="#373737"/>
</svg>
