<svg width="138" height="80" viewBox="0 0 138 80" fill="none" xmlns="http://www.w3.org/2000/svg">
<path d="M99.2576 62.0218C91.7111 72.2945 82.1033 78.245 69.6351 79.7389C49.3258 82.1728 28.924 67.1414 26.1477 46.9651C25.4578 41.9294 25.9794 36.684 26.4169 31.5811C26.5179 30.381 28.5202 29.3487 29.6391 28.2324C30.0261 29.6844 30.9684 31.237 30.716 32.5715C27.0142 52.5547 38.7 70.3306 58.555 74.7033C72.3946 77.7498 86.9745 71.8749 95.0763 59.6382C97.1207 56.5497 98.8959 56.1132 101.807 58.1863C103.733 59.5543 105.912 60.5782 108.369 61.9798C109.446 60.2173 110.531 58.4968 111.574 56.7427C114.452 51.9001 114.443 51.8917 119.155 54.569C123.277 56.919 127.391 59.2773 132.355 62.1225C131.614 59.2018 130.798 57.0616 130.613 54.8627C130.487 53.436 131.278 51.9336 131.657 50.4649C132.733 51.4636 134.366 52.2777 134.786 53.5031C136.132 57.4561 137.243 61.5266 137.975 65.6307C138.168 66.7217 136.974 68.8619 135.964 69.2228C131.892 70.6663 127.677 71.7574 123.437 72.6051C122.284 72.8317 120.871 71.7574 119.584 71.279C120.534 70.3054 121.317 68.9542 122.469 68.4506C124.59 67.519 126.928 67.091 129.974 66.2349C127.349 64.6319 125.305 63.331 123.218 62.1057C121.056 60.8384 118.843 59.6382 116.193 58.1443C114.805 60.4187 113.341 62.5673 112.155 64.8585C110.851 67.3596 109.32 68.0226 106.821 66.3776C104.491 64.8417 101.992 63.5828 99.2576 62.0218Z" fill="#373737"/>
<path d="M22.7992 18.0353C22.2692 18.6899 22.0673 18.8913 21.9243 19.1263C16.5483 28.0059 16.5399 28.0143 7.70612 22.9534C3.4575 20.5195 -0.841601 18.1779 -4.95561 15.5426C-5.96519 14.8964 -6.33536 13.2766 -7 12.1016C-5.57818 11.9673 -3.84508 11.2371 -2.79344 11.7994C3.11256 14.9215 8.8503 18.3542 15.0255 21.8959C16.5567 19.269 17.9533 16.8938 19.3246 14.5103C20.4352 12.5716 21.8822 12.1351 23.8425 13.3269C26.3496 14.846 28.9156 16.2728 31.7929 17.9345C32.7435 16.7596 33.6774 15.593 34.6281 14.4431C46.3223 0.326486 66.2866 -3.9958 83.0035 3.94378C99.4006 11.7407 108.63 30.146 104.936 47.8548C104.667 49.1473 103.961 50.4314 103.144 51.4721C102.867 51.8246 100.999 51.6064 100.949 51.3714C100.595 49.9782 100.234 48.4591 100.469 47.0827C102.556 34.8124 99.6362 24.0109 90.8529 15.0894C75.0615 -0.940825 48.6275 1.51826 36.1088 20.209C34.1233 23.1716 32.4407 24.0025 29.4204 21.8456C27.3928 20.4104 25.1129 19.3445 22.7992 18.0353Z" fill="#373737"/>
<path d="M77.3667 28.6269C75.9617 28.6185 74.5651 28.6185 73.1601 28.6353C72.79 28.6437 72.6133 28.5598 72.4955 28.1569C72.2768 27.3764 71.9907 26.621 71.6626 25.8825C71.4439 25.3789 71.1073 24.9173 70.7876 24.3634C71.0316 24.3634 71.2083 24.3634 71.3766 24.3634C73.2948 24.3634 75.2129 24.3634 77.1311 24.3634C78.2333 24.3634 78.4436 24.1452 78.452 23.0793C78.452 22.2988 78.452 21.5182 78.452 20.7461C78.452 19.8984 78.1912 19.6299 77.3499 19.6215C75.6673 19.6215 73.9762 19.6215 72.2936 19.6215C66.0847 19.6215 59.8674 19.6215 53.6585 19.6215C53.4987 19.6215 53.3725 19.6299 53.2547 19.6466H53.2295C52.649 19.7306 52.4807 20.0243 52.4807 20.8216C52.4807 20.8972 52.4807 20.9727 52.4807 21.0482V22.7268C52.4807 22.945 52.4807 23.1716 52.4807 23.3898V25.2111H54.3653C54.4746 25.2362 54.6176 25.2278 54.7691 25.2111H55.9385C56.0479 25.2194 56.1488 25.2194 56.2498 25.2278C57.5791 25.295 58.9083 25.3034 60.2292 25.4461C61.651 25.6055 62.9971 26.0419 64.1329 26.9568C64.6629 27.3848 65.1172 27.88 65.4117 28.6269C65.1256 28.6269 64.9321 28.6269 64.747 28.6269C61.2472 28.6269 57.7557 28.6269 54.2559 28.6353C54.0876 28.6353 53.8773 28.6437 53.7679 28.7444C52.4807 29.9362 52.4891 29.9362 52.4807 31.749C52.4807 31.8414 52.4807 31.9253 52.4807 32.0176C52.4807 33.159 52.6574 33.3353 53.8184 33.3353C57.5791 33.3353 61.3481 33.3353 65.1088 33.3353C65.3275 33.3353 65.5547 33.3604 65.8239 33.3856C65.4621 34.804 64.6713 35.8195 63.5608 36.6168C63.4262 36.7092 63.3168 36.8435 63.1906 36.9526C63.056 36.9861 62.913 37.0029 62.7952 37.0701C61.3397 37.817 59.7749 38.1695 58.1512 38.2367C56.6284 38.2954 55.1056 38.2954 53.5828 38.3206C52.8088 38.329 52.4975 38.6395 52.4891 39.42C52.4807 40.4272 52.5144 41.4343 52.4807 42.4414C52.4555 42.9954 52.649 43.4066 53.0107 43.8179C56.376 47.5946 59.716 51.3798 63.0728 55.1649C63.1738 55.2824 63.3505 55.3328 63.4935 55.4167C63.5524 55.5594 63.5692 55.7188 63.6617 55.8279C64.8143 57.2127 65.9585 58.6059 67.1448 59.9656C67.3467 60.2006 67.7421 60.3768 68.045 60.3852C69.8538 60.4272 71.6626 60.402 73.4714 60.402C73.9089 60.402 74.2118 60.2341 74.4137 59.8481C74.624 59.4452 74.4474 59.1515 74.195 58.8409C72.2431 56.491 70.2913 54.1326 68.3394 51.7826C68.1543 51.5644 67.9104 51.3965 67.7 51.2035C67.6159 51.0356 67.557 50.851 67.4308 50.7167C65.3612 48.3751 63.2916 46.0335 61.2135 43.692C61.1294 43.5996 61.0705 43.4821 60.9948 43.3646C61.0873 43.3227 61.1126 43.2975 61.1462 43.2975C63.199 43.0625 65.1593 42.5002 66.9765 41.5014C67.2373 41.3588 67.4645 41.2329 67.1784 40.9223C67.5234 41.3672 67.8094 41.0147 68.0786 40.83C70.4764 39.1263 72.0328 36.8602 72.5796 33.9563C72.6638 33.4947 72.8404 33.3101 73.3368 33.3269C74.7166 33.3604 76.1047 33.3437 77.4929 33.3353C78.2333 33.3269 78.5445 32.9996 78.5445 32.2526C78.5445 31.4385 78.5445 30.6244 78.5445 29.8103C78.5361 28.8955 78.2753 28.6269 77.3667 28.6269Z" fill="#373737"/>
</svg>
